%TF.GenerationSoftware,KiCad,Pcbnew,9.0.0*%
%TF.CreationDate,2025-04-05T19:49:26+05:30*%
%TF.ProjectId,Power Monitor System,506f7765-7220-44d6-9f6e-69746f722053,rev?*%
%TF.SameCoordinates,Original*%
%TF.FileFunction,Copper,L2,Bot*%
%TF.FilePolarity,Positive*%
%FSLAX46Y46*%
G04 Gerber Fmt 4.6, Leading zero omitted, Abs format (unit mm)*
G04 Created by KiCad (PCBNEW 9.0.0) date 2025-04-05 19:49:26*
%MOMM*%
%LPD*%
G01*
G04 APERTURE LIST*
G04 Aperture macros list*
%AMRoundRect*
0 Rectangle with rounded corners*
0 $1 Rounding radius*
0 $2 $3 $4 $5 $6 $7 $8 $9 X,Y pos of 4 corners*
0 Add a 4 corners polygon primitive as box body*
4,1,4,$2,$3,$4,$5,$6,$7,$8,$9,$2,$3,0*
0 Add four circle primitives for the rounded corners*
1,1,$1+$1,$2,$3*
1,1,$1+$1,$4,$5*
1,1,$1+$1,$6,$7*
1,1,$1+$1,$8,$9*
0 Add four rect primitives between the rounded corners*
20,1,$1+$1,$2,$3,$4,$5,0*
20,1,$1+$1,$4,$5,$6,$7,0*
20,1,$1+$1,$6,$7,$8,$9,0*
20,1,$1+$1,$8,$9,$2,$3,0*%
G04 Aperture macros list end*
%TA.AperFunction,ComponentPad*%
%ADD10R,1.600000X1.600000*%
%TD*%
%TA.AperFunction,ComponentPad*%
%ADD11O,1.600000X1.600000*%
%TD*%
%TA.AperFunction,ComponentPad*%
%ADD12R,2.540000X2.540000*%
%TD*%
%TA.AperFunction,ComponentPad*%
%ADD13C,2.540000*%
%TD*%
%TA.AperFunction,ViaPad*%
%ADD14C,0.600000*%
%TD*%
%TA.AperFunction,Conductor*%
%ADD15C,0.200000*%
%TD*%
%ADD16R,1.600000X1.600000*%
%ADD17O,1.600000X1.600000*%
%ADD18R,2.540000X2.540000*%
%ADD19C,2.540000*%
%TA.AperFunction,SMDPad,CuDef*%
%ADD20RoundRect,0.200000X-0.200000X-0.275000X0.200000X-0.275000X0.200000X0.275000X-0.200000X0.275000X0*%
%TD*%
%TA.AperFunction,SMDPad,CuDef*%
%ADD21RoundRect,0.218750X-0.218750X-0.256250X0.218750X-0.256250X0.218750X0.256250X-0.218750X0.256250X0*%
%TD*%
%TA.AperFunction,SMDPad,CuDef*%
%ADD22RoundRect,0.150000X-0.825000X-0.150000X0.825000X-0.150000X0.825000X0.150000X-0.825000X0.150000X0*%
%TD*%
%TA.AperFunction,SMDPad,CuDef*%
%ADD23RoundRect,0.250000X-0.830000X-0.310000X0.830000X-0.310000X0.830000X0.310000X-0.830000X0.310000X0*%
%TD*%
%ADD24RoundRect,0.200000X-0.200000X-0.275000X0.200000X-0.275000X0.200000X0.275000X-0.200000X0.275000X0*%
%ADD25RoundRect,0.218750X-0.218750X-0.256250X0.218750X-0.256250X0.218750X0.256250X-0.218750X0.256250X0*%
%ADD26RoundRect,0.150000X-0.825000X-0.150000X0.825000X-0.150000X0.825000X0.150000X-0.825000X0.150000X0*%
%ADD27RoundRect,0.250000X-0.830000X-0.310000X0.830000X-0.310000X0.830000X0.310000X-0.830000X0.310000X0*%
%ADD28C,0.150000*%
%ADD29C,0.120000*%
%ADD30C,0.000000*%
%TA.AperFunction,Profile*%
%ADD31C,0.050000*%
%TD*%
G04 APERTURE END LIST*
D10*
%TO.P,A1,1,D1/TX*%
%TO.N,Net-(A1-D1{slash}TX)*%
X81260000Y-67550000D03*
D11*
%TO.P,A1,2,D0/RX*%
%TO.N,unconnected-(A1-D0{slash}RX-Pad2)*%
X81260000Y-70090000D03*
%TO.P,A1,3,~{RESET}*%
%TO.N,unconnected-(A1-~{RESET}-Pad3)*%
X81260000Y-72630000D03*
%TO.P,A1,4,GND*%
%TO.N,Net-(U1-GND)*%
X81260000Y-75170000D03*
%TO.P,A1,5,D2*%
%TO.N,Net-(A1-D2)*%
X81260000Y-77710000D03*
%TO.P,A1,6,D3*%
%TO.N,unconnected-(A1-D3-Pad6)*%
X81260000Y-80250000D03*
%TO.P,A1,7,D4*%
%TO.N,unconnected-(A1-D4-Pad7)*%
X81260000Y-82790000D03*
%TO.P,A1,8,D5*%
%TO.N,unconnected-(A1-D5-Pad8)*%
X81260000Y-85330000D03*
%TO.P,A1,9,D6*%
%TO.N,unconnected-(A1-D6-Pad9)*%
X81260000Y-87870000D03*
%TO.P,A1,10,D7*%
%TO.N,unconnected-(A1-D7-Pad10)*%
X81260000Y-90410000D03*
%TO.P,A1,11,D8*%
%TO.N,unconnected-(A1-D8-Pad11)*%
X81260000Y-92950000D03*
%TO.P,A1,12,D9*%
%TO.N,unconnected-(A1-D9-Pad12)*%
X81260000Y-95490000D03*
%TO.P,A1,13,D10/CS*%
%TO.N,unconnected-(A1-D10{slash}CS-Pad13)*%
X81260000Y-98030000D03*
%TO.P,A1,14,D11/COPI*%
%TO.N,unconnected-(A1-D11{slash}COPI-Pad14)*%
X81260000Y-100570000D03*
%TO.P,A1,15,D12/CIPO*%
%TO.N,unconnected-(A1-D12{slash}CIPO-Pad15)*%
X81260000Y-103110000D03*
%TO.P,A1,16,D13/SCK*%
%TO.N,unconnected-(A1-D13{slash}SCK-Pad16)*%
X96500000Y-103110000D03*
%TO.P,A1,17,3V3*%
%TO.N,Net-(A1-3V3)*%
X96500000Y-100570000D03*
%TO.P,A1,18,B0*%
%TO.N,unconnected-(A1-B0-Pad18)*%
X96500000Y-98030000D03*
%TO.P,A1,19,A0*%
%TO.N,unconnected-(A1-A0-Pad19)*%
X96500000Y-95490000D03*
%TO.P,A1,20,A1*%
%TO.N,unconnected-(A1-A1-Pad20)*%
X96500000Y-92950000D03*
%TO.P,A1,21,A2*%
%TO.N,unconnected-(A1-A2-Pad21)*%
X96500000Y-90410000D03*
%TO.P,A1,22,A3*%
%TO.N,unconnected-(A1-A3-Pad22)*%
X96500000Y-87870000D03*
%TO.P,A1,23,SDA/A4*%
%TO.N,unconnected-(A1-SDA{slash}A4-Pad23)*%
X96500000Y-85330000D03*
%TO.P,A1,24,SCL/A5*%
%TO.N,unconnected-(A1-SCL{slash}A5-Pad24)*%
X96500000Y-82790000D03*
%TO.P,A1,25,A6*%
%TO.N,unconnected-(A1-A6-Pad25)*%
X96500000Y-80250000D03*
%TO.P,A1,26,A7*%
%TO.N,unconnected-(A1-A7-Pad26)*%
X96500000Y-77710000D03*
%TO.P,A1,27,VUSB/5V*%
%TO.N,unconnected-(A1-VUSB{slash}5V-Pad27)*%
X96500000Y-75170000D03*
%TO.P,A1,28,B1*%
%TO.N,unconnected-(A1-B1-Pad28)*%
X96500000Y-72630000D03*
%TO.P,A1,29,GND*%
%TO.N,Net-(U1-GND)*%
X96500000Y-70090000D03*
%TO.P,A1,30,VIN*%
%TO.N,unconnected-(A1-VIN-Pad30)*%
X96500000Y-67550000D03*
%TD*%
D12*
%TO.P,BT1,1,+*%
%TO.N,Net-(BT1-+)*%
X154767800Y-94250000D03*
D13*
%TO.P,BT1,2,-*%
%TO.N,Net-(U1-GND)*%
X164750000Y-94250000D03*
%TD*%
D14*
%TO.N,Net-(U1-GND)*%
X142250000Y-56500000D03*
X153750000Y-56500000D03*
%TO.N,Net-(A1-3V3)*%
X139750000Y-129250000D03*
X142750000Y-129250000D03*
%TO.N,Net-(BT1-+)*%
X137000000Y-129000000D03*
X144000000Y-125750000D03*
%TO.N,Net-(D2-A)*%
X139000000Y-60750000D03*
X143000000Y-60750000D03*
%TO.N,Net-(D4-A)*%
X211500000Y-55000000D03*
X229500000Y-55000000D03*
%TO.N,Net-(U1-IN-)*%
X143750000Y-133250000D03*
X140250000Y-133250000D03*
%TD*%
D15*
%TO.N,Net-(U1-GND)*%
X153750000Y-56500000D02*
X142250000Y-56500000D01*
%TO.N,Net-(A1-3V3)*%
X139750000Y-129250000D02*
X142750000Y-129250000D01*
%TO.N,Net-(BT1-+)*%
X137000000Y-129000000D02*
X137000000Y-127500000D01*
X137000000Y-127500000D02*
X138750000Y-125750000D01*
X138750000Y-125750000D02*
X144000000Y-125750000D01*
%TO.N,Net-(D2-A)*%
X143000000Y-60750000D02*
X139000000Y-60750000D01*
%TO.N,Net-(D4-A)*%
X211500000Y-55000000D02*
X229500000Y-55000000D01*
%TO.N,Net-(U1-IN-)*%
X143500000Y-133250000D02*
X143750000Y-133250000D01*
X140250000Y-133250000D02*
X143500000Y-133250000D01*
%TD*%
D16*
%TO.C,A1*%
X81260000Y-67550000D03*
D17*
X81260000Y-70090000D03*
X81260000Y-72630000D03*
X81260000Y-75170000D03*
X81260000Y-77710000D03*
X81260000Y-80250000D03*
X81260000Y-82790000D03*
X81260000Y-85330000D03*
X81260000Y-87870000D03*
X81260000Y-90410000D03*
X81260000Y-92950000D03*
X81260000Y-95490000D03*
X81260000Y-98030000D03*
X81260000Y-100570000D03*
X81260000Y-103110000D03*
X96500000Y-103110000D03*
X96500000Y-100570000D03*
X96500000Y-98030000D03*
X96500000Y-95490000D03*
X96500000Y-92950000D03*
X96500000Y-90410000D03*
X96500000Y-87870000D03*
X96500000Y-85330000D03*
X96500000Y-82790000D03*
X96500000Y-80250000D03*
X96500000Y-77710000D03*
X96500000Y-75170000D03*
X96500000Y-72630000D03*
X96500000Y-70090000D03*
X96500000Y-67550000D03*
%TD*%
D18*
%TO.C,BT1*%
X154767800Y-94250000D03*
D19*
X164750000Y-94250000D03*
%TD*%
D10*
%TO.P,A1,1,D1/TX*%
%TO.N,Net-(A1-D1{slash}TX)*%
X81260000Y-67550000D03*
D11*
%TO.P,A1,2,D0/RX*%
%TO.N,unconnected-(A1-D0{slash}RX-Pad2)*%
X81260000Y-70090000D03*
%TO.P,A1,3,~{RESET}*%
%TO.N,unconnected-(A1-~{RESET}-Pad3)*%
X81260000Y-72630000D03*
%TO.P,A1,4,GND*%
%TO.N,Net-(U1-GND)*%
X81260000Y-75170000D03*
%TO.P,A1,5,D2*%
%TO.N,Net-(A1-D2)*%
X81260000Y-77710000D03*
%TO.P,A1,6,D3*%
%TO.N,unconnected-(A1-D3-Pad6)*%
X81260000Y-80250000D03*
%TO.P,A1,7,D4*%
%TO.N,unconnected-(A1-D4-Pad7)*%
X81260000Y-82790000D03*
%TO.P,A1,8,D5*%
%TO.N,unconnected-(A1-D5-Pad8)*%
X81260000Y-85330000D03*
%TO.P,A1,9,D6*%
%TO.N,unconnected-(A1-D6-Pad9)*%
X81260000Y-87870000D03*
%TO.P,A1,10,D7*%
%TO.N,unconnected-(A1-D7-Pad10)*%
X81260000Y-90410000D03*
%TO.P,A1,11,D8*%
%TO.N,unconnected-(A1-D8-Pad11)*%
X81260000Y-92950000D03*
%TO.P,A1,12,D9*%
%TO.N,unconnected-(A1-D9-Pad12)*%
X81260000Y-95490000D03*
%TO.P,A1,13,D10/CS*%
%TO.N,unconnected-(A1-D10{slash}CS-Pad13)*%
X81260000Y-98030000D03*
%TO.P,A1,14,D11/COPI*%
%TO.N,unconnected-(A1-D11{slash}COPI-Pad14)*%
X81260000Y-100570000D03*
%TO.P,A1,15,D12/CIPO*%
%TO.N,unconnected-(A1-D12{slash}CIPO-Pad15)*%
X81260000Y-103110000D03*
%TO.P,A1,16,D13/SCK*%
%TO.N,unconnected-(A1-D13{slash}SCK-Pad16)*%
X96500000Y-103110000D03*
%TO.P,A1,17,3V3*%
%TO.N,Net-(A1-3V3)*%
X96500000Y-100570000D03*
%TO.P,A1,18,B0*%
%TO.N,unconnected-(A1-B0-Pad18)*%
X96500000Y-98030000D03*
%TO.P,A1,19,A0*%
%TO.N,unconnected-(A1-A0-Pad19)*%
X96500000Y-95490000D03*
%TO.P,A1,20,A1*%
%TO.N,unconnected-(A1-A1-Pad20)*%
X96500000Y-92950000D03*
%TO.P,A1,21,A2*%
%TO.N,unconnected-(A1-A2-Pad21)*%
X96500000Y-90410000D03*
%TO.P,A1,22,A3*%
%TO.N,unconnected-(A1-A3-Pad22)*%
X96500000Y-87870000D03*
%TO.P,A1,23,SDA/A4*%
%TO.N,unconnected-(A1-SDA{slash}A4-Pad23)*%
X96500000Y-85330000D03*
%TO.P,A1,24,SCL/A5*%
%TO.N,unconnected-(A1-SCL{slash}A5-Pad24)*%
X96500000Y-82790000D03*
%TO.P,A1,25,A6*%
%TO.N,unconnected-(A1-A6-Pad25)*%
X96500000Y-80250000D03*
%TO.P,A1,26,A7*%
%TO.N,unconnected-(A1-A7-Pad26)*%
X96500000Y-77710000D03*
%TO.P,A1,27,VUSB/5V*%
%TO.N,unconnected-(A1-VUSB{slash}5V-Pad27)*%
X96500000Y-75170000D03*
%TO.P,A1,28,B1*%
%TO.N,unconnected-(A1-B1-Pad28)*%
X96500000Y-72630000D03*
%TO.P,A1,29,GND*%
%TO.N,Net-(U1-GND)*%
X96500000Y-70090000D03*
%TO.P,A1,30,VIN*%
%TO.N,unconnected-(A1-VIN-Pad30)*%
X96500000Y-67550000D03*
%TD*%
D20*
%TO.P,R1,1*%
%TO.N,Net-(R1-Pad1)*%
X219100000Y-58250000D03*
%TO.P,R1,2*%
%TO.N,Net-(U1-GND)*%
X220750000Y-58250000D03*
%TD*%
%TO.P,R3,1*%
%TO.N,Net-(R3-Pad1)*%
X219100000Y-66750000D03*
%TO.P,R3,2*%
%TO.N,Net-(D3-A)*%
X220750000Y-66750000D03*
%TD*%
D21*
%TO.P,D1,1,K*%
%TO.N,Net-(U1-GND)*%
X134425000Y-57000000D03*
%TO.P,D1,2,A*%
X136000000Y-57000000D03*
%TD*%
%TO.P,D2,1,K*%
%TO.N,Net-(U1-GND)*%
X134425000Y-61250000D03*
%TO.P,D2,2,A*%
%TO.N,Net-(D2-A)*%
X136000000Y-61250000D03*
%TD*%
D22*
%TO.P,U1,1,A1*%
%TO.N,unconnected-(U1-A1-Pad1)*%
X132050000Y-132000000D03*
%TO.P,U1,2,A0*%
%TO.N,unconnected-(U1-A0-Pad2)*%
X132050000Y-133270000D03*
%TO.P,U1,3,SDA*%
%TO.N,Net-(A1-D2)*%
X132050000Y-134540000D03*
%TO.P,U1,4,SCL*%
%TO.N,Net-(A1-D1{slash}TX)*%
X132050000Y-135810000D03*
%TO.P,U1,5,VS*%
%TO.N,Net-(A1-3V3)*%
X137000000Y-135810000D03*
%TO.P,U1,6,GND*%
%TO.N,Net-(U1-GND)*%
X137000000Y-134540000D03*
%TO.P,U1,7,IN-*%
%TO.N,Net-(U1-IN-)*%
X137000000Y-133270000D03*
%TO.P,U1,8,IN+*%
%TO.N,Net-(BT1-+)*%
X137000000Y-132000000D03*
%TD*%
D21*
%TO.P,D4,1,K*%
%TO.N,Net-(U1-GND)*%
X134425000Y-69750000D03*
%TO.P,D4,2,A*%
%TO.N,Net-(D4-A)*%
X136000000Y-69750000D03*
%TD*%
D20*
%TO.P,R4,1*%
%TO.N,Net-(R4-Pad1)*%
X219100000Y-71000000D03*
%TO.P,R4,2*%
%TO.N,Net-(D4-A)*%
X220750000Y-71000000D03*
%TD*%
D12*
%TO.P,BT1,1,+*%
%TO.N,Net-(BT1-+)*%
X154767800Y-94250000D03*
D13*
%TO.P,BT1,2,-*%
%TO.N,Net-(U1-GND)*%
X164750000Y-94250000D03*
%TD*%
D21*
%TO.P,D3,1,K*%
%TO.N,Net-(U1-GND)*%
X134425000Y-65500000D03*
%TO.P,D3,2,A*%
%TO.N,Net-(D3-A)*%
X136000000Y-65500000D03*
%TD*%
D23*
%TO.P,SW1,1*%
%TO.N,Net-(U1-IN-)*%
X199770000Y-76000000D03*
%TO.P,SW1,2*%
X199770000Y-78540000D03*
%TO.P,SW1,3*%
X199770000Y-81080000D03*
%TO.P,SW1,4*%
X199770000Y-83620000D03*
%TO.P,SW1,5*%
%TO.N,Net-(R4-Pad1)*%
X206500000Y-83620000D03*
%TO.P,SW1,6*%
%TO.N,Net-(R3-Pad1)*%
X206500000Y-81080000D03*
%TO.P,SW1,7*%
%TO.N,Net-(R2-Pad1)*%
X206500000Y-78540000D03*
%TO.P,SW1,8*%
%TO.N,Net-(R1-Pad1)*%
X206500000Y-76000000D03*
%TD*%
D20*
%TO.P,R2,1*%
%TO.N,Net-(R2-Pad1)*%
X219100000Y-62500000D03*
%TO.P,R2,2*%
%TO.N,Net-(D2-A)*%
X220750000Y-62500000D03*
%TD*%
D14*
%TO.N,Net-(U1-GND)*%
X142250000Y-56500000D03*
X153750000Y-56500000D03*
%TO.N,Net-(A1-3V3)*%
X139750000Y-129250000D03*
X142750000Y-129250000D03*
%TO.N,Net-(BT1-+)*%
X137000000Y-129000000D03*
X144000000Y-125750000D03*
%TO.N,Net-(D2-A)*%
X139000000Y-60750000D03*
X143000000Y-60750000D03*
%TO.N,Net-(D4-A)*%
X211500000Y-55000000D03*
X229500000Y-55000000D03*
%TO.N,Net-(U1-IN-)*%
X143750000Y-133250000D03*
X140250000Y-133250000D03*
%TD*%
D15*
%TO.N,Net-(U1-GND)*%
X139250000Y-78500000D02*
X139250000Y-82500000D01*
X139250000Y-82500000D02*
X141500000Y-84750000D01*
X145250000Y-78500000D02*
X149750000Y-83000000D01*
X141500000Y-133290000D02*
X140250000Y-134540000D01*
X134425000Y-69750000D02*
X134425000Y-65500000D01*
X142250000Y-56500000D02*
X142000000Y-56500000D01*
X134425000Y-69750000D02*
X134425000Y-73675000D01*
X141750000Y-57000000D02*
X136000000Y-57000000D01*
X149750000Y-83000000D02*
X149750000Y-88500000D01*
X81260000Y-75170000D02*
X91420000Y-75170000D01*
X149750000Y-88500000D02*
X159000000Y-88500000D01*
X134425000Y-73675000D02*
X139250000Y-78500000D01*
X141500000Y-84750000D02*
X141500000Y-133290000D01*
X126840000Y-70090000D02*
X139250000Y-82500000D01*
X159000000Y-88500000D02*
X164750000Y-94250000D01*
X96500000Y-70090000D02*
X126840000Y-70090000D01*
X91420000Y-75170000D02*
X96500000Y-70090000D01*
X142250000Y-56500000D02*
X141750000Y-57000000D01*
X224000000Y-58250000D02*
X220750000Y-58250000D01*
X153750000Y-56500000D02*
X222250000Y-56500000D01*
X134425000Y-61250000D02*
X134425000Y-57000000D01*
X222250000Y-56500000D02*
X224000000Y-58250000D01*
X139250000Y-78500000D02*
X145250000Y-78500000D01*
X137000000Y-134540000D02*
X140250000Y-134540000D01*
X134425000Y-65500000D02*
X134425000Y-61250000D01*
%TO.N,Net-(A1-3V3)*%
X142750000Y-134750000D02*
X141690000Y-135810000D01*
X111070000Y-100570000D02*
X139750000Y-129250000D01*
X141690000Y-135810000D02*
X137000000Y-135810000D01*
X96500000Y-100570000D02*
X111070000Y-100570000D01*
X142750000Y-129250000D02*
X142750000Y-134750000D01*
%TO.N,Net-(A1-D2)*%
X77290000Y-134540000D02*
X132050000Y-134540000D01*
X74040000Y-77710000D02*
X70250000Y-81500000D01*
X70250000Y-127500000D02*
X77290000Y-134540000D01*
X70250000Y-81500000D02*
X70250000Y-127500000D01*
X81260000Y-77710000D02*
X74040000Y-77710000D01*
%TO.N,Net-(A1-D1{slash}TX)*%
X68750000Y-129250000D02*
X75310000Y-135810000D01*
X68750000Y-72500000D02*
X68750000Y-129250000D01*
X73700000Y-67550000D02*
X68750000Y-72500000D01*
X73700000Y-67550000D02*
X81260000Y-67550000D01*
X75310000Y-135810000D02*
X132050000Y-135810000D01*
%TO.N,Net-(BT1-+)*%
X146500000Y-91500000D02*
X147500000Y-91500000D01*
X150250000Y-94250000D02*
X154767800Y-94250000D01*
X147500000Y-91500000D02*
X150250000Y-94250000D01*
X146500000Y-123250000D02*
X146500000Y-91500000D01*
X144000000Y-125750000D02*
X146500000Y-123250000D01*
X137000000Y-132000000D02*
X137000000Y-129000000D01*
%TO.N,Net-(D2-A)*%
X225750000Y-60750000D02*
X224000000Y-62500000D01*
X139000000Y-60750000D02*
X138500000Y-61250000D01*
X151250000Y-52500000D02*
X220000000Y-52500000D01*
X138500000Y-61250000D02*
X136000000Y-61250000D01*
X143000000Y-60750000D02*
X151250000Y-52500000D01*
X225750000Y-58250000D02*
X225750000Y-60750000D01*
X220000000Y-52500000D02*
X225750000Y-58250000D01*
X224000000Y-62500000D02*
X220750000Y-62500000D01*
%TO.N,Net-(D3-A)*%
X227750000Y-65000000D02*
X227750000Y-57750000D01*
X226000000Y-66750000D02*
X227750000Y-65000000D01*
X150160000Y-50500000D02*
X136000000Y-64660000D01*
X227750000Y-57750000D02*
X220500000Y-50500000D01*
X220500000Y-50500000D02*
X150160000Y-50500000D01*
X220750000Y-66750000D02*
X226000000Y-66750000D01*
X136000000Y-64660000D02*
X136000000Y-65500000D01*
%TO.N,Net-(D4-A)*%
X231000000Y-56500000D02*
X231000000Y-67750000D01*
X229500000Y-55000000D02*
X231000000Y-56500000D01*
X140000000Y-67250000D02*
X139750000Y-67250000D01*
X231000000Y-67750000D02*
X227750000Y-71000000D01*
X227750000Y-71000000D02*
X220750000Y-71000000D01*
X140000000Y-67250000D02*
X152250000Y-55000000D01*
X139750000Y-67250000D02*
X137250000Y-69750000D01*
X152250000Y-55000000D02*
X211500000Y-55000000D01*
X137250000Y-69750000D02*
X136000000Y-69750000D01*
%TO.N,Net-(R1-Pad1)*%
X210750000Y-63250000D02*
X215750000Y-58250000D01*
X206500000Y-76000000D02*
X210750000Y-71750000D01*
X210750000Y-71750000D02*
X210750000Y-63250000D01*
X215750000Y-58250000D02*
X219100000Y-58250000D01*
%TO.N,Net-(R2-Pad1)*%
X212750000Y-72290000D02*
X206500000Y-78540000D01*
X215000000Y-62500000D02*
X219100000Y-62500000D01*
X212750000Y-64750000D02*
X212750000Y-72290000D01*
X212750000Y-64750000D02*
X215000000Y-62500000D01*
%TO.N,Net-(R3-Pad1)*%
X214750000Y-72830000D02*
X206500000Y-81080000D01*
X214750000Y-72830000D02*
X214750000Y-68500000D01*
X216500000Y-66750000D02*
X219100000Y-66750000D01*
X214750000Y-68500000D02*
X216500000Y-66750000D01*
%TO.N,Net-(R4-Pad1)*%
X216250000Y-73870000D02*
X216250000Y-72000000D01*
X216250000Y-72000000D02*
X217250000Y-71000000D01*
X217250000Y-71000000D02*
X219100000Y-71000000D01*
X206500000Y-83620000D02*
X216250000Y-73870000D01*
%TO.N,Net-(U1-IN-)*%
X143750000Y-133250000D02*
X193380000Y-83620000D01*
X199770000Y-81080000D02*
X199770000Y-78540000D01*
X137000000Y-133270000D02*
X140230000Y-133270000D01*
X199770000Y-83620000D02*
X199770000Y-81080000D01*
X199770000Y-78540000D02*
X199770000Y-76000000D01*
X140230000Y-133270000D02*
X140250000Y-133250000D01*
X193380000Y-83620000D02*
X199770000Y-83620000D01*
%TD*%
%TA.AperFunction,Conductor*%
%TO.N,GND*%
G36*
X79902540Y-68170185D02*
G01*
X79948295Y-68222989D01*
X79959501Y-68274500D01*
X79959501Y-68397876D01*
X79965908Y-68457483D01*
X80016202Y-68592328D01*
X80016206Y-68592335D01*
X80102452Y-68707544D01*
X80102455Y-68707547D01*
X80217664Y-68793793D01*
X80217671Y-68793797D01*
X80262618Y-68810561D01*
X80352517Y-68844091D01*
X80389441Y-68848060D01*
X80453989Y-68874796D01*
X80493838Y-68932188D01*
X80496333Y-69002013D01*
X80460681Y-69062102D01*
X80449071Y-69071666D01*
X80412784Y-69098030D01*
X80268028Y-69242786D01*
X80147715Y-69408386D01*
X80054781Y-69590776D01*
X79991522Y-69785465D01*
X79959500Y-69987648D01*
X79959500Y-70192351D01*
X79991522Y-70394534D01*
X80054781Y-70589223D01*
X80147715Y-70771613D01*
X80268028Y-70937213D01*
X80412786Y-71081971D01*
X80567749Y-71194556D01*
X80578390Y-71202287D01*
X80669840Y-71248883D01*
X80671080Y-71249515D01*
X80721876Y-71297490D01*
X80738671Y-71365311D01*
X80716134Y-71431446D01*
X80671080Y-71470485D01*
X80578386Y-71517715D01*
X80412786Y-71638028D01*
X80268028Y-71782786D01*
X80147715Y-71948386D01*
X80054781Y-72130776D01*
X79991522Y-72325465D01*
X79959500Y-72527648D01*
X79959500Y-72732351D01*
X79991522Y-72934534D01*
X80054781Y-73129223D01*
X80118691Y-73254653D01*
X80147158Y-73310521D01*
X80147715Y-73311613D01*
X80268028Y-73477213D01*
X80412786Y-73621971D01*
X80567749Y-73734556D01*
X80578390Y-73742287D01*
X80669840Y-73788883D01*
X80671080Y-73789515D01*
X80721876Y-73837490D01*
X80738671Y-73905311D01*
X80716134Y-73971446D01*
X80671080Y-74010485D01*
X80578386Y-74057715D01*
X80412786Y-74178028D01*
X80268028Y-74322786D01*
X80147715Y-74488386D01*
X80054781Y-74670776D01*
X79991522Y-74865465D01*
X79959500Y-75067648D01*
X79959500Y-75272351D01*
X79991522Y-75474534D01*
X80054781Y-75669223D01*
X80147715Y-75851613D01*
X80268028Y-76017213D01*
X80412786Y-76161971D01*
X80567749Y-76274556D01*
X80578390Y-76282287D01*
X80669840Y-76328883D01*
X80671080Y-76329515D01*
X80721876Y-76377490D01*
X80738671Y-76445311D01*
X80716134Y-76511446D01*
X80671080Y-76550485D01*
X80578386Y-76597715D01*
X80412786Y-76718028D01*
X80268028Y-76862786D01*
X80147715Y-77028385D01*
X80140883Y-77041795D01*
X80092909Y-77092591D01*
X80030398Y-77109500D01*
X73960940Y-77109500D01*
X73920019Y-77120464D01*
X73920019Y-77120465D01*
X73882751Y-77130451D01*
X73808214Y-77150423D01*
X73808209Y-77150426D01*
X73671290Y-77229475D01*
X73671282Y-77229481D01*
X69769481Y-81131282D01*
X69769479Y-81131285D01*
X69722851Y-81212049D01*
X69722850Y-81212050D01*
X69690423Y-81268214D01*
X69690423Y-81268215D01*
X69649499Y-81420943D01*
X69649499Y-81420945D01*
X69649499Y-81589046D01*
X69649500Y-81589059D01*
X69649500Y-127413330D01*
X69649499Y-127413348D01*
X69649499Y-127579054D01*
X69649498Y-127579054D01*
X69690423Y-127731785D01*
X69719358Y-127781900D01*
X69719359Y-127781904D01*
X69719360Y-127781904D01*
X69769479Y-127868714D01*
X69769481Y-127868717D01*
X69888349Y-127987585D01*
X69888355Y-127987590D01*
X76809478Y-134908713D01*
X76809480Y-134908716D01*
X76898584Y-134997820D01*
X76932068Y-135059141D01*
X76932067Y-135059142D01*
X76932068Y-135059143D01*
X76927084Y-135128834D01*
X76903894Y-135159812D01*
X76893888Y-135173179D01*
X76885212Y-135184768D01*
X76855315Y-135195918D01*
X76819749Y-135209184D01*
X76810902Y-135209500D01*
X75610097Y-135209500D01*
X75543058Y-135189815D01*
X75522416Y-135173181D01*
X69386819Y-129037584D01*
X69353334Y-128976261D01*
X69350500Y-128949903D01*
X69350500Y-72800097D01*
X69370185Y-72733058D01*
X69386819Y-72712416D01*
X73912416Y-68186819D01*
X73973739Y-68153334D01*
X74000097Y-68150500D01*
X79835501Y-68150500D01*
X79902540Y-68170185D01*
G37*
%TD.AperFunction*%
%TA.AperFunction,Conductor*%
G36*
X142068834Y-133672916D02*
G01*
X142124767Y-133714788D01*
X142149184Y-133780252D01*
X142149500Y-133789098D01*
X142149500Y-134449903D01*
X142129815Y-134516942D01*
X142113181Y-134537584D01*
X141477584Y-135173181D01*
X141416261Y-135206666D01*
X141389903Y-135209500D01*
X140729099Y-135209500D01*
X140707855Y-135203262D01*
X140685768Y-135201683D01*
X140674982Y-135193609D01*
X140662060Y-135189815D01*
X140647561Y-135173083D01*
X140629833Y-135159812D01*
X140625124Y-135147189D01*
X140616305Y-135137011D01*
X140613154Y-135115096D01*
X140605415Y-135094349D01*
X140608278Y-135081186D01*
X140606361Y-135067853D01*
X140615559Y-135047710D01*
X140620266Y-135026075D01*
X140633536Y-135008346D01*
X140635386Y-135004297D01*
X140641416Y-134997821D01*
X140641417Y-134997819D01*
X140657453Y-134981783D01*
X140730520Y-134908716D01*
X140730521Y-134908713D01*
X141858506Y-133780728D01*
X141858511Y-133780724D01*
X141868714Y-133770520D01*
X141868716Y-133770520D01*
X141937819Y-133701417D01*
X141999142Y-133667932D01*
X142068834Y-133672916D01*
G37*
%TD.AperFunction*%
%TA.AperFunction,Conductor*%
G36*
X220266942Y-51120185D02*
G01*
X220287584Y-51136819D01*
X227113181Y-57962416D01*
X227146666Y-58023739D01*
X227149500Y-58050097D01*
X227149500Y-64699902D01*
X227129815Y-64766941D01*
X227113181Y-64787583D01*
X225787584Y-66113181D01*
X225726261Y-66146666D01*
X225699903Y-66149500D01*
X221641715Y-66149500D01*
X221574676Y-66129815D01*
X221535598Y-66089650D01*
X221505472Y-66039815D01*
X221505470Y-66039813D01*
X221505469Y-66039811D01*
X221385188Y-65919530D01*
X221239606Y-65831522D01*
X221077196Y-65780914D01*
X221077194Y-65780913D01*
X221077192Y-65780913D01*
X221027778Y-65776423D01*
X221006616Y-65774500D01*
X220493384Y-65774500D01*
X220474145Y-65776248D01*
X220422807Y-65780913D01*
X220260393Y-65831522D01*
X220114811Y-65919530D01*
X220114810Y-65919531D01*
X220012681Y-66021661D01*
X219951358Y-66055146D01*
X219881666Y-66050162D01*
X219837319Y-66021661D01*
X219735188Y-65919530D01*
X219589606Y-65831522D01*
X219427196Y-65780914D01*
X219427194Y-65780913D01*
X219427192Y-65780913D01*
X219377778Y-65776423D01*
X219356616Y-65774500D01*
X218843384Y-65774500D01*
X218824145Y-65776248D01*
X218772807Y-65780913D01*
X218610393Y-65831522D01*
X218464811Y-65919530D01*
X218344530Y-66039811D01*
X218314402Y-66089650D01*
X218262874Y-66136838D01*
X218208285Y-66149500D01*
X216586670Y-66149500D01*
X216586654Y-66149499D01*
X216579058Y-66149499D01*
X216420943Y-66149499D01*
X216344579Y-66169961D01*
X216268214Y-66190423D01*
X216268209Y-66190426D01*
X216131290Y-66269475D01*
X216131282Y-66269481D01*
X214269481Y-68131282D01*
X214269479Y-68131285D01*
X214219361Y-68218094D01*
X214219359Y-68218096D01*
X214190425Y-68268209D01*
X214190424Y-68268210D01*
X214190423Y-68268215D01*
X214149499Y-68420943D01*
X214149499Y-68420945D01*
X214149499Y-68589046D01*
X214149500Y-68589059D01*
X214149500Y-72529902D01*
X214129815Y-72596941D01*
X214113181Y-72617583D01*
X208292180Y-78438584D01*
X208230857Y-78472069D01*
X208161165Y-78467085D01*
X208105232Y-78425213D01*
X208080815Y-78359749D01*
X208080499Y-78350903D01*
X208080499Y-78179998D01*
X208080498Y-78179981D01*
X208069999Y-78077203D01*
X208069998Y-78077200D01*
X208029849Y-77956041D01*
X208027448Y-77886215D01*
X208059873Y-77829360D01*
X213230520Y-72658716D01*
X213309577Y-72521784D01*
X213350501Y-72369057D01*
X213350501Y-72210942D01*
X213350501Y-72203347D01*
X213350500Y-72203329D01*
X213350500Y-65050097D01*
X213370185Y-64983058D01*
X213386819Y-64962416D01*
X215212417Y-63136819D01*
X215273740Y-63103334D01*
X215300098Y-63100500D01*
X218208285Y-63100500D01*
X218275324Y-63120185D01*
X218314401Y-63160349D01*
X218320807Y-63170945D01*
X218344530Y-63210188D01*
X218464811Y-63330469D01*
X218464813Y-63330470D01*
X218464815Y-63330472D01*
X218610394Y-63418478D01*
X218772804Y-63469086D01*
X218843384Y-63475500D01*
X218843387Y-63475500D01*
X219356613Y-63475500D01*
X219356616Y-63475500D01*
X219427196Y-63469086D01*
X219589606Y-63418478D01*
X219735185Y-63330472D01*
X219736600Y-63329057D01*
X219837319Y-63228339D01*
X219898642Y-63194854D01*
X219968334Y-63199838D01*
X220012681Y-63228339D01*
X220114811Y-63330469D01*
X220114813Y-63330470D01*
X220114815Y-63330472D01*
X220260394Y-63418478D01*
X220422804Y-63469086D01*
X220493384Y-63475500D01*
X220493387Y-63475500D01*
X221006613Y-63475500D01*
X221006616Y-63475500D01*
X221077196Y-63469086D01*
X221239606Y-63418478D01*
X221385185Y-63330472D01*
X221505472Y-63210185D01*
X221535598Y-63160349D01*
X221587126Y-63113162D01*
X221641715Y-63100500D01*
X223913331Y-63100500D01*
X223913347Y-63100501D01*
X223920943Y-63100501D01*
X224079054Y-63100501D01*
X224079057Y-63100501D01*
X224231785Y-63059577D01*
X224303424Y-63018216D01*
X224368716Y-62980520D01*
X224480520Y-62868716D01*
X224480520Y-62868714D01*
X224490724Y-62858511D01*
X224490727Y-62858506D01*
X226230520Y-61118716D01*
X226309577Y-60981784D01*
X226350501Y-60829057D01*
X226350501Y-60670942D01*
X226350501Y-60663347D01*
X226350500Y-60663329D01*
X226350500Y-58339059D01*
X226350501Y-58339046D01*
X226350501Y-58170945D01*
X226350501Y-58170943D01*
X226309577Y-58018215D01*
X226251939Y-57918384D01*
X226230520Y-57881284D01*
X226118716Y-57769480D01*
X226118713Y-57769478D01*
X220487590Y-52138355D01*
X220487588Y-52138352D01*
X220368717Y-52019481D01*
X220368716Y-52019480D01*
X220281904Y-51969360D01*
X220281904Y-51969359D01*
X220281900Y-51969358D01*
X220231785Y-51940423D01*
X220079057Y-51899499D01*
X219920943Y-51899499D01*
X219913347Y-51899499D01*
X219913331Y-51899500D01*
X151336669Y-51899500D01*
X151336653Y-51899499D01*
X151329057Y-51899499D01*
X151170943Y-51899499D01*
X151063587Y-51928265D01*
X151018210Y-51940424D01*
X151018209Y-51940425D01*
X150968096Y-51969359D01*
X150968095Y-51969360D01*
X150924689Y-51994420D01*
X150881285Y-52019479D01*
X150881282Y-52019481D01*
X142985339Y-59915425D01*
X142924016Y-59948910D01*
X142921850Y-59949361D01*
X142766508Y-59980261D01*
X142766498Y-59980264D01*
X142620827Y-60040602D01*
X142620814Y-60040609D01*
X142489711Y-60128210D01*
X142489707Y-60128213D01*
X142378213Y-60239707D01*
X142378210Y-60239711D01*
X142290609Y-60370814D01*
X142290602Y-60370827D01*
X142230264Y-60516498D01*
X142230261Y-60516510D01*
X142199500Y-60671153D01*
X142199500Y-60828846D01*
X142230261Y-60983489D01*
X142230264Y-60983501D01*
X142290602Y-61129172D01*
X142290609Y-61129185D01*
X142378210Y-61260288D01*
X142378213Y-61260292D01*
X142489707Y-61371786D01*
X142489711Y-61371789D01*
X142620814Y-61459390D01*
X142620827Y-61459397D01*
X142766498Y-61519735D01*
X142766503Y-61519737D01*
X142921153Y-61550499D01*
X142921156Y-61550500D01*
X142921158Y-61550500D01*
X143078844Y-61550500D01*
X143078845Y-61550499D01*
X143233497Y-61519737D01*
X143379179Y-61459394D01*
X143510289Y-61371789D01*
X143621789Y-61260289D01*
X143709394Y-61129179D01*
X143713728Y-61118717D01*
X143769735Y-60983501D01*
X143769737Y-60983497D01*
X143789113Y-60886085D01*
X143800638Y-60828150D01*
X143833023Y-60766239D01*
X143834518Y-60764716D01*
X151462416Y-53136819D01*
X151523739Y-53103334D01*
X151550097Y-53100500D01*
X219699903Y-53100500D01*
X219766942Y-53120185D01*
X219787584Y-53136819D01*
X222338583Y-55687818D01*
X222349193Y-55707250D01*
X222363696Y-55723986D01*
X222365613Y-55737319D01*
X222372068Y-55749141D01*
X222370488Y-55771226D01*
X222373640Y-55793145D01*
X222368044Y-55805397D01*
X222367084Y-55818833D01*
X222353814Y-55836558D01*
X222344616Y-55856701D01*
X222333283Y-55863984D01*
X222325212Y-55874766D01*
X222304467Y-55882503D01*
X222285838Y-55894476D01*
X222263918Y-55897627D01*
X222259748Y-55899183D01*
X222250903Y-55899499D01*
X222170943Y-55899499D01*
X222170939Y-55899499D01*
X222163332Y-55899500D01*
X222163331Y-55899499D01*
X222163331Y-55899500D01*
X212003439Y-55899500D01*
X211936400Y-55879815D01*
X211890645Y-55827011D01*
X211880701Y-55757853D01*
X211909726Y-55694297D01*
X211934548Y-55672398D01*
X211987795Y-55636819D01*
X212010289Y-55621789D01*
X212121789Y-55510289D01*
X212209394Y-55379179D01*
X212269737Y-55233497D01*
X212300500Y-55078842D01*
X212300500Y-54921158D01*
X212300500Y-54921155D01*
X212300499Y-54921153D01*
X212269738Y-54766510D01*
X212269737Y-54766503D01*
X212213728Y-54631284D01*
X212209397Y-54620827D01*
X212209390Y-54620814D01*
X212121789Y-54489711D01*
X212121786Y-54489707D01*
X212010292Y-54378213D01*
X212010288Y-54378210D01*
X211879185Y-54290609D01*
X211879172Y-54290602D01*
X211733501Y-54230264D01*
X211733489Y-54230261D01*
X211578845Y-54199500D01*
X211578842Y-54199500D01*
X211421158Y-54199500D01*
X211421155Y-54199500D01*
X211266510Y-54230261D01*
X211266498Y-54230264D01*
X211120827Y-54290602D01*
X211120814Y-54290609D01*
X210989125Y-54378602D01*
X210922447Y-54399480D01*
X210920234Y-54399500D01*
X152329057Y-54399500D01*
X152170943Y-54399500D01*
X152018215Y-54440423D01*
X152018214Y-54440423D01*
X152018212Y-54440424D01*
X152018209Y-54440425D01*
X151968096Y-54469359D01*
X151968095Y-54469360D01*
X151932853Y-54489707D01*
X151881285Y-54519479D01*
X151881282Y-54519481D01*
X151779950Y-54620814D01*
X151769480Y-54631284D01*
X151769478Y-54631286D01*
X145770950Y-60629815D01*
X139787585Y-66613180D01*
X139726262Y-66646665D01*
X139699904Y-66649499D01*
X139670943Y-66649499D01*
X139556397Y-66680192D01*
X139518214Y-66690423D01*
X139497944Y-66702127D01*
X139497941Y-66702128D01*
X139381290Y-66769475D01*
X139381282Y-66769481D01*
X139269478Y-66881286D01*
X137037584Y-69113181D01*
X137010656Y-69127884D01*
X136984838Y-69144477D01*
X136978637Y-69145368D01*
X136976261Y-69146666D01*
X136949903Y-69149500D01*
X136920685Y-69149500D01*
X136853646Y-69129815D01*
X136815148Y-69090599D01*
X136786781Y-69044609D01*
X136667891Y-68925719D01*
X136667887Y-68925716D01*
X136524795Y-68837455D01*
X136524789Y-68837452D01*
X136524787Y-68837451D01*
X136365185Y-68784564D01*
X136365183Y-68784563D01*
X136266681Y-68774500D01*
X136266674Y-68774500D01*
X135733326Y-68774500D01*
X135733318Y-68774500D01*
X135634816Y-68784563D01*
X135634815Y-68784564D01*
X135606964Y-68793793D01*
X135475215Y-68837450D01*
X135475204Y-68837455D01*
X135332112Y-68925716D01*
X135332107Y-68925719D01*
X135300180Y-68957647D01*
X135295955Y-68959953D01*
X135293337Y-68963994D01*
X135265580Y-68976539D01*
X135238856Y-68991132D01*
X135234055Y-68990788D01*
X135229669Y-68992771D01*
X135199539Y-68988319D01*
X135169165Y-68986146D01*
X135164000Y-68983067D01*
X135160549Y-68982558D01*
X135145273Y-68971907D01*
X135130933Y-68963361D01*
X135127774Y-68960602D01*
X135092891Y-68925719D01*
X135075668Y-68915095D01*
X135067933Y-68908340D01*
X135054453Y-68887184D01*
X135037677Y-68868532D01*
X135034965Y-68856599D01*
X135030388Y-68849415D01*
X135030437Y-68836673D01*
X135025500Y-68814944D01*
X135025500Y-66435055D01*
X135045185Y-66368016D01*
X135084403Y-66329517D01*
X135089074Y-66326635D01*
X135092891Y-66324281D01*
X135124819Y-66292353D01*
X135186142Y-66258868D01*
X135255834Y-66263852D01*
X135300181Y-66292353D01*
X135332108Y-66324280D01*
X135332112Y-66324283D01*
X135475204Y-66412544D01*
X135475207Y-66412545D01*
X135475213Y-66412549D01*
X135634815Y-66465436D01*
X135733326Y-66475500D01*
X135733331Y-66475500D01*
X136266669Y-66475500D01*
X136266674Y-66475500D01*
X136365185Y-66465436D01*
X136524787Y-66412549D01*
X136667891Y-66324281D01*
X136786781Y-66205391D01*
X136875049Y-66062287D01*
X136927936Y-65902685D01*
X136938000Y-65804174D01*
X136938000Y-65195826D01*
X136927936Y-65097315D01*
X136875049Y-64937713D01*
X136810725Y-64833428D01*
X136792285Y-64766035D01*
X136813208Y-64699372D01*
X136828578Y-64680655D01*
X150372416Y-51136819D01*
X150433739Y-51103334D01*
X150460097Y-51100500D01*
X220199903Y-51100500D01*
X220266942Y-51120185D01*
G37*
%TD.AperFunction*%
%TA.AperFunction,Conductor*%
G36*
X224805704Y-58155385D02*
G01*
X224812182Y-58161417D01*
X225113181Y-58462416D01*
X225146666Y-58523739D01*
X225149500Y-58550097D01*
X225149500Y-60449902D01*
X225129815Y-60516941D01*
X225113181Y-60537583D01*
X223787584Y-61863181D01*
X223726261Y-61896666D01*
X223699903Y-61899500D01*
X221641715Y-61899500D01*
X221574676Y-61879815D01*
X221535598Y-61839650D01*
X221505472Y-61789815D01*
X221505470Y-61789813D01*
X221505469Y-61789811D01*
X221385188Y-61669530D01*
X221239606Y-61581522D01*
X221077196Y-61530914D01*
X221077194Y-61530913D01*
X221077192Y-61530913D01*
X221027778Y-61526423D01*
X221006616Y-61524500D01*
X220493384Y-61524500D01*
X220474145Y-61526248D01*
X220422807Y-61530913D01*
X220260393Y-61581522D01*
X220114811Y-61669530D01*
X220114810Y-61669531D01*
X220012681Y-61771661D01*
X219951358Y-61805146D01*
X219881666Y-61800162D01*
X219837319Y-61771661D01*
X219735188Y-61669530D01*
X219589606Y-61581522D01*
X219427196Y-61530914D01*
X219427194Y-61530913D01*
X219427192Y-61530913D01*
X219377778Y-61526423D01*
X219356616Y-61524500D01*
X218843384Y-61524500D01*
X218824145Y-61526248D01*
X218772807Y-61530913D01*
X218610393Y-61581522D01*
X218464811Y-61669530D01*
X218344530Y-61789811D01*
X218314402Y-61839650D01*
X218262874Y-61886838D01*
X218208285Y-61899500D01*
X215086670Y-61899500D01*
X215086654Y-61899499D01*
X215079058Y-61899499D01*
X214920943Y-61899499D01*
X214844579Y-61919961D01*
X214768214Y-61940423D01*
X214768209Y-61940426D01*
X214631290Y-62019475D01*
X214631282Y-62019481D01*
X212269481Y-64381282D01*
X212269479Y-64381285D01*
X212219361Y-64468094D01*
X212219359Y-64468096D01*
X212190425Y-64518209D01*
X212190424Y-64518210D01*
X212190423Y-64518215D01*
X212149499Y-64670943D01*
X212149499Y-64670945D01*
X212149499Y-64839046D01*
X212149500Y-64839059D01*
X212149500Y-71989902D01*
X212129815Y-72056941D01*
X212113181Y-72077583D01*
X208292180Y-75898584D01*
X208230857Y-75932069D01*
X208161165Y-75927085D01*
X208105232Y-75885213D01*
X208080815Y-75819749D01*
X208080499Y-75810903D01*
X208080499Y-75639998D01*
X208080498Y-75639981D01*
X208069999Y-75537203D01*
X208067115Y-75528501D01*
X208029849Y-75416041D01*
X208027448Y-75346215D01*
X208059873Y-75289360D01*
X211230520Y-72118716D01*
X211309577Y-71981784D01*
X211350501Y-71829057D01*
X211350501Y-71670942D01*
X211350501Y-71663347D01*
X211350500Y-71663329D01*
X211350500Y-63550097D01*
X211370185Y-63483058D01*
X211386819Y-63462416D01*
X215962416Y-58886819D01*
X216023739Y-58853334D01*
X216050097Y-58850500D01*
X218208285Y-58850500D01*
X218275324Y-58870185D01*
X218314402Y-58910350D01*
X218344530Y-58960188D01*
X218464811Y-59080469D01*
X218464813Y-59080470D01*
X218464815Y-59080472D01*
X218610394Y-59168478D01*
X218772804Y-59219086D01*
X218843384Y-59225500D01*
X218843387Y-59225500D01*
X219356613Y-59225500D01*
X219356616Y-59225500D01*
X219427196Y-59219086D01*
X219589606Y-59168478D01*
X219735185Y-59080472D01*
X219735189Y-59080468D01*
X219837319Y-58978339D01*
X219898642Y-58944854D01*
X219968334Y-58949838D01*
X220012681Y-58978339D01*
X220114811Y-59080469D01*
X220114813Y-59080470D01*
X220114815Y-59080472D01*
X220260394Y-59168478D01*
X220422804Y-59219086D01*
X220493384Y-59225500D01*
X220493387Y-59225500D01*
X221006613Y-59225500D01*
X221006616Y-59225500D01*
X221077196Y-59219086D01*
X221239606Y-59168478D01*
X221385185Y-59080472D01*
X221505472Y-58960185D01*
X221535598Y-58910349D01*
X221587126Y-58863162D01*
X221641715Y-58850500D01*
X223913331Y-58850500D01*
X223913347Y-58850501D01*
X223920943Y-58850501D01*
X224079056Y-58850501D01*
X224079058Y-58850501D01*
X224231785Y-58809577D01*
X224368716Y-58730520D01*
X224480520Y-58618716D01*
X224559577Y-58481785D01*
X224600501Y-58329058D01*
X224600501Y-58249098D01*
X224620186Y-58182059D01*
X224672990Y-58136304D01*
X224742148Y-58126360D01*
X224805704Y-58155385D01*
G37*
%TD.AperFunction*%
%TA.AperFunction,Conductor*%
G36*
X137727942Y-61870185D02*
G01*
X137773697Y-61922989D01*
X137783641Y-61992147D01*
X137754616Y-62055703D01*
X137748585Y-62062179D01*
X136673945Y-63136819D01*
X135631286Y-64179478D01*
X135519481Y-64291282D01*
X135519479Y-64291285D01*
X135469361Y-64378094D01*
X135469359Y-64378096D01*
X135440425Y-64428209D01*
X135440424Y-64428210D01*
X135440423Y-64428215D01*
X135399499Y-64580943D01*
X135399499Y-64580945D01*
X135397396Y-64588794D01*
X135396032Y-64588428D01*
X135371288Y-64644344D01*
X135357953Y-64657855D01*
X135350322Y-64664484D01*
X135332109Y-64675719D01*
X135297112Y-64710715D01*
X135293827Y-64713570D01*
X135265859Y-64726386D01*
X135238856Y-64741132D01*
X135234383Y-64740812D01*
X135230310Y-64742679D01*
X135199854Y-64738341D01*
X135169165Y-64736146D01*
X135164817Y-64733351D01*
X135161139Y-64732828D01*
X135152831Y-64725649D01*
X135124819Y-64707646D01*
X135092892Y-64675719D01*
X135092888Y-64675716D01*
X135084401Y-64670481D01*
X135037677Y-64618532D01*
X135025500Y-64564944D01*
X135025500Y-62185055D01*
X135045185Y-62118016D01*
X135067933Y-62091659D01*
X135075665Y-62084905D01*
X135092891Y-62074281D01*
X135127782Y-62039389D01*
X135130933Y-62036638D01*
X135159008Y-62023683D01*
X135186142Y-62008868D01*
X135190451Y-62009176D01*
X135194375Y-62007366D01*
X135224991Y-62011646D01*
X135255834Y-62013852D01*
X135260022Y-62016543D01*
X135263572Y-62017040D01*
X135271796Y-62024110D01*
X135300181Y-62042353D01*
X135332108Y-62074280D01*
X135332112Y-62074283D01*
X135475204Y-62162544D01*
X135475207Y-62162545D01*
X135475213Y-62162549D01*
X135634815Y-62215436D01*
X135733326Y-62225500D01*
X135733331Y-62225500D01*
X136266669Y-62225500D01*
X136266674Y-62225500D01*
X136365185Y-62215436D01*
X136524787Y-62162549D01*
X136667891Y-62074281D01*
X136786781Y-61955391D01*
X136815148Y-61909401D01*
X136867094Y-61862679D01*
X136920685Y-61850500D01*
X137660903Y-61850500D01*
X137727942Y-61870185D01*
G37*
%TD.AperFunction*%
%TA.AperFunction,Conductor*%
G36*
X141972638Y-57582406D02*
G01*
X142030501Y-57621567D01*
X142058006Y-57685796D01*
X142046420Y-57754698D01*
X142022564Y-57788199D01*
X139684102Y-60126661D01*
X139622779Y-60160146D01*
X139553087Y-60155162D01*
X139515747Y-60131164D01*
X139514999Y-60132076D01*
X139510288Y-60128210D01*
X139379185Y-60040609D01*
X139379172Y-60040602D01*
X139233501Y-59980264D01*
X139233489Y-59980261D01*
X139078845Y-59949500D01*
X139078842Y-59949500D01*
X138921158Y-59949500D01*
X138921155Y-59949500D01*
X138766510Y-59980261D01*
X138766498Y-59980264D01*
X138620827Y-60040602D01*
X138620814Y-60040609D01*
X138489711Y-60128210D01*
X138489707Y-60128213D01*
X138378213Y-60239707D01*
X138378210Y-60239711D01*
X138290609Y-60370814D01*
X138290602Y-60370827D01*
X138230264Y-60516498D01*
X138230261Y-60516510D01*
X138223661Y-60549691D01*
X138191276Y-60611602D01*
X138130561Y-60646176D01*
X138102044Y-60649500D01*
X136920685Y-60649500D01*
X136853646Y-60629815D01*
X136815148Y-60590599D01*
X136786781Y-60544609D01*
X136667891Y-60425719D01*
X136667887Y-60425716D01*
X136524795Y-60337455D01*
X136524789Y-60337452D01*
X136524787Y-60337451D01*
X136365185Y-60284564D01*
X136365183Y-60284563D01*
X136266681Y-60274500D01*
X136266674Y-60274500D01*
X135733326Y-60274500D01*
X135733318Y-60274500D01*
X135634816Y-60284563D01*
X135634815Y-60284564D01*
X135555719Y-60310773D01*
X135475215Y-60337450D01*
X135475204Y-60337455D01*
X135332112Y-60425716D01*
X135332107Y-60425719D01*
X135300180Y-60457647D01*
X135295955Y-60459953D01*
X135293337Y-60463994D01*
X135265580Y-60476539D01*
X135238856Y-60491132D01*
X135234055Y-60490788D01*
X135229669Y-60492771D01*
X135199539Y-60488319D01*
X135169165Y-60486146D01*
X135164000Y-60483067D01*
X135160549Y-60482558D01*
X135145273Y-60471907D01*
X135130933Y-60463361D01*
X135127774Y-60460602D01*
X135092891Y-60425719D01*
X135075668Y-60415095D01*
X135067933Y-60408340D01*
X135054453Y-60387184D01*
X135037677Y-60368532D01*
X135034965Y-60356599D01*
X135030388Y-60349415D01*
X135030437Y-60336673D01*
X135025500Y-60314944D01*
X135025500Y-57935055D01*
X135045185Y-57868016D01*
X135084403Y-57829517D01*
X135089074Y-57826635D01*
X135092891Y-57824281D01*
X135124819Y-57792353D01*
X135186142Y-57758868D01*
X135255834Y-57763852D01*
X135300181Y-57792353D01*
X135332108Y-57824280D01*
X135332112Y-57824283D01*
X135475204Y-57912544D01*
X135475207Y-57912545D01*
X135475213Y-57912549D01*
X135634815Y-57965436D01*
X135733326Y-57975500D01*
X135733331Y-57975500D01*
X136266669Y-57975500D01*
X136266674Y-57975500D01*
X136365185Y-57965436D01*
X136524787Y-57912549D01*
X136667891Y-57824281D01*
X136786781Y-57705391D01*
X136815148Y-57659401D01*
X136867094Y-57612679D01*
X136920685Y-57600500D01*
X141663331Y-57600500D01*
X141663347Y-57600501D01*
X141670943Y-57600501D01*
X141829055Y-57600501D01*
X141829057Y-57600501D01*
X141902789Y-57580744D01*
X141972638Y-57582406D01*
G37*
%TD.AperFunction*%
%TA.AperFunction,Conductor*%
G36*
X222016942Y-57120185D02*
G01*
X222037584Y-57136819D01*
X222338584Y-57437819D01*
X222372069Y-57499142D01*
X222367085Y-57568834D01*
X222325213Y-57624767D01*
X222259749Y-57649184D01*
X222250903Y-57649500D01*
X221641715Y-57649500D01*
X221574676Y-57629815D01*
X221535598Y-57589650D01*
X221530214Y-57580744D01*
X221505472Y-57539815D01*
X221505470Y-57539813D01*
X221505469Y-57539811D01*
X221385188Y-57419530D01*
X221357320Y-57402683D01*
X221239606Y-57331522D01*
X221239604Y-57331521D01*
X221238108Y-57330617D01*
X221190920Y-57279089D01*
X221179082Y-57210229D01*
X221206351Y-57145901D01*
X221264070Y-57106527D01*
X221302258Y-57100500D01*
X221949903Y-57100500D01*
X222016942Y-57120185D01*
G37*
%TD.AperFunction*%
%TA.AperFunction,Conductor*%
G36*
X220264781Y-57120185D02*
G01*
X220310536Y-57172989D01*
X220320480Y-57242147D01*
X220291455Y-57305703D01*
X220261892Y-57330617D01*
X220260395Y-57331521D01*
X220260394Y-57331522D01*
X220198871Y-57368714D01*
X220114811Y-57419530D01*
X220114810Y-57419531D01*
X220012681Y-57521661D01*
X219951358Y-57555146D01*
X219881666Y-57550162D01*
X219837319Y-57521661D01*
X219735188Y-57419530D01*
X219707320Y-57402683D01*
X219589606Y-57331522D01*
X219589604Y-57331521D01*
X219588108Y-57330617D01*
X219540920Y-57279089D01*
X219529082Y-57210229D01*
X219556351Y-57145901D01*
X219614070Y-57106527D01*
X219652258Y-57100500D01*
X220197742Y-57100500D01*
X220264781Y-57120185D01*
G37*
%TD.AperFunction*%
%TA.AperFunction,Conductor*%
G36*
X210987273Y-55620185D02*
G01*
X210989125Y-55621398D01*
X211065452Y-55672398D01*
X211110257Y-55726010D01*
X211118964Y-55795335D01*
X211088810Y-55858362D01*
X211029367Y-55895082D01*
X210996561Y-55899500D01*
X154329766Y-55899500D01*
X154311622Y-55894172D01*
X154292713Y-55893835D01*
X154264495Y-55880334D01*
X154262727Y-55879815D01*
X154260875Y-55878602D01*
X154184548Y-55827602D01*
X154139743Y-55773990D01*
X154131036Y-55704665D01*
X154161190Y-55641638D01*
X154220633Y-55604918D01*
X154253439Y-55600500D01*
X210920234Y-55600500D01*
X210987273Y-55620185D01*
G37*
%TD.AperFunction*%
%TA.AperFunction,Conductor*%
G36*
X240442539Y-43020185D02*
G01*
X240488294Y-43072989D01*
X240499500Y-43124500D01*
X240499500Y-147125500D01*
X240479815Y-147192539D01*
X240427011Y-147238294D01*
X240375500Y-147249500D01*
X59874500Y-147249500D01*
X59807461Y-147229815D01*
X59761706Y-147177011D01*
X59750500Y-147125500D01*
X59750500Y-129329054D01*
X68149498Y-129329054D01*
X68149499Y-129329057D01*
X68190423Y-129481785D01*
X68190424Y-129481787D01*
X68190423Y-129481787D01*
X68203986Y-129505277D01*
X68203987Y-129505279D01*
X68269475Y-129618709D01*
X68269481Y-129618717D01*
X68388349Y-129737585D01*
X68388355Y-129737590D01*
X74825139Y-136174374D01*
X74825149Y-136174385D01*
X74829479Y-136178715D01*
X74829480Y-136178716D01*
X74941284Y-136290520D01*
X75028095Y-136340639D01*
X75028097Y-136340641D01*
X75064853Y-136361862D01*
X75078215Y-136369577D01*
X75230943Y-136410501D01*
X75230946Y-136410501D01*
X75396653Y-136410501D01*
X75396669Y-136410500D01*
X130704192Y-136410500D01*
X130771231Y-136430185D01*
X130791874Y-136446820D01*
X130823129Y-136478076D01*
X130823133Y-136478079D01*
X130823135Y-136478081D01*
X130964602Y-136561744D01*
X131006224Y-136573836D01*
X131122426Y-136607597D01*
X131122429Y-136607597D01*
X131122431Y-136607598D01*
X131159306Y-136610500D01*
X131159314Y-136610500D01*
X132940686Y-136610500D01*
X132940694Y-136610500D01*
X132977569Y-136607598D01*
X132977571Y-136607597D01*
X132977573Y-136607597D01*
X133019191Y-136595505D01*
X133135398Y-136561744D01*
X133276865Y-136478081D01*
X133393081Y-136361865D01*
X133476744Y-136220398D01*
X133522598Y-136062569D01*
X133525500Y-136025694D01*
X133525500Y-135594306D01*
X133522598Y-135557431D01*
X133476744Y-135399602D01*
X133393081Y-135258135D01*
X133393078Y-135258132D01*
X133388298Y-135251969D01*
X133390750Y-135250066D01*
X133364155Y-135201421D01*
X133369104Y-135131726D01*
X133389940Y-135099304D01*
X133388298Y-135098031D01*
X133393075Y-135091870D01*
X133393081Y-135091865D01*
X133476744Y-134950398D01*
X133522598Y-134792569D01*
X133525500Y-134755694D01*
X133525500Y-134324306D01*
X133522598Y-134287431D01*
X133476744Y-134129602D01*
X133393081Y-133988135D01*
X133393078Y-133988132D01*
X133388298Y-133981969D01*
X133390750Y-133980066D01*
X133364155Y-133931421D01*
X133369104Y-133861726D01*
X133389940Y-133829304D01*
X133388298Y-133828031D01*
X133393075Y-133821870D01*
X133393081Y-133821865D01*
X133476744Y-133680398D01*
X133522598Y-133522569D01*
X133525500Y-133485694D01*
X133525500Y-133054306D01*
X133522598Y-133017431D01*
X133476744Y-132859602D01*
X133393081Y-132718135D01*
X133393078Y-132718132D01*
X133388298Y-132711969D01*
X133390750Y-132710066D01*
X133364155Y-132661421D01*
X133369104Y-132591726D01*
X133389940Y-132559304D01*
X133388298Y-132558031D01*
X133393075Y-132551870D01*
X133393081Y-132551865D01*
X133476744Y-132410398D01*
X133522598Y-132252569D01*
X133525500Y-132215694D01*
X133525500Y-131784306D01*
X133522598Y-131747431D01*
X133476744Y-131589602D01*
X133393081Y-131448135D01*
X133393079Y-131448133D01*
X133393076Y-131448129D01*
X133276870Y-131331923D01*
X133276862Y-131331917D01*
X133135396Y-131248255D01*
X133135393Y-131248254D01*
X132977573Y-131202402D01*
X132977567Y-131202401D01*
X132940701Y-131199500D01*
X132940694Y-131199500D01*
X131159306Y-131199500D01*
X131159298Y-131199500D01*
X131122432Y-131202401D01*
X131122426Y-131202402D01*
X130964606Y-131248254D01*
X130964603Y-131248255D01*
X130823137Y-131331917D01*
X130823129Y-131331923D01*
X130706923Y-131448129D01*
X130706917Y-131448137D01*
X130623255Y-131589603D01*
X130623254Y-131589606D01*
X130577402Y-131747426D01*
X130577401Y-131747432D01*
X130574500Y-131784298D01*
X130574500Y-132215701D01*
X130577401Y-132252567D01*
X130577402Y-132252573D01*
X130623254Y-132410393D01*
X130623255Y-132410396D01*
X130623256Y-132410398D01*
X130626229Y-132415425D01*
X130706917Y-132551862D01*
X130711702Y-132558031D01*
X130709256Y-132559927D01*
X130735857Y-132608642D01*
X130730873Y-132678334D01*
X130710069Y-132710703D01*
X130711702Y-132711969D01*
X130706917Y-132718137D01*
X130623255Y-132859603D01*
X130623254Y-132859606D01*
X130577402Y-133017426D01*
X130577401Y-133017432D01*
X130574500Y-133054298D01*
X130574500Y-133485701D01*
X130577401Y-133522567D01*
X130577402Y-133522573D01*
X130623254Y-133680393D01*
X130623257Y-133680400D01*
X130665825Y-133752380D01*
X130683008Y-133820104D01*
X130660848Y-133886366D01*
X130606381Y-133930129D01*
X130559093Y-133939500D01*
X77590097Y-133939500D01*
X77523058Y-133919815D01*
X77502416Y-133903181D01*
X70886819Y-127287584D01*
X70853334Y-127226261D01*
X70850500Y-127199903D01*
X70850500Y-81800097D01*
X70870185Y-81733058D01*
X70886819Y-81712416D01*
X74252416Y-78346819D01*
X74313739Y-78313334D01*
X74340097Y-78310500D01*
X80030398Y-78310500D01*
X80097437Y-78330185D01*
X80140883Y-78378205D01*
X80147715Y-78391614D01*
X80268028Y-78557213D01*
X80412786Y-78701971D01*
X80547848Y-78800097D01*
X80578390Y-78822287D01*
X80669840Y-78868883D01*
X80671080Y-78869515D01*
X80721876Y-78917490D01*
X80738671Y-78985311D01*
X80716134Y-79051446D01*
X80671080Y-79090485D01*
X80578386Y-79137715D01*
X80412786Y-79258028D01*
X80268028Y-79402786D01*
X80147715Y-79568386D01*
X80054781Y-79750776D01*
X79991522Y-79945465D01*
X79959500Y-80147648D01*
X79959500Y-80352351D01*
X79991522Y-80554534D01*
X80054781Y-80749223D01*
X80147715Y-80931613D01*
X80268028Y-81097213D01*
X80412786Y-81241971D01*
X80567749Y-81354556D01*
X80578390Y-81362287D01*
X80669840Y-81408883D01*
X80671080Y-81409515D01*
X80721876Y-81457490D01*
X80738671Y-81525311D01*
X80716134Y-81591446D01*
X80671080Y-81630485D01*
X80578386Y-81677715D01*
X80412786Y-81798028D01*
X80268028Y-81942786D01*
X80147715Y-82108386D01*
X80054781Y-82290776D01*
X79991522Y-82485465D01*
X79959500Y-82687648D01*
X79959500Y-82892351D01*
X79991522Y-83094534D01*
X80054781Y-83289223D01*
X80147715Y-83471613D01*
X80268028Y-83637213D01*
X80412786Y-83781971D01*
X80567749Y-83894556D01*
X80578390Y-83902287D01*
X80669840Y-83948883D01*
X80671080Y-83949515D01*
X80721876Y-83997490D01*
X80738671Y-84065311D01*
X80716134Y-84131446D01*
X80671080Y-84170485D01*
X80578386Y-84217715D01*
X80412786Y-84338028D01*
X80268028Y-84482786D01*
X80147715Y-84648386D01*
X80054781Y-84830776D01*
X79991522Y-85025465D01*
X79959500Y-85227648D01*
X79959500Y-85432351D01*
X79991522Y-85634534D01*
X80054781Y-85829223D01*
X80147715Y-86011613D01*
X80268028Y-86177213D01*
X80412786Y-86321971D01*
X80567749Y-86434556D01*
X80578390Y-86442287D01*
X80669840Y-86488883D01*
X80671080Y-86489515D01*
X80721876Y-86537490D01*
X80738671Y-86605311D01*
X80716134Y-86671446D01*
X80671080Y-86710485D01*
X80578386Y-86757715D01*
X80412786Y-86878028D01*
X80268028Y-87022786D01*
X80147715Y-87188386D01*
X80054781Y-87370776D01*
X79991522Y-87565465D01*
X79959500Y-87767648D01*
X79959500Y-87972351D01*
X79991522Y-88174534D01*
X80054781Y-88369223D01*
X80147715Y-88551613D01*
X80268028Y-88717213D01*
X80412786Y-88861971D01*
X80567749Y-88974556D01*
X80578390Y-88982287D01*
X80669840Y-89028883D01*
X80671080Y-89029515D01*
X80721876Y-89077490D01*
X80738671Y-89145311D01*
X80716134Y-89211446D01*
X80671080Y-89250485D01*
X80578386Y-89297715D01*
X80412786Y-89418028D01*
X80268028Y-89562786D01*
X80147715Y-89728386D01*
X80054781Y-89910776D01*
X79991522Y-90105465D01*
X79959500Y-90307648D01*
X79959500Y-90512351D01*
X79991522Y-90714534D01*
X80054781Y-90909223D01*
X80147715Y-91091613D01*
X80268028Y-91257213D01*
X80412786Y-91401971D01*
X80567749Y-91514556D01*
X80578390Y-91522287D01*
X80669840Y-91568883D01*
X80671080Y-91569515D01*
X80721876Y-91617490D01*
X80738671Y-91685311D01*
X80716134Y-91751446D01*
X80671080Y-91790485D01*
X80578386Y-91837715D01*
X80412786Y-91958028D01*
X80268028Y-92102786D01*
X80147715Y-92268386D01*
X80054781Y-92450776D01*
X79991522Y-92645465D01*
X79959500Y-92847648D01*
X79959500Y-93052351D01*
X79991522Y-93254534D01*
X80054781Y-93449223D01*
X80093647Y-93525500D01*
X80146798Y-93629815D01*
X80147715Y-93631613D01*
X80268028Y-93797213D01*
X80412786Y-93941971D01*
X80567749Y-94054556D01*
X80578390Y-94062287D01*
X80669840Y-94108883D01*
X80671080Y-94109515D01*
X80721876Y-94157490D01*
X80738671Y-94225311D01*
X80716134Y-94291446D01*
X80671080Y-94330485D01*
X80578386Y-94377715D01*
X80412786Y-94498028D01*
X80268028Y-94642786D01*
X80147715Y-94808386D01*
X80054781Y-94990776D01*
X79991522Y-95185465D01*
X79959500Y-95387648D01*
X79959500Y-95592351D01*
X79991522Y-95794534D01*
X80054781Y-95989223D01*
X80147715Y-96171613D01*
X80268028Y-96337213D01*
X80412786Y-96481971D01*
X80567749Y-96594556D01*
X80578390Y-96602287D01*
X80669840Y-96648883D01*
X80671080Y-96649515D01*
X80721876Y-96697490D01*
X80738671Y-96765311D01*
X80716134Y-96831446D01*
X80671080Y-96870485D01*
X80578386Y-96917715D01*
X80412786Y-97038028D01*
X80268028Y-97182786D01*
X80147715Y-97348386D01*
X80054781Y-97530776D01*
X79991522Y-97725465D01*
X79959500Y-97927648D01*
X79959500Y-98132351D01*
X79991522Y-98334534D01*
X80054781Y-98529223D01*
X80147715Y-98711613D01*
X80268028Y-98877213D01*
X80412786Y-99021971D01*
X80567749Y-99134556D01*
X80578390Y-99142287D01*
X80669840Y-99188883D01*
X80671080Y-99189515D01*
X80721876Y-99237490D01*
X80738671Y-99305311D01*
X80716134Y-99371446D01*
X80671080Y-99410485D01*
X80578386Y-99457715D01*
X80412786Y-99578028D01*
X80268028Y-99722786D01*
X80147715Y-99888386D01*
X80054781Y-100070776D01*
X79991522Y-100265465D01*
X79959500Y-100467648D01*
X79959500Y-100672351D01*
X79991522Y-100874534D01*
X80054781Y-101069223D01*
X80147715Y-101251613D01*
X80268028Y-101417213D01*
X80412786Y-101561971D01*
X80567749Y-101674556D01*
X80578390Y-101682287D01*
X80669840Y-101728883D01*
X80671080Y-101729515D01*
X80721876Y-101777490D01*
X80738671Y-101845311D01*
X80716134Y-101911446D01*
X80671080Y-101950485D01*
X80578386Y-101997715D01*
X80412786Y-102118028D01*
X80268028Y-102262786D01*
X80147715Y-102428386D01*
X80054781Y-102610776D01*
X79991522Y-102805465D01*
X79959500Y-103007648D01*
X79959500Y-103212351D01*
X79991522Y-103414534D01*
X80054781Y-103609223D01*
X80147715Y-103791613D01*
X80268028Y-103957213D01*
X80412786Y-104101971D01*
X80567749Y-104214556D01*
X80578390Y-104222287D01*
X80694607Y-104281503D01*
X80760776Y-104315218D01*
X80760778Y-104315218D01*
X80760781Y-104315220D01*
X80865137Y-104349127D01*
X80955465Y-104378477D01*
X81056557Y-104394488D01*
X81157648Y-104410500D01*
X81157649Y-104410500D01*
X81362351Y-104410500D01*
X81362352Y-104410500D01*
X81564534Y-104378477D01*
X81759219Y-104315220D01*
X81941610Y-104222287D01*
X82034590Y-104154732D01*
X82107213Y-104101971D01*
X82107215Y-104101968D01*
X82107219Y-104101966D01*
X82251966Y-103957219D01*
X82251968Y-103957215D01*
X82251971Y-103957213D01*
X82304732Y-103884590D01*
X82372287Y-103791610D01*
X82465220Y-103609219D01*
X82528477Y-103414534D01*
X82560500Y-103212352D01*
X82560500Y-103007648D01*
X82528477Y-102805466D01*
X82465220Y-102610781D01*
X82465218Y-102610778D01*
X82465218Y-102610776D01*
X82431503Y-102544607D01*
X82372287Y-102428390D01*
X82364556Y-102417749D01*
X82251971Y-102262786D01*
X82107213Y-102118028D01*
X81941614Y-101997715D01*
X81935006Y-101994348D01*
X81848917Y-101950483D01*
X81798123Y-101902511D01*
X81781328Y-101834690D01*
X81803865Y-101768555D01*
X81848917Y-101729516D01*
X81941610Y-101682287D01*
X81962770Y-101666913D01*
X82107213Y-101561971D01*
X82107215Y-101561968D01*
X82107219Y-101561966D01*
X82251966Y-101417219D01*
X82251968Y-101417215D01*
X82251971Y-101417213D01*
X82304732Y-101344590D01*
X82372287Y-101251610D01*
X82465220Y-101069219D01*
X82528477Y-100874534D01*
X82560500Y-100672352D01*
X82560500Y-100467648D01*
X82528477Y-100265466D01*
X82465220Y-100070781D01*
X82465218Y-100070778D01*
X82465218Y-100070776D01*
X82431503Y-100004607D01*
X82372287Y-99888390D01*
X82364556Y-99877749D01*
X82251971Y-99722786D01*
X82107213Y-99578028D01*
X81941614Y-99457715D01*
X81935006Y-99454348D01*
X81848917Y-99410483D01*
X81798123Y-99362511D01*
X81781328Y-99294690D01*
X81803865Y-99228555D01*
X81848917Y-99189516D01*
X81941610Y-99142287D01*
X81962770Y-99126913D01*
X82107213Y-99021971D01*
X82107215Y-99021968D01*
X82107219Y-99021966D01*
X82251966Y-98877219D01*
X82251968Y-98877215D01*
X82251971Y-98877213D01*
X82304732Y-98804590D01*
X82372287Y-98711610D01*
X82465220Y-98529219D01*
X82528477Y-98334534D01*
X82560500Y-98132352D01*
X82560500Y-97927648D01*
X82528477Y-97725466D01*
X82465220Y-97530781D01*
X82465218Y-97530778D01*
X82465218Y-97530776D01*
X82431503Y-97464607D01*
X82372287Y-97348390D01*
X82364556Y-97337749D01*
X82251971Y-97182786D01*
X82107213Y-97038028D01*
X81941614Y-96917715D01*
X81935006Y-96914348D01*
X81848917Y-96870483D01*
X81798123Y-96822511D01*
X81781328Y-96754690D01*
X81803865Y-96688555D01*
X81848917Y-96649516D01*
X81941610Y-96602287D01*
X81962770Y-96586913D01*
X82107213Y-96481971D01*
X82107215Y-96481968D01*
X82107219Y-96481966D01*
X82251966Y-96337219D01*
X82251968Y-96337215D01*
X82251971Y-96337213D01*
X82304732Y-96264590D01*
X82372287Y-96171610D01*
X82465220Y-95989219D01*
X82528477Y-95794534D01*
X82560500Y-95592352D01*
X82560500Y-95387648D01*
X82528477Y-95185466D01*
X82465220Y-94990781D01*
X82465218Y-94990778D01*
X82465218Y-94990776D01*
X82393743Y-94850500D01*
X82372287Y-94808390D01*
X82315712Y-94730520D01*
X82251971Y-94642786D01*
X82107213Y-94498028D01*
X81941614Y-94377715D01*
X81918710Y-94366045D01*
X81848917Y-94330483D01*
X81798123Y-94282511D01*
X81781328Y-94214690D01*
X81803865Y-94148555D01*
X81848917Y-94109516D01*
X81941610Y-94062287D01*
X81962770Y-94046913D01*
X82107213Y-93941971D01*
X82107215Y-93941968D01*
X82107219Y-93941966D01*
X82251966Y-93797219D01*
X82251968Y-93797215D01*
X82251971Y-93797213D01*
X82337369Y-93679671D01*
X82372287Y-93631610D01*
X82465220Y-93449219D01*
X82528477Y-93254534D01*
X82560500Y-93052352D01*
X82560500Y-92847648D01*
X82530570Y-92658680D01*
X82528477Y-92645465D01*
X82476633Y-92485908D01*
X82465220Y-92450781D01*
X82465218Y-92450778D01*
X82465218Y-92450776D01*
X82431503Y-92384607D01*
X82372287Y-92268390D01*
X82309564Y-92182058D01*
X82251971Y-92102786D01*
X82107213Y-91958028D01*
X81941614Y-91837715D01*
X81935006Y-91834348D01*
X81848917Y-91790483D01*
X81798123Y-91742511D01*
X81781328Y-91674690D01*
X81803865Y-91608555D01*
X81848917Y-91569516D01*
X81941610Y-91522287D01*
X81962770Y-91506913D01*
X82107213Y-91401971D01*
X82107215Y-91401968D01*
X82107219Y-91401966D01*
X82251966Y-91257219D01*
X82251968Y-91257215D01*
X82251971Y-91257213D01*
X82343458Y-91131290D01*
X82372287Y-91091610D01*
X82465220Y-90909219D01*
X82528477Y-90714534D01*
X82560500Y-90512352D01*
X82560500Y-90307648D01*
X82528477Y-90105466D01*
X82465220Y-89910781D01*
X82465218Y-89910778D01*
X82465218Y-89910776D01*
X82431503Y-89844607D01*
X82372287Y-89728390D01*
X82364556Y-89717749D01*
X82251971Y-89562786D01*
X82107213Y-89418028D01*
X81941614Y-89297715D01*
X81935006Y-89294348D01*
X81848917Y-89250483D01*
X81798123Y-89202511D01*
X81781328Y-89134690D01*
X81803865Y-89068555D01*
X81848917Y-89029516D01*
X81941610Y-88982287D01*
X81962770Y-88966913D01*
X82107213Y-88861971D01*
X82107215Y-88861968D01*
X82107219Y-88861966D01*
X82251966Y-88717219D01*
X82251968Y-88717215D01*
X82251971Y-88717213D01*
X82304732Y-88644590D01*
X82372287Y-88551610D01*
X82465220Y-88369219D01*
X82528477Y-88174534D01*
X82560500Y-87972352D01*
X82560500Y-87767648D01*
X82528477Y-87565466D01*
X82465220Y-87370781D01*
X82465218Y-87370778D01*
X82465218Y-87370776D01*
X82431503Y-87304607D01*
X82372287Y-87188390D01*
X82364556Y-87177749D01*
X82251971Y-87022786D01*
X82107213Y-86878028D01*
X81941614Y-86757715D01*
X81935006Y-86754348D01*
X81848917Y-86710483D01*
X81798123Y-86662511D01*
X81781328Y-86594690D01*
X81803865Y-86528555D01*
X81848917Y-86489516D01*
X81941610Y-86442287D01*
X81962770Y-86426913D01*
X82107213Y-86321971D01*
X82107215Y-86321968D01*
X82107219Y-86321966D01*
X82251966Y-86177219D01*
X82251968Y-86177215D01*
X82251971Y-86177213D01*
X82304732Y-86104590D01*
X82372287Y-86011610D01*
X82465220Y-85829219D01*
X82528477Y-85634534D01*
X82560500Y-85432352D01*
X82560500Y-85227648D01*
X82528477Y-85025466D01*
X82465220Y-84830781D01*
X82465218Y-84830778D01*
X82465218Y-84830776D01*
X82431503Y-84764607D01*
X82372287Y-84648390D01*
X82347893Y-84614814D01*
X82251971Y-84482786D01*
X82107213Y-84338028D01*
X81941614Y-84217715D01*
X81935006Y-84214348D01*
X81848917Y-84170483D01*
X81798123Y-84122511D01*
X81781328Y-84054690D01*
X81803865Y-83988555D01*
X81848917Y-83949516D01*
X81941610Y-83902287D01*
X81962770Y-83886913D01*
X82107213Y-83781971D01*
X82107215Y-83781968D01*
X82107219Y-83781966D01*
X82251966Y-83637219D01*
X82251968Y-83637215D01*
X82251971Y-83637213D01*
X82304732Y-83564590D01*
X82372287Y-83471610D01*
X82465220Y-83289219D01*
X82528477Y-83094534D01*
X82560500Y-82892352D01*
X82560500Y-82687648D01*
X82534451Y-82523181D01*
X82528477Y-82485465D01*
X82483065Y-82345702D01*
X82465220Y-82290781D01*
X82465218Y-82290778D01*
X82465218Y-82290776D01*
X82418915Y-82199902D01*
X82372287Y-82108390D01*
X82347893Y-82074814D01*
X82251971Y-81942786D01*
X82107213Y-81798028D01*
X81941614Y-81677715D01*
X81935006Y-81674348D01*
X81848917Y-81630483D01*
X81798123Y-81582511D01*
X81781328Y-81514690D01*
X81803865Y-81448555D01*
X81848917Y-81409516D01*
X81941610Y-81362287D01*
X81962770Y-81346913D01*
X82107213Y-81241971D01*
X82107215Y-81241968D01*
X82107219Y-81241966D01*
X82251966Y-81097219D01*
X82251968Y-81097215D01*
X82251971Y-81097213D01*
X82308448Y-81019478D01*
X82372287Y-80931610D01*
X82465220Y-80749219D01*
X82528477Y-80554534D01*
X82560500Y-80352352D01*
X82560500Y-80147648D01*
X82528477Y-79945466D01*
X82525562Y-79936496D01*
X82483065Y-79805702D01*
X82465220Y-79750781D01*
X82465218Y-79750778D01*
X82465218Y-79750776D01*
X82420395Y-79662808D01*
X82372287Y-79568390D01*
X82347893Y-79534814D01*
X82251971Y-79402786D01*
X82107213Y-79258028D01*
X81941614Y-79137715D01*
X81868575Y-79100500D01*
X81848917Y-79090483D01*
X81798123Y-79042511D01*
X81781328Y-78974690D01*
X81803865Y-78908555D01*
X81848917Y-78869516D01*
X81941610Y-78822287D01*
X82008431Y-78773739D01*
X82107213Y-78701971D01*
X82107215Y-78701968D01*
X82107219Y-78701966D01*
X82251966Y-78557219D01*
X82251968Y-78557215D01*
X82251971Y-78557213D01*
X82304732Y-78484590D01*
X82372287Y-78391610D01*
X82465220Y-78209219D01*
X82528477Y-78014534D01*
X82535633Y-77969358D01*
X82560500Y-77812351D01*
X82560500Y-77607648D01*
X82528477Y-77405465D01*
X82483065Y-77265702D01*
X82465220Y-77210781D01*
X82465218Y-77210778D01*
X82465218Y-77210776D01*
X82420395Y-77122808D01*
X82372287Y-77028390D01*
X82347893Y-76994814D01*
X82251971Y-76862786D01*
X82107213Y-76718028D01*
X81941614Y-76597715D01*
X81935006Y-76594348D01*
X81848917Y-76550483D01*
X81798123Y-76502511D01*
X81781328Y-76434690D01*
X81803865Y-76368555D01*
X81848917Y-76329516D01*
X81941610Y-76282287D01*
X81962770Y-76266913D01*
X82107213Y-76161971D01*
X82107215Y-76161968D01*
X82107219Y-76161966D01*
X82251966Y-76017219D01*
X82251968Y-76017215D01*
X82251971Y-76017213D01*
X82372284Y-75851614D01*
X82372285Y-75851613D01*
X82372287Y-75851610D01*
X82379117Y-75838204D01*
X82427091Y-75787409D01*
X82489602Y-75770500D01*
X91333331Y-75770500D01*
X91333347Y-75770501D01*
X91340943Y-75770501D01*
X91499054Y-75770501D01*
X91499057Y-75770501D01*
X91651785Y-75729577D01*
X91701904Y-75700639D01*
X91788716Y-75650520D01*
X91900520Y-75538716D01*
X91900520Y-75538714D01*
X91910728Y-75528507D01*
X91910730Y-75528504D01*
X94987819Y-72451415D01*
X95049142Y-72417930D01*
X95118834Y-72422914D01*
X95174767Y-72464786D01*
X95199184Y-72530250D01*
X95199500Y-72539096D01*
X95199500Y-72732351D01*
X95231522Y-72934534D01*
X95294781Y-73129223D01*
X95358691Y-73254653D01*
X95387158Y-73310521D01*
X95387715Y-73311613D01*
X95508028Y-73477213D01*
X95652786Y-73621971D01*
X95807749Y-73734556D01*
X95818390Y-73742287D01*
X95909840Y-73788883D01*
X95911080Y-73789515D01*
X95961876Y-73837490D01*
X95978671Y-73905311D01*
X95956134Y-73971446D01*
X95911080Y-74010485D01*
X95818386Y-74057715D01*
X95652786Y-74178028D01*
X95508028Y-74322786D01*
X95387715Y-74488386D01*
X95294781Y-74670776D01*
X95231522Y-74865465D01*
X95199500Y-75067648D01*
X95199500Y-75272351D01*
X95231522Y-75474534D01*
X95294781Y-75669223D01*
X95387715Y-75851613D01*
X95508028Y-76017213D01*
X95652786Y-76161971D01*
X95807749Y-76274556D01*
X95818390Y-76282287D01*
X95909840Y-76328883D01*
X95911080Y-76329515D01*
X95961876Y-76377490D01*
X95978671Y-76445311D01*
X95956134Y-76511446D01*
X95911080Y-76550485D01*
X95818386Y-76597715D01*
X95652786Y-76718028D01*
X95508028Y-76862786D01*
X95387715Y-77028386D01*
X95294781Y-77210776D01*
X95231522Y-77405465D01*
X95199500Y-77607648D01*
X95199500Y-77812351D01*
X95231522Y-78014530D01*
X95231522Y-78014534D01*
X95294781Y-78209223D01*
X95387715Y-78391613D01*
X95508028Y-78557213D01*
X95652786Y-78701971D01*
X95787848Y-78800097D01*
X95818390Y-78822287D01*
X95909840Y-78868883D01*
X95911080Y-78869515D01*
X95961876Y-78917490D01*
X95978671Y-78985311D01*
X95956134Y-79051446D01*
X95911080Y-79090485D01*
X95818386Y-79137715D01*
X95652786Y-79258028D01*
X95508028Y-79402786D01*
X95387715Y-79568386D01*
X95294781Y-79750776D01*
X95231522Y-79945465D01*
X95199500Y-80147648D01*
X95199500Y-80352351D01*
X95231522Y-80554534D01*
X95294781Y-80749223D01*
X95387715Y-80931613D01*
X95508028Y-81097213D01*
X95652786Y-81241971D01*
X95807749Y-81354556D01*
X95818390Y-81362287D01*
X95909840Y-81408883D01*
X95911080Y-81409515D01*
X95961876Y-81457490D01*
X95978671Y-81525311D01*
X95956134Y-81591446D01*
X95911080Y-81630485D01*
X95818386Y-81677715D01*
X95652786Y-81798028D01*
X95508028Y-81942786D01*
X95387715Y-82108386D01*
X95294781Y-82290776D01*
X95231522Y-82485465D01*
X95199500Y-82687648D01*
X95199500Y-82892351D01*
X95231522Y-83094534D01*
X95294781Y-83289223D01*
X95387715Y-83471613D01*
X95508028Y-83637213D01*
X95652786Y-83781971D01*
X95807749Y-83894556D01*
X95818390Y-83902287D01*
X95909840Y-83948883D01*
X95911080Y-83949515D01*
X95961876Y-83997490D01*
X95978671Y-84065311D01*
X95956134Y-84131446D01*
X95911080Y-84170485D01*
X95818386Y-84217715D01*
X95652786Y-84338028D01*
X95508028Y-84482786D01*
X95387715Y-84648386D01*
X95294781Y-84830776D01*
X95231522Y-85025465D01*
X95199500Y-85227648D01*
X95199500Y-85432351D01*
X95231522Y-85634534D01*
X95294781Y-85829223D01*
X95387715Y-86011613D01*
X95508028Y-86177213D01*
X95652786Y-86321971D01*
X95807749Y-86434556D01*
X95818390Y-86442287D01*
X95909840Y-86488883D01*
X95911080Y-86489515D01*
X95961876Y-86537490D01*
X95978671Y-86605311D01*
X95956134Y-86671446D01*
X95911080Y-86710485D01*
X95818386Y-86757715D01*
X95652786Y-86878028D01*
X95508028Y-87022786D01*
X95387715Y-87188386D01*
X95294781Y-87370776D01*
X95231522Y-87565465D01*
X95199500Y-87767648D01*
X95199500Y-87972351D01*
X95231522Y-88174534D01*
X95294781Y-88369223D01*
X95387715Y-88551613D01*
X95508028Y-88717213D01*
X95652786Y-88861971D01*
X95807749Y-88974556D01*
X95818390Y-88982287D01*
X95909840Y-89028883D01*
X95911080Y-89029515D01*
X95961876Y-89077490D01*
X95978671Y-89145311D01*
X95956134Y-89211446D01*
X95911080Y-89250485D01*
X95818386Y-89297715D01*
X95652786Y-89418028D01*
X95508028Y-89562786D01*
X95387715Y-89728386D01*
X95294781Y-89910776D01*
X95231522Y-90105465D01*
X95199500Y-90307648D01*
X95199500Y-90512351D01*
X95231522Y-90714534D01*
X95294781Y-90909223D01*
X95387715Y-91091613D01*
X95508028Y-91257213D01*
X95652786Y-91401971D01*
X95807749Y-91514556D01*
X95818390Y-91522287D01*
X95909840Y-91568883D01*
X95911080Y-91569515D01*
X95961876Y-91617490D01*
X95978671Y-91685311D01*
X95956134Y-91751446D01*
X95911080Y-91790485D01*
X95818386Y-91837715D01*
X95652786Y-91958028D01*
X95508028Y-92102786D01*
X95387715Y-92268386D01*
X95294781Y-92450776D01*
X95231522Y-92645465D01*
X95199500Y-92847648D01*
X95199500Y-93052351D01*
X95231522Y-93254534D01*
X95294781Y-93449223D01*
X95333647Y-93525500D01*
X95386798Y-93629815D01*
X95387715Y-93631613D01*
X95508028Y-93797213D01*
X95652786Y-93941971D01*
X95807749Y-94054556D01*
X95818390Y-94062287D01*
X95909840Y-94108883D01*
X95911080Y-94109515D01*
X95961876Y-94157490D01*
X95978671Y-94225311D01*
X95956134Y-94291446D01*
X95911080Y-94330485D01*
X95818386Y-94377715D01*
X95652786Y-94498028D01*
X95508028Y-94642786D01*
X95387715Y-94808386D01*
X95294781Y-94990776D01*
X95231522Y-95185465D01*
X95199500Y-95387648D01*
X95199500Y-95592351D01*
X95231522Y-95794534D01*
X95294781Y-95989223D01*
X95387715Y-96171613D01*
X95508028Y-96337213D01*
X95652786Y-96481971D01*
X95807749Y-96594556D01*
X95818390Y-96602287D01*
X95909840Y-96648883D01*
X95911080Y-96649515D01*
X95961876Y-96697490D01*
X95978671Y-96765311D01*
X95956134Y-96831446D01*
X95911080Y-96870485D01*
X95818386Y-96917715D01*
X95652786Y-97038028D01*
X95508028Y-97182786D01*
X95387715Y-97348386D01*
X95294781Y-97530776D01*
X95231522Y-97725465D01*
X95199500Y-97927648D01*
X95199500Y-98132351D01*
X95231522Y-98334534D01*
X95294781Y-98529223D01*
X95387715Y-98711613D01*
X95508028Y-98877213D01*
X95652786Y-99021971D01*
X95807749Y-99134556D01*
X95818390Y-99142287D01*
X95909840Y-99188883D01*
X95911080Y-99189515D01*
X95961876Y-99237490D01*
X95978671Y-99305311D01*
X95956134Y-99371446D01*
X95911080Y-99410485D01*
X95818386Y-99457715D01*
X95652786Y-99578028D01*
X95508028Y-99722786D01*
X95387715Y-99888386D01*
X95294781Y-100070776D01*
X95231522Y-100265465D01*
X95199500Y-100467648D01*
X95199500Y-100672351D01*
X95231522Y-100874534D01*
X95294781Y-101069223D01*
X95387715Y-101251613D01*
X95508028Y-101417213D01*
X95652786Y-101561971D01*
X95807749Y-101674556D01*
X95818390Y-101682287D01*
X95909840Y-101728883D01*
X95911080Y-101729515D01*
X95961876Y-101777490D01*
X95978671Y-101845311D01*
X95956134Y-101911446D01*
X95911080Y-101950485D01*
X95818386Y-101997715D01*
X95652786Y-102118028D01*
X95508028Y-102262786D01*
X95387715Y-102428386D01*
X95294781Y-102610776D01*
X95231522Y-102805465D01*
X95199500Y-103007648D01*
X95199500Y-103212351D01*
X95231522Y-103414534D01*
X95294781Y-103609223D01*
X95387715Y-103791613D01*
X95508028Y-103957213D01*
X95652786Y-104101971D01*
X95807749Y-104214556D01*
X95818390Y-104222287D01*
X95934607Y-104281503D01*
X96000776Y-104315218D01*
X96000778Y-104315218D01*
X96000781Y-104315220D01*
X96105137Y-104349127D01*
X96195465Y-104378477D01*
X96296557Y-104394488D01*
X96397648Y-104410500D01*
X96397649Y-104410500D01*
X96602351Y-104410500D01*
X96602352Y-104410500D01*
X96804534Y-104378477D01*
X96999219Y-104315220D01*
X97181610Y-104222287D01*
X97274590Y-104154732D01*
X97347213Y-104101971D01*
X97347215Y-104101968D01*
X97347219Y-104101966D01*
X97491966Y-103957219D01*
X97491968Y-103957215D01*
X97491971Y-103957213D01*
X97544732Y-103884590D01*
X97612287Y-103791610D01*
X97705220Y-103609219D01*
X97768477Y-103414534D01*
X97800500Y-103212352D01*
X97800500Y-103007648D01*
X97768477Y-102805466D01*
X97705220Y-102610781D01*
X97705218Y-102610778D01*
X97705218Y-102610776D01*
X97671503Y-102544607D01*
X97612287Y-102428390D01*
X97604556Y-102417749D01*
X97491971Y-102262786D01*
X97347213Y-102118028D01*
X97181614Y-101997715D01*
X97175006Y-101994348D01*
X97088917Y-101950483D01*
X97038123Y-101902511D01*
X97021328Y-101834690D01*
X97043865Y-101768555D01*
X97088917Y-101729516D01*
X97181610Y-101682287D01*
X97202770Y-101666913D01*
X97347213Y-101561971D01*
X97347215Y-101561968D01*
X97347219Y-101561966D01*
X97491966Y-101417219D01*
X97491968Y-101417215D01*
X97491971Y-101417213D01*
X97612284Y-101251614D01*
X97612285Y-101251613D01*
X97612287Y-101251610D01*
X97619117Y-101238204D01*
X97667091Y-101187409D01*
X97729602Y-101170500D01*
X110769903Y-101170500D01*
X110836942Y-101190185D01*
X110857584Y-101206819D01*
X138915425Y-129264660D01*
X138948910Y-129325983D01*
X138949361Y-129328149D01*
X138980261Y-129483491D01*
X138980264Y-129483501D01*
X139040602Y-129629172D01*
X139040609Y-129629185D01*
X139128210Y-129760288D01*
X139128213Y-129760292D01*
X139239707Y-129871786D01*
X139239711Y-129871789D01*
X139370814Y-129959390D01*
X139370827Y-129959397D01*
X139516498Y-130019735D01*
X139516503Y-130019737D01*
X139671153Y-130050499D01*
X139671156Y-130050500D01*
X139671158Y-130050500D01*
X139828844Y-130050500D01*
X139828845Y-130050499D01*
X139983497Y-130019737D01*
X140129179Y-129959394D01*
X140260289Y-129871789D01*
X140371789Y-129760289D01*
X140459394Y-129629179D01*
X140463728Y-129618717D01*
X140508639Y-129510289D01*
X140519737Y-129483497D01*
X140550500Y-129328842D01*
X140550500Y-129171158D01*
X140550500Y-129171155D01*
X140550499Y-129171153D01*
X140519738Y-129016510D01*
X140519737Y-129016503D01*
X140513425Y-129001265D01*
X140459397Y-128870827D01*
X140459390Y-128870814D01*
X140371789Y-128739711D01*
X140371786Y-128739707D01*
X140260292Y-128628213D01*
X140260288Y-128628210D01*
X140129185Y-128540609D01*
X140129172Y-128540602D01*
X139983501Y-128480264D01*
X139983491Y-128480261D01*
X139828149Y-128449361D01*
X139766238Y-128416976D01*
X139764660Y-128415425D01*
X111557590Y-100208355D01*
X111557588Y-100208352D01*
X111438717Y-100089481D01*
X111438716Y-100089480D01*
X111351904Y-100039360D01*
X111351904Y-100039359D01*
X111351900Y-100039358D01*
X111301785Y-100010423D01*
X111149057Y-99969499D01*
X110990943Y-99969499D01*
X110983347Y-99969499D01*
X110983331Y-99969500D01*
X97729602Y-99969500D01*
X97662563Y-99949815D01*
X97619117Y-99901795D01*
X97612284Y-99888385D01*
X97491971Y-99722786D01*
X97347213Y-99578028D01*
X97181614Y-99457715D01*
X97175006Y-99454348D01*
X97088917Y-99410483D01*
X97038123Y-99362511D01*
X97021328Y-99294690D01*
X97043865Y-99228555D01*
X97088917Y-99189516D01*
X97181610Y-99142287D01*
X97202770Y-99126913D01*
X97347213Y-99021971D01*
X97347215Y-99021968D01*
X97347219Y-99021966D01*
X97491966Y-98877219D01*
X97491968Y-98877215D01*
X97491971Y-98877213D01*
X97544732Y-98804590D01*
X97612287Y-98711610D01*
X97705220Y-98529219D01*
X97768477Y-98334534D01*
X97800500Y-98132352D01*
X97800500Y-97927648D01*
X97768477Y-97725466D01*
X97705220Y-97530781D01*
X97705218Y-97530778D01*
X97705218Y-97530776D01*
X97671503Y-97464607D01*
X97612287Y-97348390D01*
X97604556Y-97337749D01*
X97491971Y-97182786D01*
X97347213Y-97038028D01*
X97181614Y-96917715D01*
X97175006Y-96914348D01*
X97088917Y-96870483D01*
X97038123Y-96822511D01*
X97021328Y-96754690D01*
X97043865Y-96688555D01*
X97088917Y-96649516D01*
X97181610Y-96602287D01*
X97202770Y-96586913D01*
X97347213Y-96481971D01*
X97347215Y-96481968D01*
X97347219Y-96481966D01*
X97491966Y-96337219D01*
X97491968Y-96337215D01*
X97491971Y-96337213D01*
X97544732Y-96264590D01*
X97612287Y-96171610D01*
X97705220Y-95989219D01*
X97768477Y-95794534D01*
X97800500Y-95592352D01*
X97800500Y-95387648D01*
X97768477Y-95185466D01*
X97705220Y-94990781D01*
X97705218Y-94990778D01*
X97705218Y-94990776D01*
X97633743Y-94850500D01*
X97612287Y-94808390D01*
X97555712Y-94730520D01*
X97491971Y-94642786D01*
X97347213Y-94498028D01*
X97181614Y-94377715D01*
X97158710Y-94366045D01*
X97088917Y-94330483D01*
X97038123Y-94282511D01*
X97021328Y-94214690D01*
X97043865Y-94148555D01*
X97088917Y-94109516D01*
X97181610Y-94062287D01*
X97202770Y-94046913D01*
X97347213Y-93941971D01*
X97347215Y-93941968D01*
X97347219Y-93941966D01*
X97491966Y-93797219D01*
X97491968Y-93797215D01*
X97491971Y-93797213D01*
X97577369Y-93679671D01*
X97612287Y-93631610D01*
X97705220Y-93449219D01*
X97768477Y-93254534D01*
X97800500Y-93052352D01*
X97800500Y-92847648D01*
X97770570Y-92658680D01*
X97768477Y-92645465D01*
X97716633Y-92485908D01*
X97705220Y-92450781D01*
X97705218Y-92450778D01*
X97705218Y-92450776D01*
X97671503Y-92384607D01*
X97612287Y-92268390D01*
X97549564Y-92182058D01*
X97491971Y-92102786D01*
X97347213Y-91958028D01*
X97181614Y-91837715D01*
X97175006Y-91834348D01*
X97088917Y-91790483D01*
X97038123Y-91742511D01*
X97021328Y-91674690D01*
X97043865Y-91608555D01*
X97088917Y-91569516D01*
X97181610Y-91522287D01*
X97202770Y-91506913D01*
X97347213Y-91401971D01*
X97347215Y-91401968D01*
X97347219Y-91401966D01*
X97491966Y-91257219D01*
X97491968Y-91257215D01*
X97491971Y-91257213D01*
X97583458Y-91131290D01*
X97612287Y-91091610D01*
X97705220Y-90909219D01*
X97768477Y-90714534D01*
X97800500Y-90512352D01*
X97800500Y-90307648D01*
X97768477Y-90105466D01*
X97705220Y-89910781D01*
X97705218Y-89910778D01*
X97705218Y-89910776D01*
X97671503Y-89844607D01*
X97612287Y-89728390D01*
X97604556Y-89717749D01*
X97491971Y-89562786D01*
X97347213Y-89418028D01*
X97181614Y-89297715D01*
X97175006Y-89294348D01*
X97088917Y-89250483D01*
X97038123Y-89202511D01*
X97021328Y-89134690D01*
X97043865Y-89068555D01*
X97088917Y-89029516D01*
X97181610Y-88982287D01*
X97202770Y-88966913D01*
X97347213Y-88861971D01*
X97347215Y-88861968D01*
X97347219Y-88861966D01*
X97491966Y-88717219D01*
X97491968Y-88717215D01*
X97491971Y-88717213D01*
X97544732Y-88644590D01*
X97612287Y-88551610D01*
X97705220Y-88369219D01*
X97768477Y-88174534D01*
X97800500Y-87972352D01*
X97800500Y-87767648D01*
X97768477Y-87565466D01*
X97705220Y-87370781D01*
X97705218Y-87370778D01*
X97705218Y-87370776D01*
X97671503Y-87304607D01*
X97612287Y-87188390D01*
X97604556Y-87177749D01*
X97491971Y-87022786D01*
X97347213Y-86878028D01*
X97181614Y-86757715D01*
X97175006Y-86754348D01*
X97088917Y-86710483D01*
X97038123Y-86662511D01*
X97021328Y-86594690D01*
X97043865Y-86528555D01*
X97088917Y-86489516D01*
X97181610Y-86442287D01*
X97202770Y-86426913D01*
X97347213Y-86321971D01*
X97347215Y-86321968D01*
X97347219Y-86321966D01*
X97491966Y-86177219D01*
X97491968Y-86177215D01*
X97491971Y-86177213D01*
X97544732Y-86104590D01*
X97612287Y-86011610D01*
X97705220Y-85829219D01*
X97768477Y-85634534D01*
X97800500Y-85432352D01*
X97800500Y-85227648D01*
X97768477Y-85025466D01*
X97705220Y-84830781D01*
X97705218Y-84830778D01*
X97705218Y-84830776D01*
X97671503Y-84764607D01*
X97612287Y-84648390D01*
X97587893Y-84614814D01*
X97491971Y-84482786D01*
X97347213Y-84338028D01*
X97181614Y-84217715D01*
X97175006Y-84214348D01*
X97088917Y-84170483D01*
X97038123Y-84122511D01*
X97021328Y-84054690D01*
X97043865Y-83988555D01*
X97088917Y-83949516D01*
X97181610Y-83902287D01*
X97202770Y-83886913D01*
X97347213Y-83781971D01*
X97347215Y-83781968D01*
X97347219Y-83781966D01*
X97491966Y-83637219D01*
X97491968Y-83637215D01*
X97491971Y-83637213D01*
X97544732Y-83564590D01*
X97612287Y-83471610D01*
X97705220Y-83289219D01*
X97768477Y-83094534D01*
X97800500Y-82892352D01*
X97800500Y-82687648D01*
X97774451Y-82523181D01*
X97768477Y-82485465D01*
X97723065Y-82345702D01*
X97705220Y-82290781D01*
X97705218Y-82290778D01*
X97705218Y-82290776D01*
X97658915Y-82199902D01*
X97612287Y-82108390D01*
X97587893Y-82074814D01*
X97491971Y-81942786D01*
X97347213Y-81798028D01*
X97181614Y-81677715D01*
X97175006Y-81674348D01*
X97088917Y-81630483D01*
X97038123Y-81582511D01*
X97021328Y-81514690D01*
X97043865Y-81448555D01*
X97088917Y-81409516D01*
X97181610Y-81362287D01*
X97202770Y-81346913D01*
X97347213Y-81241971D01*
X97347215Y-81241968D01*
X97347219Y-81241966D01*
X97491966Y-81097219D01*
X97491968Y-81097215D01*
X97491971Y-81097213D01*
X97548448Y-81019478D01*
X97612287Y-80931610D01*
X97705220Y-80749219D01*
X97768477Y-80554534D01*
X97800500Y-80352352D01*
X97800500Y-80147648D01*
X97768477Y-79945466D01*
X97765562Y-79936496D01*
X97723065Y-79805702D01*
X97705220Y-79750781D01*
X97705218Y-79750778D01*
X97705218Y-79750776D01*
X97660395Y-79662808D01*
X97612287Y-79568390D01*
X97587893Y-79534814D01*
X97491971Y-79402786D01*
X97347213Y-79258028D01*
X97181614Y-79137715D01*
X97108575Y-79100500D01*
X97088917Y-79090483D01*
X97038123Y-79042511D01*
X97021328Y-78974690D01*
X97043865Y-78908555D01*
X97088917Y-78869516D01*
X97181610Y-78822287D01*
X97248431Y-78773739D01*
X97347213Y-78701971D01*
X97347215Y-78701968D01*
X97347219Y-78701966D01*
X97491966Y-78557219D01*
X97491968Y-78557215D01*
X97491971Y-78557213D01*
X97544732Y-78484590D01*
X97612287Y-78391610D01*
X97705220Y-78209219D01*
X97768477Y-78014534D01*
X97775633Y-77969358D01*
X97800500Y-77812351D01*
X97800500Y-77607648D01*
X97768477Y-77405465D01*
X97723065Y-77265702D01*
X97705220Y-77210781D01*
X97705218Y-77210778D01*
X97705218Y-77210776D01*
X97660395Y-77122808D01*
X97612287Y-77028390D01*
X97587893Y-76994814D01*
X97491971Y-76862786D01*
X97347213Y-76718028D01*
X97181614Y-76597715D01*
X97175006Y-76594348D01*
X97088917Y-76550483D01*
X97038123Y-76502511D01*
X97021328Y-76434690D01*
X97043865Y-76368555D01*
X97088917Y-76329516D01*
X97181610Y-76282287D01*
X97202770Y-76266913D01*
X97347213Y-76161971D01*
X97347215Y-76161968D01*
X97347219Y-76161966D01*
X97491966Y-76017219D01*
X97491968Y-76017215D01*
X97491971Y-76017213D01*
X97544732Y-75944590D01*
X97612287Y-75851610D01*
X97705220Y-75669219D01*
X97768477Y-75474534D01*
X97800500Y-75272352D01*
X97800500Y-75067648D01*
X97768477Y-74865466D01*
X97705220Y-74670781D01*
X97705218Y-74670778D01*
X97705218Y-74670776D01*
X97671503Y-74604607D01*
X97612287Y-74488390D01*
X97604556Y-74477749D01*
X97491971Y-74322786D01*
X97347213Y-74178028D01*
X97181614Y-74057715D01*
X97154139Y-74043716D01*
X97088917Y-74010483D01*
X97038123Y-73962511D01*
X97021328Y-73894690D01*
X97043865Y-73828555D01*
X97088917Y-73789516D01*
X97181610Y-73742287D01*
X97202770Y-73726913D01*
X97347213Y-73621971D01*
X97347215Y-73621968D01*
X97347219Y-73621966D01*
X97491966Y-73477219D01*
X97491968Y-73477215D01*
X97491971Y-73477213D01*
X97566302Y-73374903D01*
X97612287Y-73311610D01*
X97705220Y-73129219D01*
X97768477Y-72934534D01*
X97800500Y-72732352D01*
X97800500Y-72527648D01*
X97799571Y-72521784D01*
X97768477Y-72325465D01*
X97705383Y-72131284D01*
X97705220Y-72130781D01*
X97705218Y-72130778D01*
X97705218Y-72130776D01*
X97633438Y-71989902D01*
X97612287Y-71948390D01*
X97590554Y-71918477D01*
X97491971Y-71782786D01*
X97347213Y-71638028D01*
X97181614Y-71517715D01*
X97149327Y-71501264D01*
X97088917Y-71470483D01*
X97038123Y-71422511D01*
X97021328Y-71354690D01*
X97043865Y-71288555D01*
X97088917Y-71249516D01*
X97181610Y-71202287D01*
X97202770Y-71186913D01*
X97347213Y-71081971D01*
X97347215Y-71081968D01*
X97347219Y-71081966D01*
X97491966Y-70937219D01*
X97491968Y-70937215D01*
X97491971Y-70937213D01*
X97612284Y-70771614D01*
X97612285Y-70771613D01*
X97612287Y-70771610D01*
X97619117Y-70758204D01*
X97667091Y-70707409D01*
X97729602Y-70690500D01*
X126539903Y-70690500D01*
X126606942Y-70710185D01*
X126627584Y-70726819D01*
X138769478Y-82868713D01*
X138769480Y-82868716D01*
X138881284Y-82980520D01*
X138881286Y-82980521D01*
X140863181Y-84962416D01*
X140896666Y-85023739D01*
X140899500Y-85050097D01*
X140899500Y-132489240D01*
X140879815Y-132556279D01*
X140827011Y-132602034D01*
X140757853Y-132611978D01*
X140706610Y-132592342D01*
X140629190Y-132540612D01*
X140629172Y-132540602D01*
X140483501Y-132480264D01*
X140483489Y-132480261D01*
X140328845Y-132449500D01*
X140328842Y-132449500D01*
X140171158Y-132449500D01*
X140171155Y-132449500D01*
X140016510Y-132480261D01*
X140016498Y-132480264D01*
X139870827Y-132540602D01*
X139870814Y-132540609D01*
X139739711Y-132628210D01*
X139739707Y-132628213D01*
X139734740Y-132633181D01*
X139673417Y-132666666D01*
X139647059Y-132669500D01*
X138490907Y-132669500D01*
X138423868Y-132649815D01*
X138378113Y-132597011D01*
X138368169Y-132527853D01*
X138384175Y-132482380D01*
X138418531Y-132424285D01*
X138426744Y-132410398D01*
X138472598Y-132252569D01*
X138475500Y-132215694D01*
X138475500Y-131784306D01*
X138472598Y-131747431D01*
X138426744Y-131589602D01*
X138343081Y-131448135D01*
X138343079Y-131448133D01*
X138343076Y-131448129D01*
X138226870Y-131331923D01*
X138226862Y-131331917D01*
X138085396Y-131248255D01*
X138085393Y-131248254D01*
X137927573Y-131202402D01*
X137927567Y-131202401D01*
X137890701Y-131199500D01*
X137890694Y-131199500D01*
X137724500Y-131199500D01*
X137657461Y-131179815D01*
X137611706Y-131127011D01*
X137600500Y-131075500D01*
X137600500Y-129579765D01*
X137620185Y-129512726D01*
X137621398Y-129510874D01*
X137625137Y-129505279D01*
X137709394Y-129379179D01*
X137769737Y-129233497D01*
X137800500Y-129078842D01*
X137800500Y-128921158D01*
X137800500Y-128921155D01*
X137800499Y-128921153D01*
X137769738Y-128766510D01*
X137769737Y-128766503D01*
X137769735Y-128766498D01*
X137709397Y-128620827D01*
X137709390Y-128620814D01*
X137621789Y-128489711D01*
X137621786Y-128489707D01*
X137510292Y-128378213D01*
X137510288Y-128378210D01*
X137379185Y-128290609D01*
X137379172Y-128290602D01*
X137233501Y-128230264D01*
X137233489Y-128230261D01*
X137078845Y-128199500D01*
X137078842Y-128199500D01*
X136921158Y-128199500D01*
X136921155Y-128199500D01*
X136766510Y-128230261D01*
X136766498Y-128230264D01*
X136620827Y-128290602D01*
X136620814Y-128290609D01*
X136489711Y-128378210D01*
X136489707Y-128378213D01*
X136378213Y-128489707D01*
X136378210Y-128489711D01*
X136290609Y-128620814D01*
X136290602Y-128620827D01*
X136230264Y-128766498D01*
X136230261Y-128766510D01*
X136199500Y-128921153D01*
X136199500Y-129078846D01*
X136230261Y-129233489D01*
X136230264Y-129233501D01*
X136290602Y-129379172D01*
X136290609Y-129379185D01*
X136378602Y-129510874D01*
X136399480Y-129577551D01*
X136399500Y-129579765D01*
X136399500Y-131075500D01*
X136379815Y-131142539D01*
X136327011Y-131188294D01*
X136275500Y-131199500D01*
X136109298Y-131199500D01*
X136072432Y-131202401D01*
X136072426Y-131202402D01*
X135914606Y-131248254D01*
X135914603Y-131248255D01*
X135773137Y-131331917D01*
X135773129Y-131331923D01*
X135656923Y-131448129D01*
X135656917Y-131448137D01*
X135573255Y-131589603D01*
X135573254Y-131589606D01*
X135527402Y-131747426D01*
X135527401Y-131747432D01*
X135524500Y-131784298D01*
X135524500Y-132215701D01*
X135527401Y-132252567D01*
X135527402Y-132252573D01*
X135573254Y-132410393D01*
X135573255Y-132410396D01*
X135573256Y-132410398D01*
X135576229Y-132415425D01*
X135656917Y-132551862D01*
X135661702Y-132558031D01*
X135659256Y-132559927D01*
X135685857Y-132608642D01*
X135680873Y-132678334D01*
X135660069Y-132710703D01*
X135661702Y-132711969D01*
X135656917Y-132718137D01*
X135573255Y-132859603D01*
X135573254Y-132859606D01*
X135527402Y-133017426D01*
X135527401Y-133017432D01*
X135524500Y-133054298D01*
X135524500Y-133485701D01*
X135527401Y-133522567D01*
X135527402Y-133522573D01*
X135573254Y-133680393D01*
X135573255Y-133680396D01*
X135656917Y-133821862D01*
X135661702Y-133828031D01*
X135659256Y-133829927D01*
X135685857Y-133878642D01*
X135680873Y-133948334D01*
X135660069Y-133980703D01*
X135661702Y-133981969D01*
X135656917Y-133988137D01*
X135573255Y-134129603D01*
X135573254Y-134129606D01*
X135527402Y-134287426D01*
X135527401Y-134287432D01*
X135524500Y-134324298D01*
X135524500Y-134755701D01*
X135527401Y-134792567D01*
X135527402Y-134792573D01*
X135573254Y-134950393D01*
X135573255Y-134950396D01*
X135656917Y-135091862D01*
X135661702Y-135098031D01*
X135659256Y-135099927D01*
X135685857Y-135148642D01*
X135680873Y-135218334D01*
X135660069Y-135250703D01*
X135661702Y-135251969D01*
X135656917Y-135258137D01*
X135573255Y-135399603D01*
X135573254Y-135399606D01*
X135527402Y-135557426D01*
X135527401Y-135557432D01*
X135524500Y-135594298D01*
X135524500Y-136025701D01*
X135527401Y-136062567D01*
X135527402Y-136062573D01*
X135573254Y-136220393D01*
X135573255Y-136220396D01*
X135656917Y-136361862D01*
X135656923Y-136361870D01*
X135773129Y-136478076D01*
X135773133Y-136478079D01*
X135773135Y-136478081D01*
X135914602Y-136561744D01*
X135956224Y-136573836D01*
X136072426Y-136607597D01*
X136072429Y-136607597D01*
X136072431Y-136607598D01*
X136109306Y-136610500D01*
X136109314Y-136610500D01*
X137890686Y-136610500D01*
X137890694Y-136610500D01*
X137927569Y-136607598D01*
X137927571Y-136607597D01*
X137927573Y-136607597D01*
X137969191Y-136595505D01*
X138085398Y-136561744D01*
X138226865Y-136478081D01*
X138258126Y-136446820D01*
X138319448Y-136413334D01*
X138345808Y-136410500D01*
X141603331Y-136410500D01*
X141603347Y-136410501D01*
X141610943Y-136410501D01*
X141769054Y-136410501D01*
X141769057Y-136410501D01*
X141921785Y-136369577D01*
X141971904Y-136340639D01*
X142058716Y-136290520D01*
X142170520Y-136178716D01*
X142170520Y-136178714D01*
X142180728Y-136168507D01*
X142180730Y-136168504D01*
X143108506Y-135240728D01*
X143108511Y-135240724D01*
X143118714Y-135230520D01*
X143118716Y-135230520D01*
X143230520Y-135118716D01*
X143309577Y-134981784D01*
X143350500Y-134829057D01*
X143350500Y-134136555D01*
X143370185Y-134069516D01*
X143422989Y-134023761D01*
X143492147Y-134013817D01*
X143510411Y-134018840D01*
X143510676Y-134017969D01*
X143516492Y-134019732D01*
X143516503Y-134019737D01*
X143671153Y-134050499D01*
X143671156Y-134050500D01*
X143671158Y-134050500D01*
X143828844Y-134050500D01*
X143828845Y-134050499D01*
X143983497Y-134019737D01*
X144129179Y-133959394D01*
X144260289Y-133871789D01*
X144371789Y-133760289D01*
X144459394Y-133629179D01*
X144519737Y-133483497D01*
X144550500Y-133328842D01*
X144550638Y-133328150D01*
X144583023Y-133266239D01*
X144584518Y-133264716D01*
X193592416Y-84256819D01*
X193653739Y-84223334D01*
X193680097Y-84220500D01*
X198168194Y-84220500D01*
X198235233Y-84240185D01*
X198273731Y-84279401D01*
X198347288Y-84398656D01*
X198471344Y-84522712D01*
X198620666Y-84614814D01*
X198787203Y-84669999D01*
X198889991Y-84680500D01*
X200650008Y-84680499D01*
X200752797Y-84669999D01*
X200919334Y-84614814D01*
X201068656Y-84522712D01*
X201192712Y-84398656D01*
X201284814Y-84249334D01*
X201339999Y-84082797D01*
X201350500Y-83980009D01*
X201350499Y-83259992D01*
X201349609Y-83251284D01*
X201339999Y-83157203D01*
X201339998Y-83157200D01*
X201334125Y-83139477D01*
X201284814Y-82990666D01*
X201192712Y-82841344D01*
X201068656Y-82717288D01*
X200929224Y-82631286D01*
X200919336Y-82625187D01*
X200919331Y-82625185D01*
X200917862Y-82624698D01*
X200752797Y-82570001D01*
X200752795Y-82570000D01*
X200650016Y-82559500D01*
X200650009Y-82559500D01*
X200494500Y-82559500D01*
X200485814Y-82556949D01*
X200476853Y-82558238D01*
X200452812Y-82547259D01*
X200427461Y-82539815D01*
X200421533Y-82532974D01*
X200413297Y-82529213D01*
X200399007Y-82506978D01*
X200381706Y-82487011D01*
X200379418Y-82476496D01*
X200375523Y-82470435D01*
X200370500Y-82435500D01*
X200370500Y-82264499D01*
X200390185Y-82197460D01*
X200442989Y-82151705D01*
X200494500Y-82140499D01*
X200650002Y-82140499D01*
X200650008Y-82140499D01*
X200752797Y-82129999D01*
X200919334Y-82074814D01*
X201068656Y-81982712D01*
X201192712Y-81858656D01*
X201284814Y-81709334D01*
X201339999Y-81542797D01*
X201350500Y-81440009D01*
X201350499Y-80719992D01*
X201339999Y-80617203D01*
X201284814Y-80450666D01*
X201192712Y-80301344D01*
X201068656Y-80177288D01*
X200919334Y-80085186D01*
X200752797Y-80030001D01*
X200752795Y-80030000D01*
X200650016Y-80019500D01*
X200650009Y-80019500D01*
X200494500Y-80019500D01*
X200485814Y-80016949D01*
X200476853Y-80018238D01*
X200452812Y-80007259D01*
X200427461Y-79999815D01*
X200421533Y-79992974D01*
X200413297Y-79989213D01*
X200399007Y-79966978D01*
X200381706Y-79947011D01*
X200379418Y-79936496D01*
X200375523Y-79930435D01*
X200370500Y-79895500D01*
X200370500Y-79724499D01*
X200390185Y-79657460D01*
X200442989Y-79611705D01*
X200494500Y-79600499D01*
X200650002Y-79600499D01*
X200650008Y-79600499D01*
X200752797Y-79589999D01*
X200919334Y-79534814D01*
X201068656Y-79442712D01*
X201192712Y-79318656D01*
X201284814Y-79169334D01*
X201339999Y-79002797D01*
X201350500Y-78900009D01*
X201350499Y-78179992D01*
X201346245Y-78138352D01*
X201339999Y-78077203D01*
X201339998Y-78077200D01*
X201320871Y-78019479D01*
X201284814Y-77910666D01*
X201192712Y-77761344D01*
X201068656Y-77637288D01*
X200919334Y-77545186D01*
X200752797Y-77490001D01*
X200752795Y-77490000D01*
X200650016Y-77479500D01*
X200650009Y-77479500D01*
X200494500Y-77479500D01*
X200485814Y-77476949D01*
X200476853Y-77478238D01*
X200452812Y-77467259D01*
X200427461Y-77459815D01*
X200421533Y-77452974D01*
X200413297Y-77449213D01*
X200399007Y-77426978D01*
X200381706Y-77407011D01*
X200379418Y-77396496D01*
X200375523Y-77390435D01*
X200370500Y-77355500D01*
X200370500Y-77184499D01*
X200390185Y-77117460D01*
X200442989Y-77071705D01*
X200494500Y-77060499D01*
X200650002Y-77060499D01*
X200650008Y-77060499D01*
X200752797Y-77049999D01*
X200919334Y-76994814D01*
X201068656Y-76902712D01*
X201192712Y-76778656D01*
X201284814Y-76629334D01*
X201339999Y-76462797D01*
X201350500Y-76360009D01*
X201350499Y-75639992D01*
X201339999Y-75537203D01*
X201284814Y-75370666D01*
X201192712Y-75221344D01*
X201068656Y-75097288D01*
X200919334Y-75005186D01*
X200752797Y-74950001D01*
X200752795Y-74950000D01*
X200650010Y-74939500D01*
X198889998Y-74939500D01*
X198889981Y-74939501D01*
X198787203Y-74950000D01*
X198787200Y-74950001D01*
X198620668Y-75005185D01*
X198620663Y-75005187D01*
X198471342Y-75097289D01*
X198347289Y-75221342D01*
X198255187Y-75370663D01*
X198255186Y-75370666D01*
X198200001Y-75537203D01*
X198200001Y-75537204D01*
X198200000Y-75537204D01*
X198189500Y-75639983D01*
X198189500Y-76360001D01*
X198189501Y-76360019D01*
X198200000Y-76462796D01*
X198200001Y-76462799D01*
X198229058Y-76550485D01*
X198255186Y-76629334D01*
X198347288Y-76778656D01*
X198471344Y-76902712D01*
X198620666Y-76994814D01*
X198787203Y-77049999D01*
X198889991Y-77060500D01*
X199045500Y-77060499D01*
X199054185Y-77063049D01*
X199063147Y-77061761D01*
X199087184Y-77072738D01*
X199112539Y-77080183D01*
X199118467Y-77087025D01*
X199126703Y-77090786D01*
X199140989Y-77113017D01*
X199158294Y-77132987D01*
X199160581Y-77143502D01*
X199164477Y-77149564D01*
X199169500Y-77184499D01*
X199169500Y-77355500D01*
X199149815Y-77422539D01*
X199097011Y-77468294D01*
X199045501Y-77479500D01*
X198889999Y-77479500D01*
X198889980Y-77479501D01*
X198787203Y-77490000D01*
X198787200Y-77490001D01*
X198620668Y-77545185D01*
X198620663Y-77545187D01*
X198471342Y-77637289D01*
X198347289Y-77761342D01*
X198255187Y-77910663D01*
X198255186Y-77910666D01*
X198200001Y-78077203D01*
X198200001Y-78077204D01*
X198200000Y-78077204D01*
X198189500Y-78179983D01*
X198189500Y-78900001D01*
X198189501Y-78900019D01*
X198200000Y-79002796D01*
X198200001Y-79002799D01*
X198244708Y-79137713D01*
X198255186Y-79169334D01*
X198347288Y-79318656D01*
X198471344Y-79442712D01*
X198620666Y-79534814D01*
X198787203Y-79589999D01*
X198889991Y-79600500D01*
X199045500Y-79600499D01*
X199054185Y-79603049D01*
X199063147Y-79601761D01*
X199087184Y-79612738D01*
X199112539Y-79620183D01*
X199118467Y-79627025D01*
X199126703Y-79630786D01*
X199140989Y-79653017D01*
X199158294Y-79672987D01*
X199160581Y-79683502D01*
X199164477Y-79689564D01*
X199169500Y-79724499D01*
X199169500Y-79895500D01*
X199149815Y-79962539D01*
X199097011Y-80008294D01*
X199045501Y-80019500D01*
X198889999Y-80019500D01*
X198889980Y-80019501D01*
X198787203Y-80030000D01*
X198787200Y-80030001D01*
X198620668Y-80085185D01*
X198620663Y-80085187D01*
X198471342Y-80177289D01*
X198347289Y-80301342D01*
X198255187Y-80450663D01*
X198255186Y-80450666D01*
X198200001Y-80617203D01*
X198200001Y-80617204D01*
X198200000Y-80617204D01*
X198189500Y-80719983D01*
X198189500Y-81440001D01*
X198189501Y-81440019D01*
X198200000Y-81542796D01*
X198200001Y-81542799D01*
X198229058Y-81630485D01*
X198255186Y-81709334D01*
X198347288Y-81858656D01*
X198471344Y-81982712D01*
X198620666Y-82074814D01*
X198787203Y-82129999D01*
X198889991Y-82140500D01*
X199045500Y-82140499D01*
X199054185Y-82143049D01*
X199063147Y-82141761D01*
X199087184Y-82152738D01*
X199112539Y-82160183D01*
X199118467Y-82167025D01*
X199126703Y-82170786D01*
X199140989Y-82193017D01*
X199158294Y-82212987D01*
X199160581Y-82223502D01*
X199164477Y-82229564D01*
X199169500Y-82264499D01*
X199169500Y-82435500D01*
X199149815Y-82502539D01*
X199097011Y-82548294D01*
X199045501Y-82559500D01*
X198889999Y-82559500D01*
X198889980Y-82559501D01*
X198787203Y-82570000D01*
X198787200Y-82570001D01*
X198620668Y-82625185D01*
X198620663Y-82625187D01*
X198471342Y-82717289D01*
X198347289Y-82841342D01*
X198273733Y-82960597D01*
X198221785Y-83007321D01*
X198168194Y-83019500D01*
X193300943Y-83019500D01*
X193148213Y-83060423D01*
X193111129Y-83081835D01*
X193111128Y-83081835D01*
X193011287Y-83139477D01*
X193011282Y-83139481D01*
X143735339Y-132415425D01*
X143719111Y-132424285D01*
X143705897Y-132437216D01*
X143675714Y-132447982D01*
X143674016Y-132448910D01*
X143672696Y-132449190D01*
X143671192Y-132449500D01*
X143671158Y-132449500D01*
X143516503Y-132480263D01*
X143511074Y-132482511D01*
X143499538Y-132484890D01*
X143475772Y-132482930D01*
X143452056Y-132485396D01*
X143441591Y-132480111D01*
X143429905Y-132479148D01*
X143410969Y-132464648D01*
X143389687Y-132453902D01*
X143383740Y-132443799D01*
X143374430Y-132436670D01*
X143366340Y-132414237D01*
X143354245Y-132393689D01*
X143351795Y-132373906D01*
X143350727Y-132370944D01*
X143351182Y-132368955D01*
X143350500Y-132363444D01*
X143350500Y-129829765D01*
X143370185Y-129762726D01*
X143371398Y-129760874D01*
X143459390Y-129629185D01*
X143459390Y-129629184D01*
X143459394Y-129629179D01*
X143463728Y-129618717D01*
X143508639Y-129510289D01*
X143519737Y-129483497D01*
X143550500Y-129328842D01*
X143550500Y-129171158D01*
X143550500Y-129171155D01*
X143550499Y-129171153D01*
X143519738Y-129016510D01*
X143519737Y-129016503D01*
X143513425Y-129001265D01*
X143459397Y-128870827D01*
X143459390Y-128870814D01*
X143371789Y-128739711D01*
X143371786Y-128739707D01*
X143260292Y-128628213D01*
X143260288Y-128628210D01*
X143129185Y-128540609D01*
X143129172Y-128540602D01*
X142983501Y-128480264D01*
X142983489Y-128480261D01*
X142828845Y-128449500D01*
X142828842Y-128449500D01*
X142671158Y-128449500D01*
X142671155Y-128449500D01*
X142516510Y-128480261D01*
X142516498Y-128480264D01*
X142370827Y-128540602D01*
X142370809Y-128540612D01*
X142293390Y-128592342D01*
X142226713Y-128613220D01*
X142159333Y-128594735D01*
X142112643Y-128542756D01*
X142100500Y-128489240D01*
X142100500Y-125671153D01*
X143199500Y-125671153D01*
X143199500Y-125828846D01*
X143230261Y-125983489D01*
X143230264Y-125983501D01*
X143290602Y-126129172D01*
X143290609Y-126129185D01*
X143378210Y-126260288D01*
X143378213Y-126260292D01*
X143489707Y-126371786D01*
X143489711Y-126371789D01*
X143620814Y-126459390D01*
X143620827Y-126459397D01*
X143766498Y-126519735D01*
X143766503Y-126519737D01*
X143921153Y-126550499D01*
X143921156Y-126550500D01*
X143921158Y-126550500D01*
X144078844Y-126550500D01*
X144078845Y-126550499D01*
X144233497Y-126519737D01*
X144379179Y-126459394D01*
X144510289Y-126371789D01*
X144621789Y-126260289D01*
X144709394Y-126129179D01*
X144769737Y-125983497D01*
X144789113Y-125886085D01*
X144800638Y-125828150D01*
X144833023Y-125766239D01*
X144834519Y-125764715D01*
X146868713Y-123730521D01*
X146868716Y-123730520D01*
X146980520Y-123618716D01*
X147030639Y-123531904D01*
X147059577Y-123481785D01*
X147100501Y-123329057D01*
X147100501Y-123170943D01*
X147100501Y-123163348D01*
X147100500Y-123163330D01*
X147100500Y-92249097D01*
X147120185Y-92182058D01*
X147172989Y-92136303D01*
X147242147Y-92126359D01*
X147305703Y-92155384D01*
X147312181Y-92161416D01*
X149765139Y-94614374D01*
X149765149Y-94614385D01*
X149769479Y-94618715D01*
X149769480Y-94618716D01*
X149881284Y-94730520D01*
X149968095Y-94780639D01*
X149968097Y-94780641D01*
X150016152Y-94808386D01*
X150018215Y-94809577D01*
X150170942Y-94850500D01*
X150170943Y-94850500D01*
X152873301Y-94850500D01*
X152940340Y-94870185D01*
X152986095Y-94922989D01*
X152997301Y-94974500D01*
X152997301Y-95567876D01*
X153003708Y-95627483D01*
X153054002Y-95762328D01*
X153054006Y-95762335D01*
X153140252Y-95877544D01*
X153140255Y-95877547D01*
X153255464Y-95963793D01*
X153255471Y-95963797D01*
X153390317Y-96014091D01*
X153390316Y-96014091D01*
X153397244Y-96014835D01*
X153449927Y-96020500D01*
X156085672Y-96020499D01*
X156145283Y-96014091D01*
X156280131Y-95963796D01*
X156395346Y-95877546D01*
X156481596Y-95762331D01*
X156531891Y-95627483D01*
X156538300Y-95567873D01*
X156538299Y-92932128D01*
X156531891Y-92872517D01*
X156522615Y-92847648D01*
X156481597Y-92737671D01*
X156481593Y-92737664D01*
X156395347Y-92622455D01*
X156395344Y-92622452D01*
X156280135Y-92536206D01*
X156280128Y-92536202D01*
X156145282Y-92485908D01*
X156145283Y-92485908D01*
X156085683Y-92479501D01*
X156085681Y-92479500D01*
X156085673Y-92479500D01*
X156085664Y-92479500D01*
X153449929Y-92479500D01*
X153449923Y-92479501D01*
X153390316Y-92485908D01*
X153255471Y-92536202D01*
X153255464Y-92536206D01*
X153140255Y-92622452D01*
X153140252Y-92622455D01*
X153054006Y-92737664D01*
X153054002Y-92737671D01*
X153003708Y-92872517D01*
X152999032Y-92916015D01*
X152997301Y-92932123D01*
X152997300Y-92932135D01*
X152997300Y-93525500D01*
X152977615Y-93592539D01*
X152924811Y-93638294D01*
X152873300Y-93649500D01*
X150550097Y-93649500D01*
X150483058Y-93629815D01*
X150462416Y-93613181D01*
X147987590Y-91138355D01*
X147987588Y-91138352D01*
X147868717Y-91019481D01*
X147868716Y-91019480D01*
X147781904Y-90969360D01*
X147781904Y-90969359D01*
X147781900Y-90969358D01*
X147731785Y-90940423D01*
X147579057Y-90899499D01*
X147420943Y-90899499D01*
X147413347Y-90899499D01*
X147413331Y-90899500D01*
X146420943Y-90899500D01*
X146268216Y-90940423D01*
X146268209Y-90940426D01*
X146131290Y-91019475D01*
X146131282Y-91019481D01*
X146019481Y-91131282D01*
X146019475Y-91131290D01*
X145940426Y-91268209D01*
X145940423Y-91268216D01*
X145899500Y-91420943D01*
X145899500Y-122949903D01*
X145879815Y-123016942D01*
X145863181Y-123037584D01*
X143985339Y-124915425D01*
X143924016Y-124948910D01*
X143921850Y-124949361D01*
X143766508Y-124980261D01*
X143766498Y-124980264D01*
X143620827Y-125040602D01*
X143620814Y-125040609D01*
X143489711Y-125128210D01*
X143489707Y-125128213D01*
X143378213Y-125239707D01*
X143378210Y-125239711D01*
X143290609Y-125370814D01*
X143290602Y-125370827D01*
X143230264Y-125516498D01*
X143230261Y-125516510D01*
X143199500Y-125671153D01*
X142100500Y-125671153D01*
X142100500Y-84839060D01*
X142100501Y-84839047D01*
X142100501Y-84670944D01*
X142094458Y-84648390D01*
X142059577Y-84518216D01*
X142039119Y-84482781D01*
X141980524Y-84381290D01*
X141980518Y-84381282D01*
X139886819Y-82287583D01*
X139853334Y-82226260D01*
X139850500Y-82199902D01*
X139850500Y-79224500D01*
X139870185Y-79157461D01*
X139922989Y-79111706D01*
X139974500Y-79100500D01*
X144949903Y-79100500D01*
X145016942Y-79120185D01*
X145037584Y-79136819D01*
X149113181Y-83212416D01*
X149146666Y-83273739D01*
X149149500Y-83300097D01*
X149149500Y-88420943D01*
X149149500Y-88579057D01*
X149186521Y-88717219D01*
X149190423Y-88731783D01*
X149190426Y-88731790D01*
X149269475Y-88868709D01*
X149269479Y-88868714D01*
X149269480Y-88868716D01*
X149381284Y-88980520D01*
X149381286Y-88980521D01*
X149381290Y-88980524D01*
X149518209Y-89059573D01*
X149518216Y-89059577D01*
X149670943Y-89100500D01*
X158699903Y-89100500D01*
X158766942Y-89120185D01*
X158787584Y-89136819D01*
X163087596Y-93436831D01*
X163121081Y-93498154D01*
X163116097Y-93567846D01*
X163114476Y-93571965D01*
X163069862Y-93679671D01*
X163009794Y-93903851D01*
X162979500Y-94133947D01*
X162979500Y-94366052D01*
X163006007Y-94567386D01*
X163009794Y-94596149D01*
X163015840Y-94618713D01*
X163069862Y-94820328D01*
X163158677Y-95034745D01*
X163158685Y-95034762D01*
X163274720Y-95235743D01*
X163274721Y-95235745D01*
X163416009Y-95419875D01*
X163416015Y-95419882D01*
X163580117Y-95583984D01*
X163580124Y-95583990D01*
X163764254Y-95725278D01*
X163764256Y-95725279D01*
X163965237Y-95841314D01*
X163965240Y-95841315D01*
X163965248Y-95841320D01*
X164179670Y-95930137D01*
X164403851Y-95990206D01*
X164622318Y-96018968D01*
X164633939Y-96020498D01*
X164633955Y-96020500D01*
X164633962Y-96020500D01*
X164866038Y-96020500D01*
X164866045Y-96020500D01*
X165096149Y-95990206D01*
X165320330Y-95930137D01*
X165534752Y-95841320D01*
X165735748Y-95725276D01*
X165919877Y-95583989D01*
X166083989Y-95419877D01*
X166225276Y-95235748D01*
X166341320Y-95034752D01*
X166430137Y-94820330D01*
X166490206Y-94596149D01*
X166520500Y-94366045D01*
X166520500Y-94133955D01*
X166490206Y-93903851D01*
X166430137Y-93679670D01*
X166341320Y-93465248D01*
X166324914Y-93436831D01*
X166225279Y-93264256D01*
X166225278Y-93264254D01*
X166083990Y-93080124D01*
X166083984Y-93080117D01*
X165919882Y-92916015D01*
X165919875Y-92916009D01*
X165735745Y-92774721D01*
X165735743Y-92774720D01*
X165534762Y-92658685D01*
X165534754Y-92658681D01*
X165534752Y-92658680D01*
X165502851Y-92645466D01*
X165320328Y-92569862D01*
X165178203Y-92531780D01*
X165096149Y-92509794D01*
X165067386Y-92506007D01*
X164866052Y-92479500D01*
X164866045Y-92479500D01*
X164633955Y-92479500D01*
X164633947Y-92479500D01*
X164403851Y-92509794D01*
X164179671Y-92569862D01*
X164071965Y-92614476D01*
X164002495Y-92621945D01*
X163940016Y-92590670D01*
X163936831Y-92587596D01*
X159487590Y-88138355D01*
X159487588Y-88138352D01*
X159368717Y-88019481D01*
X159368716Y-88019480D01*
X159280486Y-87968541D01*
X159231785Y-87940423D01*
X159079057Y-87899499D01*
X158920943Y-87899499D01*
X158913347Y-87899499D01*
X158913331Y-87899500D01*
X150474500Y-87899500D01*
X150407461Y-87879815D01*
X150361706Y-87827011D01*
X150350500Y-87775500D01*
X150350500Y-83089059D01*
X150350501Y-83089046D01*
X150350501Y-82920945D01*
X150350501Y-82920943D01*
X150309577Y-82768215D01*
X150309575Y-82768212D01*
X150309575Y-82768210D01*
X150309574Y-82768209D01*
X150280175Y-82717289D01*
X150280173Y-82717287D01*
X150230521Y-82631286D01*
X150230520Y-82631284D01*
X150118716Y-82519480D01*
X150118715Y-82519479D01*
X150114385Y-82515149D01*
X150114374Y-82515139D01*
X145737590Y-78138355D01*
X145737588Y-78138352D01*
X145618717Y-78019481D01*
X145618716Y-78019480D01*
X145531904Y-77969360D01*
X145531904Y-77969359D01*
X145531900Y-77969358D01*
X145481785Y-77940423D01*
X145329057Y-77899499D01*
X145170943Y-77899499D01*
X145163347Y-77899499D01*
X145163331Y-77899500D01*
X139550097Y-77899500D01*
X139483058Y-77879815D01*
X139462416Y-77863181D01*
X135061819Y-73462584D01*
X135028334Y-73401261D01*
X135025500Y-73374903D01*
X135025500Y-70685055D01*
X135045185Y-70618016D01*
X135067933Y-70591659D01*
X135075665Y-70584905D01*
X135092891Y-70574281D01*
X135127782Y-70539389D01*
X135130933Y-70536638D01*
X135159008Y-70523683D01*
X135186142Y-70508868D01*
X135190451Y-70509176D01*
X135194375Y-70507366D01*
X135224991Y-70511646D01*
X135255834Y-70513852D01*
X135260022Y-70516543D01*
X135263572Y-70517040D01*
X135271796Y-70524110D01*
X135300181Y-70542353D01*
X135332108Y-70574280D01*
X135332112Y-70574283D01*
X135475204Y-70662544D01*
X135475207Y-70662545D01*
X135475213Y-70662549D01*
X135634815Y-70715436D01*
X135733326Y-70725500D01*
X135733331Y-70725500D01*
X136266669Y-70725500D01*
X136266674Y-70725500D01*
X136365185Y-70715436D01*
X136524787Y-70662549D01*
X136667891Y-70574281D01*
X136786781Y-70455391D01*
X136815148Y-70409401D01*
X136822733Y-70402578D01*
X136826972Y-70393297D01*
X136848271Y-70379608D01*
X136867094Y-70362679D01*
X136878729Y-70360034D01*
X136885750Y-70355523D01*
X136920685Y-70350500D01*
X137163331Y-70350500D01*
X137163347Y-70350501D01*
X137170943Y-70350501D01*
X137329054Y-70350501D01*
X137329057Y-70350501D01*
X137481785Y-70309577D01*
X137531904Y-70280639D01*
X137618716Y-70230520D01*
X137730520Y-70118716D01*
X137730520Y-70118714D01*
X137740728Y-70108507D01*
X137740729Y-70108504D01*
X139962415Y-67886820D01*
X140023738Y-67853335D01*
X140050096Y-67850501D01*
X140079054Y-67850501D01*
X140079057Y-67850501D01*
X140231785Y-67809577D01*
X140281904Y-67780639D01*
X140368716Y-67730520D01*
X140480520Y-67618716D01*
X140480520Y-67618714D01*
X140490728Y-67608507D01*
X140490729Y-67608504D01*
X152462416Y-55636819D01*
X152523739Y-55603334D01*
X152550097Y-55600500D01*
X153246561Y-55600500D01*
X153313600Y-55620185D01*
X153359355Y-55672989D01*
X153369299Y-55742147D01*
X153340274Y-55805703D01*
X153315452Y-55827602D01*
X153239711Y-55878210D01*
X153239707Y-55878213D01*
X153128213Y-55989707D01*
X153128210Y-55989711D01*
X153040609Y-56120814D01*
X153040602Y-56120827D01*
X152980264Y-56266498D01*
X152980261Y-56266510D01*
X152949500Y-56421153D01*
X152949500Y-56578846D01*
X152980261Y-56733489D01*
X152980264Y-56733501D01*
X153040602Y-56879172D01*
X153040609Y-56879185D01*
X153128210Y-57010288D01*
X153128213Y-57010292D01*
X153239707Y-57121786D01*
X153239711Y-57121789D01*
X153370814Y-57209390D01*
X153370827Y-57209397D01*
X153516498Y-57269735D01*
X153516503Y-57269737D01*
X153671153Y-57300499D01*
X153671156Y-57300500D01*
X153671158Y-57300500D01*
X153828844Y-57300500D01*
X153828845Y-57300499D01*
X153983497Y-57269737D01*
X154129179Y-57209394D01*
X154224203Y-57145901D01*
X154260875Y-57121398D01*
X154327553Y-57100520D01*
X154329766Y-57100500D01*
X218547742Y-57100500D01*
X218614781Y-57120185D01*
X218660536Y-57172989D01*
X218670480Y-57242147D01*
X218641455Y-57305703D01*
X218611892Y-57330617D01*
X218610395Y-57331521D01*
X218610394Y-57331522D01*
X218548871Y-57368714D01*
X218464811Y-57419530D01*
X218344530Y-57539811D01*
X218314402Y-57589650D01*
X218262874Y-57636838D01*
X218208285Y-57649500D01*
X215836669Y-57649500D01*
X215836653Y-57649499D01*
X215829057Y-57649499D01*
X215670943Y-57649499D01*
X215556397Y-57680192D01*
X215518214Y-57690423D01*
X215492290Y-57705391D01*
X215492289Y-57705391D01*
X215381287Y-57769477D01*
X215381282Y-57769481D01*
X210383439Y-62767324D01*
X210383429Y-62767334D01*
X210381286Y-62769478D01*
X210381284Y-62769480D01*
X210269480Y-62881284D01*
X210257407Y-62902196D01*
X210250787Y-62913661D01*
X210250786Y-62913663D01*
X210212186Y-62980520D01*
X210190423Y-63018215D01*
X210149499Y-63170943D01*
X210149499Y-63170945D01*
X210149499Y-63339046D01*
X210149500Y-63339059D01*
X210149500Y-71449902D01*
X210129815Y-71516941D01*
X210113181Y-71537583D01*
X206747582Y-74903181D01*
X206686259Y-74936666D01*
X206659901Y-74939500D01*
X205619998Y-74939500D01*
X205619980Y-74939501D01*
X205517203Y-74950000D01*
X205517200Y-74950001D01*
X205350668Y-75005185D01*
X205350663Y-75005187D01*
X205201342Y-75097289D01*
X205077289Y-75221342D01*
X204985187Y-75370663D01*
X204985186Y-75370666D01*
X204930001Y-75537203D01*
X204930001Y-75537204D01*
X204930000Y-75537204D01*
X204919500Y-75639983D01*
X204919500Y-76360001D01*
X204919501Y-76360019D01*
X204930000Y-76462796D01*
X204930001Y-76462799D01*
X204959058Y-76550485D01*
X204985186Y-76629334D01*
X205077288Y-76778656D01*
X205201344Y-76902712D01*
X205350666Y-76994814D01*
X205517203Y-77049999D01*
X205619991Y-77060500D01*
X206830902Y-77060499D01*
X206852147Y-77066737D01*
X206874236Y-77068317D01*
X206885019Y-77076389D01*
X206897941Y-77080184D01*
X206912441Y-77096917D01*
X206930169Y-77110189D01*
X206934875Y-77122808D01*
X206943696Y-77132987D01*
X206946847Y-77154905D01*
X206954586Y-77175653D01*
X206951723Y-77188813D01*
X206953640Y-77202146D01*
X206944440Y-77222289D01*
X206939734Y-77243926D01*
X206926465Y-77261651D01*
X206924615Y-77265702D01*
X206918583Y-77272180D01*
X206747582Y-77443181D01*
X206686259Y-77476666D01*
X206659901Y-77479500D01*
X205619998Y-77479500D01*
X205619980Y-77479501D01*
X205517203Y-77490000D01*
X205517200Y-77490001D01*
X205350668Y-77545185D01*
X205350663Y-77545187D01*
X205201342Y-77637289D01*
X205077289Y-77761342D01*
X204985187Y-77910663D01*
X204985186Y-77910666D01*
X204930001Y-78077203D01*
X204930001Y-78077204D01*
X204930000Y-78077204D01*
X204919500Y-78179983D01*
X204919500Y-78900001D01*
X204919501Y-78900019D01*
X204930000Y-79002796D01*
X204930001Y-79002799D01*
X204974708Y-79137713D01*
X204985186Y-79169334D01*
X205077288Y-79318656D01*
X205201344Y-79442712D01*
X205350666Y-79534814D01*
X205517203Y-79589999D01*
X205619991Y-79600500D01*
X206830902Y-79600499D01*
X206852147Y-79606737D01*
X206874236Y-79608317D01*
X206885019Y-79616389D01*
X206897941Y-79620184D01*
X206912441Y-79636917D01*
X206930169Y-79650189D01*
X206934875Y-79662808D01*
X206943696Y-79672987D01*
X206946847Y-79694905D01*
X206954586Y-79715653D01*
X206951723Y-79728813D01*
X206953640Y-79742146D01*
X206944440Y-79762289D01*
X206939734Y-79783926D01*
X206926465Y-79801651D01*
X206924615Y-79805702D01*
X206918583Y-79812180D01*
X206747582Y-79983181D01*
X206686259Y-80016666D01*
X206659901Y-80019500D01*
X205619998Y-80019500D01*
X205619980Y-80019501D01*
X205517203Y-80030000D01*
X205517200Y-80030001D01*
X205350668Y-80085185D01*
X205350663Y-80085187D01*
X205201342Y-80177289D01*
X205077289Y-80301342D01*
X204985187Y-80450663D01*
X204985186Y-80450666D01*
X204930001Y-80617203D01*
X204930001Y-80617204D01*
X204930000Y-80617204D01*
X204919500Y-80719983D01*
X204919500Y-81440001D01*
X204919501Y-81440019D01*
X204930000Y-81542796D01*
X204930001Y-81542799D01*
X204959058Y-81630485D01*
X204985186Y-81709334D01*
X205077288Y-81858656D01*
X205201344Y-81982712D01*
X205350666Y-82074814D01*
X205517203Y-82129999D01*
X205619991Y-82140500D01*
X206830902Y-82140499D01*
X206852147Y-82146737D01*
X206874236Y-82148317D01*
X206885019Y-82156389D01*
X206897941Y-82160184D01*
X206912441Y-82176917D01*
X206930169Y-82190189D01*
X206934875Y-82202808D01*
X206943696Y-82212987D01*
X206946847Y-82234905D01*
X206954586Y-82255653D01*
X206951723Y-82268813D01*
X206953640Y-82282146D01*
X206944440Y-82302289D01*
X206939734Y-82323926D01*
X206926465Y-82341651D01*
X206924615Y-82345702D01*
X206918583Y-82352180D01*
X206747582Y-82523181D01*
X206686259Y-82556666D01*
X206659901Y-82559500D01*
X205619998Y-82559500D01*
X205619980Y-82559501D01*
X205517203Y-82570000D01*
X205517200Y-82570001D01*
X205350668Y-82625185D01*
X205350663Y-82625187D01*
X205201342Y-82717289D01*
X205077289Y-82841342D01*
X204985187Y-82990663D01*
X204985186Y-82990666D01*
X204930001Y-83157203D01*
X204930001Y-83157204D01*
X204930000Y-83157204D01*
X204919500Y-83259983D01*
X204919500Y-83980001D01*
X204919501Y-83980019D01*
X204930000Y-84082796D01*
X204930001Y-84082799D01*
X204985185Y-84249331D01*
X204985187Y-84249336D01*
X205020069Y-84305888D01*
X205077288Y-84398656D01*
X205201344Y-84522712D01*
X205350666Y-84614814D01*
X205517203Y-84669999D01*
X205619991Y-84680500D01*
X207380008Y-84680499D01*
X207482797Y-84669999D01*
X207649334Y-84614814D01*
X207798656Y-84522712D01*
X207922712Y-84398656D01*
X208014814Y-84249334D01*
X208069999Y-84082797D01*
X208080500Y-83980009D01*
X208080499Y-83259992D01*
X208079609Y-83251284D01*
X208069999Y-83157203D01*
X208064125Y-83139477D01*
X208029849Y-83036041D01*
X208027448Y-82966215D01*
X208059873Y-82909360D01*
X216618713Y-74350521D01*
X216618716Y-74350520D01*
X216730520Y-74238716D01*
X216780639Y-74151904D01*
X216809577Y-74101785D01*
X216850500Y-73949058D01*
X216850500Y-73790943D01*
X216850500Y-72300097D01*
X216870185Y-72233058D01*
X216886819Y-72212416D01*
X217462417Y-71636819D01*
X217523740Y-71603334D01*
X217550098Y-71600500D01*
X218208285Y-71600500D01*
X218275324Y-71620185D01*
X218314401Y-71660349D01*
X218320805Y-71670942D01*
X218344530Y-71710188D01*
X218464811Y-71830469D01*
X218464813Y-71830470D01*
X218464815Y-71830472D01*
X218610394Y-71918478D01*
X218772804Y-71969086D01*
X218843384Y-71975500D01*
X218843387Y-71975500D01*
X219356613Y-71975500D01*
X219356616Y-71975500D01*
X219427196Y-71969086D01*
X219589606Y-71918478D01*
X219735185Y-71830472D01*
X219782876Y-71782781D01*
X219837319Y-71728339D01*
X219898642Y-71694854D01*
X219968334Y-71699838D01*
X220012681Y-71728339D01*
X220114811Y-71830469D01*
X220114813Y-71830470D01*
X220114815Y-71830472D01*
X220260394Y-71918478D01*
X220422804Y-71969086D01*
X220493384Y-71975500D01*
X220493387Y-71975500D01*
X221006613Y-71975500D01*
X221006616Y-71975500D01*
X221077196Y-71969086D01*
X221239606Y-71918478D01*
X221385185Y-71830472D01*
X221505472Y-71710185D01*
X221535598Y-71660349D01*
X221587126Y-71613162D01*
X221641715Y-71600500D01*
X227663331Y-71600500D01*
X227663347Y-71600501D01*
X227670943Y-71600501D01*
X227829054Y-71600501D01*
X227829057Y-71600501D01*
X227981785Y-71559577D01*
X228031904Y-71530639D01*
X228118716Y-71480520D01*
X228230520Y-71368716D01*
X228230520Y-71368714D01*
X228240728Y-71358507D01*
X228240730Y-71358504D01*
X231358506Y-68240728D01*
X231358511Y-68240724D01*
X231368714Y-68230520D01*
X231368716Y-68230520D01*
X231480520Y-68118716D01*
X231531440Y-68030520D01*
X231559577Y-67981785D01*
X231600500Y-67829057D01*
X231600500Y-67670943D01*
X231600500Y-56420943D01*
X231594754Y-56399500D01*
X231589534Y-56380019D01*
X231559577Y-56268216D01*
X231524608Y-56207647D01*
X231480524Y-56131290D01*
X231480521Y-56131286D01*
X231480520Y-56131284D01*
X231368716Y-56019480D01*
X231368715Y-56019479D01*
X231364385Y-56015149D01*
X231364374Y-56015139D01*
X230334574Y-54985339D01*
X230301089Y-54924016D01*
X230300638Y-54921849D01*
X230269738Y-54766510D01*
X230269737Y-54766503D01*
X230213728Y-54631284D01*
X230209397Y-54620827D01*
X230209390Y-54620814D01*
X230121789Y-54489711D01*
X230121786Y-54489707D01*
X230010292Y-54378213D01*
X230010288Y-54378210D01*
X229879185Y-54290609D01*
X229879172Y-54290602D01*
X229733501Y-54230264D01*
X229733489Y-54230261D01*
X229578845Y-54199500D01*
X229578842Y-54199500D01*
X229421158Y-54199500D01*
X229421155Y-54199500D01*
X229266510Y-54230261D01*
X229266498Y-54230264D01*
X229120827Y-54290602D01*
X229120814Y-54290609D01*
X228989711Y-54378210D01*
X228989707Y-54378213D01*
X228878213Y-54489707D01*
X228878210Y-54489711D01*
X228790609Y-54620814D01*
X228790602Y-54620827D01*
X228730264Y-54766498D01*
X228730261Y-54766510D01*
X228699500Y-54921153D01*
X228699500Y-55078846D01*
X228730261Y-55233489D01*
X228730264Y-55233501D01*
X228790602Y-55379172D01*
X228790609Y-55379185D01*
X228878210Y-55510288D01*
X228878213Y-55510292D01*
X228989707Y-55621786D01*
X228989711Y-55621789D01*
X229120814Y-55709390D01*
X229120827Y-55709397D01*
X229188238Y-55737319D01*
X229266503Y-55769737D01*
X229331147Y-55782595D01*
X229421849Y-55800638D01*
X229483760Y-55833023D01*
X229485339Y-55834574D01*
X230363181Y-56712416D01*
X230396666Y-56773739D01*
X230399500Y-56800097D01*
X230399500Y-67449903D01*
X230379815Y-67516942D01*
X230363181Y-67537584D01*
X227537584Y-70363181D01*
X227476261Y-70396666D01*
X227449903Y-70399500D01*
X221641715Y-70399500D01*
X221574676Y-70379815D01*
X221535598Y-70339650D01*
X221505472Y-70289815D01*
X221505470Y-70289813D01*
X221505469Y-70289811D01*
X221385188Y-70169530D01*
X221284234Y-70108501D01*
X221239606Y-70081522D01*
X221077196Y-70030914D01*
X221077194Y-70030913D01*
X221077192Y-70030913D01*
X221027778Y-70026423D01*
X221006616Y-70024500D01*
X220493384Y-70024500D01*
X220474145Y-70026248D01*
X220422807Y-70030913D01*
X220260393Y-70081522D01*
X220114811Y-70169530D01*
X220114810Y-70169531D01*
X220012681Y-70271661D01*
X219951358Y-70305146D01*
X219881666Y-70300162D01*
X219837319Y-70271661D01*
X219735188Y-70169530D01*
X219634234Y-70108501D01*
X219589606Y-70081522D01*
X219427196Y-70030914D01*
X219427194Y-70030913D01*
X219427192Y-70030913D01*
X219377778Y-70026423D01*
X219356616Y-70024500D01*
X218843384Y-70024500D01*
X218824145Y-70026248D01*
X218772807Y-70030913D01*
X218610393Y-70081522D01*
X218464811Y-70169530D01*
X218344530Y-70289811D01*
X218314402Y-70339650D01*
X218262874Y-70386838D01*
X218208285Y-70399500D01*
X217336670Y-70399500D01*
X217336654Y-70399499D01*
X217329058Y-70399499D01*
X217170943Y-70399499D01*
X217094579Y-70419961D01*
X217018214Y-70440423D01*
X217018209Y-70440426D01*
X216881290Y-70519475D01*
X216881282Y-70519481D01*
X215769481Y-71631282D01*
X215769477Y-71631287D01*
X215752699Y-71660350D01*
X215748312Y-71667949D01*
X215690423Y-71768215D01*
X215649499Y-71920943D01*
X215649499Y-71920945D01*
X215649499Y-72089046D01*
X215649500Y-72089059D01*
X215649500Y-73569902D01*
X215629815Y-73636941D01*
X215613181Y-73657583D01*
X208292180Y-80978584D01*
X208230857Y-81012069D01*
X208161165Y-81007085D01*
X208105232Y-80965213D01*
X208080815Y-80899749D01*
X208080499Y-80890903D01*
X208080499Y-80719998D01*
X208080498Y-80719981D01*
X208069999Y-80617203D01*
X208069998Y-80617200D01*
X208029849Y-80496041D01*
X208027448Y-80426215D01*
X208059873Y-80369360D01*
X215118713Y-73310521D01*
X215118716Y-73310520D01*
X215230520Y-73198716D01*
X215280639Y-73111904D01*
X215309577Y-73061785D01*
X215350501Y-72909057D01*
X215350501Y-72750943D01*
X215350501Y-72743348D01*
X215350500Y-72743330D01*
X215350500Y-68800097D01*
X215370185Y-68733058D01*
X215386819Y-68712416D01*
X216712417Y-67386819D01*
X216773740Y-67353334D01*
X216800098Y-67350500D01*
X218208285Y-67350500D01*
X218275324Y-67370185D01*
X218314401Y-67410349D01*
X218344528Y-67460185D01*
X218344530Y-67460188D01*
X218464811Y-67580469D01*
X218464813Y-67580470D01*
X218464815Y-67580472D01*
X218610394Y-67668478D01*
X218772804Y-67719086D01*
X218843384Y-67725500D01*
X218843387Y-67725500D01*
X219356613Y-67725500D01*
X219356616Y-67725500D01*
X219427196Y-67719086D01*
X219589606Y-67668478D01*
X219735185Y-67580472D01*
X219778073Y-67537584D01*
X219837319Y-67478339D01*
X219898642Y-67444854D01*
X219968334Y-67449838D01*
X220012681Y-67478339D01*
X220114811Y-67580469D01*
X220114813Y-67580470D01*
X220114815Y-67580472D01*
X220260394Y-67668478D01*
X220422804Y-67719086D01*
X220493384Y-67725500D01*
X220493387Y-67725500D01*
X221006613Y-67725500D01*
X221006616Y-67725500D01*
X221077196Y-67719086D01*
X221239606Y-67668478D01*
X221385185Y-67580472D01*
X221505472Y-67460185D01*
X221535598Y-67410349D01*
X221587126Y-67363162D01*
X221641715Y-67350500D01*
X225913331Y-67350500D01*
X225913347Y-67350501D01*
X225920943Y-67350501D01*
X226079054Y-67350501D01*
X226079057Y-67350501D01*
X226231785Y-67309577D01*
X226301233Y-67269481D01*
X226368716Y-67230520D01*
X226480520Y-67118716D01*
X226480520Y-67118714D01*
X226490724Y-67108511D01*
X226490727Y-67108506D01*
X228230520Y-65368716D01*
X228309577Y-65231784D01*
X228350501Y-65079057D01*
X228350501Y-64920942D01*
X228350501Y-64913347D01*
X228350500Y-64913329D01*
X228350500Y-57670943D01*
X228344754Y-57649500D01*
X228331625Y-57600500D01*
X228309577Y-57518216D01*
X228298565Y-57499142D01*
X228230524Y-57381290D01*
X228230521Y-57381286D01*
X228230520Y-57381284D01*
X228118716Y-57269480D01*
X228118715Y-57269479D01*
X228114385Y-57265149D01*
X228114374Y-57265139D01*
X220987590Y-50138355D01*
X220987588Y-50138352D01*
X220868717Y-50019481D01*
X220868716Y-50019480D01*
X220781904Y-49969360D01*
X220781904Y-49969359D01*
X220781900Y-49969358D01*
X220731785Y-49940423D01*
X220579057Y-49899499D01*
X220420943Y-49899499D01*
X220413347Y-49899499D01*
X220413331Y-49899500D01*
X150246669Y-49899500D01*
X150246653Y-49899499D01*
X150239057Y-49899499D01*
X150080943Y-49899499D01*
X149973587Y-49928265D01*
X149928210Y-49940424D01*
X149928209Y-49940425D01*
X149878096Y-49969359D01*
X149878095Y-49969360D01*
X149834689Y-49994420D01*
X149791285Y-50019479D01*
X149791282Y-50019481D01*
X143262181Y-56548583D01*
X143200858Y-56582068D01*
X143131166Y-56577084D01*
X143075233Y-56535212D01*
X143050816Y-56469748D01*
X143050500Y-56460902D01*
X143050500Y-56421155D01*
X143050499Y-56421153D01*
X143034475Y-56340597D01*
X143019737Y-56266503D01*
X142995358Y-56207647D01*
X142959397Y-56120827D01*
X142959390Y-56120814D01*
X142871789Y-55989711D01*
X142871786Y-55989707D01*
X142760292Y-55878213D01*
X142760288Y-55878210D01*
X142629185Y-55790609D01*
X142629172Y-55790602D01*
X142483501Y-55730264D01*
X142483489Y-55730261D01*
X142328845Y-55699500D01*
X142328842Y-55699500D01*
X142171158Y-55699500D01*
X142171155Y-55699500D01*
X142016510Y-55730261D01*
X142016498Y-55730264D01*
X141870827Y-55790602D01*
X141870814Y-55790609D01*
X141739711Y-55878210D01*
X141739707Y-55878213D01*
X141628217Y-55989704D01*
X141628214Y-55989706D01*
X141568860Y-56078534D01*
X141553442Y-56097320D01*
X141519482Y-56131280D01*
X141519475Y-56131291D01*
X141440426Y-56268209D01*
X141440423Y-56268214D01*
X141429872Y-56307594D01*
X141393506Y-56367254D01*
X141330659Y-56397783D01*
X141310097Y-56399500D01*
X136920685Y-56399500D01*
X136853646Y-56379815D01*
X136815148Y-56340599D01*
X136786781Y-56294609D01*
X136667891Y-56175719D01*
X136667887Y-56175716D01*
X136524795Y-56087455D01*
X136524789Y-56087452D01*
X136524787Y-56087451D01*
X136365185Y-56034564D01*
X136365183Y-56034563D01*
X136266681Y-56024500D01*
X136266674Y-56024500D01*
X135733326Y-56024500D01*
X135733318Y-56024500D01*
X135634816Y-56034563D01*
X135634815Y-56034564D01*
X135555719Y-56060773D01*
X135475215Y-56087450D01*
X135475204Y-56087455D01*
X135332112Y-56175716D01*
X135332108Y-56175719D01*
X135300181Y-56207647D01*
X135238858Y-56241132D01*
X135169166Y-56236148D01*
X135124819Y-56207647D01*
X135092891Y-56175719D01*
X135092887Y-56175716D01*
X134949795Y-56087455D01*
X134949789Y-56087452D01*
X134949787Y-56087451D01*
X134790185Y-56034564D01*
X134790183Y-56034563D01*
X134691681Y-56024500D01*
X134691674Y-56024500D01*
X134158326Y-56024500D01*
X134158318Y-56024500D01*
X134059816Y-56034563D01*
X134059815Y-56034564D01*
X133980719Y-56060773D01*
X133900215Y-56087450D01*
X133900204Y-56087455D01*
X133757112Y-56175716D01*
X133757108Y-56175719D01*
X133638219Y-56294608D01*
X133638216Y-56294612D01*
X133549955Y-56437704D01*
X133549950Y-56437715D01*
X133523273Y-56518219D01*
X133497064Y-56597315D01*
X133497064Y-56597316D01*
X133497063Y-56597316D01*
X133487000Y-56695818D01*
X133487000Y-57304181D01*
X133497063Y-57402683D01*
X133549950Y-57562284D01*
X133549955Y-57562295D01*
X133638216Y-57705387D01*
X133638219Y-57705391D01*
X133757108Y-57824280D01*
X133757112Y-57824283D01*
X133765597Y-57829517D01*
X133812322Y-57881465D01*
X133824500Y-57935055D01*
X133824500Y-60314944D01*
X133804815Y-60381983D01*
X133765599Y-60420481D01*
X133757111Y-60425716D01*
X133638216Y-60544612D01*
X133549955Y-60687704D01*
X133549951Y-60687713D01*
X133497064Y-60847315D01*
X133497064Y-60847316D01*
X133497063Y-60847316D01*
X133487000Y-60945818D01*
X133487000Y-61554181D01*
X133497063Y-61652683D01*
X133549950Y-61812284D01*
X133549955Y-61812295D01*
X133638216Y-61955387D01*
X133638219Y-61955391D01*
X133757108Y-62074280D01*
X133757112Y-62074283D01*
X133765597Y-62079517D01*
X133812322Y-62131465D01*
X133824500Y-62185055D01*
X133824500Y-64564944D01*
X133804815Y-64631983D01*
X133765599Y-64670481D01*
X133757111Y-64675716D01*
X133638216Y-64794612D01*
X133549955Y-64937704D01*
X133549951Y-64937713D01*
X133497064Y-65097315D01*
X133497064Y-65097316D01*
X133497063Y-65097316D01*
X133487000Y-65195818D01*
X133487000Y-65804181D01*
X133497063Y-65902683D01*
X133549950Y-66062284D01*
X133549955Y-66062295D01*
X133638216Y-66205387D01*
X133638219Y-66205391D01*
X133757108Y-66324280D01*
X133757112Y-66324283D01*
X133765597Y-66329517D01*
X133812322Y-66381465D01*
X133824500Y-66435055D01*
X133824500Y-68814944D01*
X133804815Y-68881983D01*
X133765599Y-68920481D01*
X133757111Y-68925716D01*
X133638216Y-69044612D01*
X133549955Y-69187704D01*
X133549950Y-69187715D01*
X133523273Y-69268219D01*
X133497064Y-69347315D01*
X133497064Y-69347316D01*
X133497063Y-69347316D01*
X133487000Y-69445818D01*
X133487000Y-70054181D01*
X133497063Y-70152683D01*
X133549950Y-70312284D01*
X133549955Y-70312295D01*
X133638216Y-70455387D01*
X133638219Y-70455391D01*
X133757108Y-70574280D01*
X133757112Y-70574283D01*
X133765597Y-70579517D01*
X133812322Y-70631465D01*
X133824500Y-70685055D01*
X133824500Y-73588330D01*
X133824499Y-73588348D01*
X133824499Y-73754054D01*
X133824498Y-73754054D01*
X133824499Y-73754057D01*
X133862182Y-73894690D01*
X133865424Y-73906787D01*
X133879114Y-73930498D01*
X133879115Y-73930500D01*
X133944477Y-74043712D01*
X133944481Y-74043717D01*
X134063349Y-74162585D01*
X134063355Y-74162590D01*
X138613181Y-78712416D01*
X138646666Y-78773739D01*
X138649500Y-78800097D01*
X138649500Y-80750903D01*
X138629815Y-80817942D01*
X138577011Y-80863697D01*
X138507853Y-80873641D01*
X138444297Y-80844616D01*
X138437819Y-80838584D01*
X127327590Y-69728355D01*
X127327588Y-69728352D01*
X127208717Y-69609481D01*
X127208716Y-69609480D01*
X127121904Y-69559360D01*
X127121904Y-69559359D01*
X127121900Y-69559358D01*
X127071785Y-69530423D01*
X126919057Y-69489499D01*
X126760943Y-69489499D01*
X126753347Y-69489499D01*
X126753331Y-69489500D01*
X97729602Y-69489500D01*
X97662563Y-69469815D01*
X97619117Y-69421795D01*
X97612284Y-69408385D01*
X97491971Y-69242786D01*
X97347213Y-69098028D01*
X97181614Y-68977715D01*
X97154685Y-68963994D01*
X97088917Y-68930483D01*
X97038123Y-68882511D01*
X97021328Y-68814690D01*
X97043865Y-68748555D01*
X97088917Y-68709516D01*
X97181610Y-68662287D01*
X97202770Y-68646913D01*
X97347213Y-68541971D01*
X97347215Y-68541968D01*
X97347219Y-68541966D01*
X97491966Y-68397219D01*
X97491968Y-68397215D01*
X97491971Y-68397213D01*
X97544732Y-68324590D01*
X97612287Y-68231610D01*
X97705220Y-68049219D01*
X97768477Y-67854534D01*
X97800500Y-67652352D01*
X97800500Y-67447648D01*
X97800057Y-67444854D01*
X97768477Y-67245465D01*
X97727292Y-67118713D01*
X97705220Y-67050781D01*
X97705218Y-67050778D01*
X97705218Y-67050776D01*
X97671503Y-66984607D01*
X97612287Y-66868390D01*
X97581126Y-66825500D01*
X97491971Y-66702786D01*
X97347213Y-66558028D01*
X97181613Y-66437715D01*
X97181612Y-66437714D01*
X97181610Y-66437713D01*
X97124653Y-66408691D01*
X96999223Y-66344781D01*
X96804534Y-66281522D01*
X96629995Y-66253878D01*
X96602352Y-66249500D01*
X96397648Y-66249500D01*
X96373329Y-66253351D01*
X96195465Y-66281522D01*
X96000776Y-66344781D01*
X95818386Y-66437715D01*
X95652786Y-66558028D01*
X95508028Y-66702786D01*
X95387715Y-66868386D01*
X95294781Y-67050776D01*
X95231522Y-67245465D01*
X95199500Y-67447648D01*
X95199500Y-67652351D01*
X95231522Y-67854534D01*
X95294781Y-68049223D01*
X95346385Y-68150500D01*
X95387158Y-68230521D01*
X95387715Y-68231613D01*
X95508028Y-68397213D01*
X95652786Y-68541971D01*
X95807749Y-68654556D01*
X95818390Y-68662287D01*
X95907212Y-68707544D01*
X95911080Y-68709515D01*
X95961876Y-68757490D01*
X95978671Y-68825311D01*
X95956134Y-68891446D01*
X95911080Y-68930485D01*
X95818386Y-68977715D01*
X95652786Y-69098028D01*
X95508028Y-69242786D01*
X95387715Y-69408386D01*
X95294781Y-69590776D01*
X95231522Y-69785465D01*
X95199500Y-69987648D01*
X95199500Y-70192351D01*
X95231522Y-70394534D01*
X95236173Y-70408848D01*
X95238165Y-70478690D01*
X95205921Y-70534842D01*
X91207584Y-74533181D01*
X91146261Y-74566666D01*
X91119903Y-74569500D01*
X82489602Y-74569500D01*
X82422563Y-74549815D01*
X82379117Y-74501795D01*
X82372284Y-74488385D01*
X82251971Y-74322786D01*
X82107213Y-74178028D01*
X81941614Y-74057715D01*
X81914139Y-74043716D01*
X81848917Y-74010483D01*
X81798123Y-73962511D01*
X81781328Y-73894690D01*
X81803865Y-73828555D01*
X81848917Y-73789516D01*
X81941610Y-73742287D01*
X81962770Y-73726913D01*
X82107213Y-73621971D01*
X82107215Y-73621968D01*
X82107219Y-73621966D01*
X82251966Y-73477219D01*
X82251968Y-73477215D01*
X82251971Y-73477213D01*
X82326302Y-73374903D01*
X82372287Y-73311610D01*
X82465220Y-73129219D01*
X82528477Y-72934534D01*
X82560500Y-72732352D01*
X82560500Y-72527648D01*
X82559571Y-72521784D01*
X82528477Y-72325465D01*
X82465383Y-72131284D01*
X82465220Y-72130781D01*
X82465218Y-72130778D01*
X82465218Y-72130776D01*
X82393438Y-71989902D01*
X82372287Y-71948390D01*
X82350554Y-71918477D01*
X82251971Y-71782786D01*
X82107213Y-71638028D01*
X81941614Y-71517715D01*
X81909327Y-71501264D01*
X81848917Y-71470483D01*
X81798123Y-71422511D01*
X81781328Y-71354690D01*
X81803865Y-71288555D01*
X81848917Y-71249516D01*
X81941610Y-71202287D01*
X81962770Y-71186913D01*
X82107213Y-71081971D01*
X82107215Y-71081968D01*
X82107219Y-71081966D01*
X82251966Y-70937219D01*
X82251968Y-70937215D01*
X82251971Y-70937213D01*
X82304732Y-70864590D01*
X82372287Y-70771610D01*
X82465220Y-70589219D01*
X82528477Y-70394534D01*
X82560500Y-70192352D01*
X82560500Y-69987648D01*
X82528477Y-69785466D01*
X82465220Y-69590781D01*
X82465218Y-69590778D01*
X82465218Y-69590776D01*
X82431503Y-69524607D01*
X82372287Y-69408390D01*
X82327914Y-69347315D01*
X82251971Y-69242786D01*
X82107219Y-69098034D01*
X82070930Y-69071669D01*
X82028264Y-69016339D01*
X82022285Y-68946726D01*
X82054890Y-68884931D01*
X82115728Y-68850573D01*
X82130562Y-68848060D01*
X82167483Y-68844091D01*
X82302328Y-68793797D01*
X82302327Y-68793797D01*
X82302331Y-68793796D01*
X82417546Y-68707546D01*
X82503796Y-68592331D01*
X82554091Y-68457483D01*
X82560500Y-68397873D01*
X82560499Y-66702128D01*
X82554091Y-66642517D01*
X82503796Y-66507669D01*
X82503795Y-66507668D01*
X82503793Y-66507664D01*
X82417547Y-66392455D01*
X82417544Y-66392452D01*
X82302335Y-66306206D01*
X82302328Y-66306202D01*
X82167482Y-66255908D01*
X82167483Y-66255908D01*
X82107883Y-66249501D01*
X82107881Y-66249500D01*
X82107873Y-66249500D01*
X82107864Y-66249500D01*
X80412129Y-66249500D01*
X80412123Y-66249501D01*
X80352516Y-66255908D01*
X80217671Y-66306202D01*
X80217664Y-66306206D01*
X80102455Y-66392452D01*
X80102452Y-66392455D01*
X80016206Y-66507664D01*
X80016202Y-66507671D01*
X79965908Y-66642517D01*
X79959501Y-66702116D01*
X79959500Y-66702127D01*
X79959500Y-66825500D01*
X79939815Y-66892539D01*
X79887011Y-66938294D01*
X79835500Y-66949500D01*
X73620943Y-66949500D01*
X73468214Y-66990423D01*
X73444146Y-67004319D01*
X73420078Y-67018215D01*
X73420077Y-67018215D01*
X73331290Y-67069475D01*
X73331282Y-67069481D01*
X68269481Y-72131282D01*
X68269477Y-72131287D01*
X68255162Y-72156084D01*
X68255161Y-72156086D01*
X68190423Y-72268215D01*
X68149499Y-72420943D01*
X68149499Y-72579057D01*
X68149499Y-72579059D01*
X68149500Y-72589053D01*
X68149500Y-129163330D01*
X68149499Y-129163348D01*
X68149499Y-129329054D01*
X68149498Y-129329054D01*
X59750500Y-129329054D01*
X59750500Y-43124500D01*
X59770185Y-43057461D01*
X59822989Y-43011706D01*
X59874500Y-43000500D01*
X240375500Y-43000500D01*
X240442539Y-43020185D01*
G37*
%TD.AperFunction*%
%TD*%
D16*
%TO.C,A1*%
X81260000Y-67550000D03*
D17*
X81260000Y-70090000D03*
X81260000Y-72630000D03*
X81260000Y-75170000D03*
X81260000Y-77710000D03*
X81260000Y-80250000D03*
X81260000Y-82790000D03*
X81260000Y-85330000D03*
X81260000Y-87870000D03*
X81260000Y-90410000D03*
X81260000Y-92950000D03*
X81260000Y-95490000D03*
X81260000Y-98030000D03*
X81260000Y-100570000D03*
X81260000Y-103110000D03*
X96500000Y-103110000D03*
X96500000Y-100570000D03*
X96500000Y-98030000D03*
X96500000Y-95490000D03*
X96500000Y-92950000D03*
X96500000Y-90410000D03*
X96500000Y-87870000D03*
X96500000Y-85330000D03*
X96500000Y-82790000D03*
X96500000Y-80250000D03*
X96500000Y-77710000D03*
X96500000Y-75170000D03*
X96500000Y-72630000D03*
X96500000Y-70090000D03*
X96500000Y-67550000D03*
%TD*%
D24*
%TO.C,R1*%
X219100000Y-58250000D03*
X220750000Y-58250000D03*
%TD*%
%TO.C,R3*%
X219100000Y-66750000D03*
X220750000Y-66750000D03*
%TD*%
D25*
%TO.C,D1*%
X134425000Y-57000000D03*
X136000000Y-57000000D03*
%TD*%
%TO.C,D2*%
X134425000Y-61250000D03*
X136000000Y-61250000D03*
%TD*%
D26*
%TO.C,U1*%
X132050000Y-132000000D03*
X132050000Y-133270000D03*
X132050000Y-134540000D03*
X132050000Y-135810000D03*
X137000000Y-135810000D03*
X137000000Y-134540000D03*
X137000000Y-133270000D03*
X137000000Y-132000000D03*
%TD*%
D25*
%TO.C,D4*%
X134425000Y-69750000D03*
X136000000Y-69750000D03*
%TD*%
D24*
%TO.C,R4*%
X219100000Y-71000000D03*
X220750000Y-71000000D03*
%TD*%
D18*
%TO.C,BT1*%
X154767800Y-94250000D03*
D19*
X164750000Y-94250000D03*
%TD*%
D25*
%TO.C,D3*%
X134425000Y-65500000D03*
X136000000Y-65500000D03*
%TD*%
D27*
%TO.C,SW1*%
X199770000Y-76000000D03*
X199770000Y-78540000D03*
X199770000Y-81080000D03*
X199770000Y-83620000D03*
X206500000Y-83620000D03*
X206500000Y-81080000D03*
X206500000Y-78540000D03*
X206500000Y-76000000D03*
%TD*%
D24*
%TO.C,R2*%
X219100000Y-62500000D03*
X220750000Y-62500000D03*
%TD*%
%TO.C,R1*%
X219100000Y-58250000D03*
X220750000Y-58250000D03*
%TD*%
%TO.C,R3*%
X219100000Y-66750000D03*
X220750000Y-66750000D03*
%TD*%
D25*
%TO.C,D1*%
X134425000Y-57000000D03*
X136000000Y-57000000D03*
%TD*%
%TO.C,D2*%
X134425000Y-61250000D03*
X136000000Y-61250000D03*
%TD*%
D26*
%TO.C,U1*%
X132050000Y-132000000D03*
X132050000Y-133270000D03*
X132050000Y-134540000D03*
X132050000Y-135810000D03*
X137000000Y-135810000D03*
X137000000Y-134540000D03*
X137000000Y-133270000D03*
X137000000Y-132000000D03*
%TD*%
D25*
%TO.C,D4*%
X134425000Y-69750000D03*
X136000000Y-69750000D03*
%TD*%
D24*
%TO.C,R4*%
X219100000Y-71000000D03*
X220750000Y-71000000D03*
%TD*%
D25*
%TO.C,D3*%
X134425000Y-65500000D03*
X136000000Y-65500000D03*
%TD*%
D27*
%TO.C,SW1*%
X199770000Y-76000000D03*
X199770000Y-78540000D03*
X199770000Y-81080000D03*
X199770000Y-83620000D03*
X206500000Y-83620000D03*
X206500000Y-81080000D03*
X206500000Y-78540000D03*
X206500000Y-76000000D03*
%TD*%
D24*
%TO.C,R2*%
X219100000Y-62500000D03*
X220750000Y-62500000D03*
%TD*%
D28*
X88165714Y-62639104D02*
X88641904Y-62639104D01*
X88070476Y-62924819D02*
X88403809Y-61924819D01*
X88403809Y-61924819D02*
X88737142Y-62924819D01*
X89594285Y-62924819D02*
X89022857Y-62924819D01*
X89308571Y-62924819D02*
X89308571Y-61924819D01*
X89308571Y-61924819D02*
X89213333Y-62067676D01*
X89213333Y-62067676D02*
X89118095Y-62162914D01*
X89118095Y-62162914D02*
X89022857Y-62210533D01*
X87618095Y-102564819D02*
X87618095Y-103374342D01*
X87618095Y-103374342D02*
X87665714Y-103469580D01*
X87665714Y-103469580D02*
X87713333Y-103517200D01*
X87713333Y-103517200D02*
X87808571Y-103564819D01*
X87808571Y-103564819D02*
X87999047Y-103564819D01*
X87999047Y-103564819D02*
X88094285Y-103517200D01*
X88094285Y-103517200D02*
X88141904Y-103469580D01*
X88141904Y-103469580D02*
X88189523Y-103374342D01*
X88189523Y-103374342D02*
X88189523Y-102564819D01*
X88618095Y-103517200D02*
X88760952Y-103564819D01*
X88760952Y-103564819D02*
X88999047Y-103564819D01*
X88999047Y-103564819D02*
X89094285Y-103517200D01*
X89094285Y-103517200D02*
X89141904Y-103469580D01*
X89141904Y-103469580D02*
X89189523Y-103374342D01*
X89189523Y-103374342D02*
X89189523Y-103279104D01*
X89189523Y-103279104D02*
X89141904Y-103183866D01*
X89141904Y-103183866D02*
X89094285Y-103136247D01*
X89094285Y-103136247D02*
X88999047Y-103088628D01*
X88999047Y-103088628D02*
X88808571Y-103041009D01*
X88808571Y-103041009D02*
X88713333Y-102993390D01*
X88713333Y-102993390D02*
X88665714Y-102945771D01*
X88665714Y-102945771D02*
X88618095Y-102850533D01*
X88618095Y-102850533D02*
X88618095Y-102755295D01*
X88618095Y-102755295D02*
X88665714Y-102660057D01*
X88665714Y-102660057D02*
X88713333Y-102612438D01*
X88713333Y-102612438D02*
X88808571Y-102564819D01*
X88808571Y-102564819D02*
X89046666Y-102564819D01*
X89046666Y-102564819D02*
X89189523Y-102612438D01*
X89951428Y-103041009D02*
X90094285Y-103088628D01*
X90094285Y-103088628D02*
X90141904Y-103136247D01*
X90141904Y-103136247D02*
X90189523Y-103231485D01*
X90189523Y-103231485D02*
X90189523Y-103374342D01*
X90189523Y-103374342D02*
X90141904Y-103469580D01*
X90141904Y-103469580D02*
X90094285Y-103517200D01*
X90094285Y-103517200D02*
X89999047Y-103564819D01*
X89999047Y-103564819D02*
X89618095Y-103564819D01*
X89618095Y-103564819D02*
X89618095Y-102564819D01*
X89618095Y-102564819D02*
X89951428Y-102564819D01*
X89951428Y-102564819D02*
X90046666Y-102612438D01*
X90046666Y-102612438D02*
X90094285Y-102660057D01*
X90094285Y-102660057D02*
X90141904Y-102755295D01*
X90141904Y-102755295D02*
X90141904Y-102850533D01*
X90141904Y-102850533D02*
X90094285Y-102945771D01*
X90094285Y-102945771D02*
X90046666Y-102993390D01*
X90046666Y-102993390D02*
X89951428Y-103041009D01*
X89951428Y-103041009D02*
X89618095Y-103041009D01*
X219758333Y-57274819D02*
X219425000Y-56798628D01*
X219186905Y-57274819D02*
X219186905Y-56274819D01*
X219186905Y-56274819D02*
X219567857Y-56274819D01*
X219567857Y-56274819D02*
X219663095Y-56322438D01*
X219663095Y-56322438D02*
X219710714Y-56370057D01*
X219710714Y-56370057D02*
X219758333Y-56465295D01*
X219758333Y-56465295D02*
X219758333Y-56608152D01*
X219758333Y-56608152D02*
X219710714Y-56703390D01*
X219710714Y-56703390D02*
X219663095Y-56751009D01*
X219663095Y-56751009D02*
X219567857Y-56798628D01*
X219567857Y-56798628D02*
X219186905Y-56798628D01*
X220710714Y-57274819D02*
X220139286Y-57274819D01*
X220425000Y-57274819D02*
X220425000Y-56274819D01*
X220425000Y-56274819D02*
X220329762Y-56417676D01*
X220329762Y-56417676D02*
X220234524Y-56512914D01*
X220234524Y-56512914D02*
X220139286Y-56560533D01*
X219758333Y-65774819D02*
X219425000Y-65298628D01*
X219186905Y-65774819D02*
X219186905Y-64774819D01*
X219186905Y-64774819D02*
X219567857Y-64774819D01*
X219567857Y-64774819D02*
X219663095Y-64822438D01*
X219663095Y-64822438D02*
X219710714Y-64870057D01*
X219710714Y-64870057D02*
X219758333Y-64965295D01*
X219758333Y-64965295D02*
X219758333Y-65108152D01*
X219758333Y-65108152D02*
X219710714Y-65203390D01*
X219710714Y-65203390D02*
X219663095Y-65251009D01*
X219663095Y-65251009D02*
X219567857Y-65298628D01*
X219567857Y-65298628D02*
X219186905Y-65298628D01*
X220091667Y-64774819D02*
X220710714Y-64774819D01*
X220710714Y-64774819D02*
X220377381Y-65155771D01*
X220377381Y-65155771D02*
X220520238Y-65155771D01*
X220520238Y-65155771D02*
X220615476Y-65203390D01*
X220615476Y-65203390D02*
X220663095Y-65251009D01*
X220663095Y-65251009D02*
X220710714Y-65346247D01*
X220710714Y-65346247D02*
X220710714Y-65584342D01*
X220710714Y-65584342D02*
X220663095Y-65679580D01*
X220663095Y-65679580D02*
X220615476Y-65727200D01*
X220615476Y-65727200D02*
X220520238Y-65774819D01*
X220520238Y-65774819D02*
X220234524Y-65774819D01*
X220234524Y-65774819D02*
X220139286Y-65727200D01*
X220139286Y-65727200D02*
X220091667Y-65679580D01*
X134474405Y-56024819D02*
X134474405Y-55024819D01*
X134474405Y-55024819D02*
X134712500Y-55024819D01*
X134712500Y-55024819D02*
X134855357Y-55072438D01*
X134855357Y-55072438D02*
X134950595Y-55167676D01*
X134950595Y-55167676D02*
X134998214Y-55262914D01*
X134998214Y-55262914D02*
X135045833Y-55453390D01*
X135045833Y-55453390D02*
X135045833Y-55596247D01*
X135045833Y-55596247D02*
X134998214Y-55786723D01*
X134998214Y-55786723D02*
X134950595Y-55881961D01*
X134950595Y-55881961D02*
X134855357Y-55977200D01*
X134855357Y-55977200D02*
X134712500Y-56024819D01*
X134712500Y-56024819D02*
X134474405Y-56024819D01*
X135998214Y-56024819D02*
X135426786Y-56024819D01*
X135712500Y-56024819D02*
X135712500Y-55024819D01*
X135712500Y-55024819D02*
X135617262Y-55167676D01*
X135617262Y-55167676D02*
X135522024Y-55262914D01*
X135522024Y-55262914D02*
X135426786Y-55310533D01*
X134474405Y-60274819D02*
X134474405Y-59274819D01*
X134474405Y-59274819D02*
X134712500Y-59274819D01*
X134712500Y-59274819D02*
X134855357Y-59322438D01*
X134855357Y-59322438D02*
X134950595Y-59417676D01*
X134950595Y-59417676D02*
X134998214Y-59512914D01*
X134998214Y-59512914D02*
X135045833Y-59703390D01*
X135045833Y-59703390D02*
X135045833Y-59846247D01*
X135045833Y-59846247D02*
X134998214Y-60036723D01*
X134998214Y-60036723D02*
X134950595Y-60131961D01*
X134950595Y-60131961D02*
X134855357Y-60227200D01*
X134855357Y-60227200D02*
X134712500Y-60274819D01*
X134712500Y-60274819D02*
X134474405Y-60274819D01*
X135426786Y-59370057D02*
X135474405Y-59322438D01*
X135474405Y-59322438D02*
X135569643Y-59274819D01*
X135569643Y-59274819D02*
X135807738Y-59274819D01*
X135807738Y-59274819D02*
X135902976Y-59322438D01*
X135902976Y-59322438D02*
X135950595Y-59370057D01*
X135950595Y-59370057D02*
X135998214Y-59465295D01*
X135998214Y-59465295D02*
X135998214Y-59560533D01*
X135998214Y-59560533D02*
X135950595Y-59703390D01*
X135950595Y-59703390D02*
X135379167Y-60274819D01*
X135379167Y-60274819D02*
X135998214Y-60274819D01*
X133763095Y-129959819D02*
X133763095Y-130769342D01*
X133763095Y-130769342D02*
X133810714Y-130864580D01*
X133810714Y-130864580D02*
X133858333Y-130912200D01*
X133858333Y-130912200D02*
X133953571Y-130959819D01*
X133953571Y-130959819D02*
X134144047Y-130959819D01*
X134144047Y-130959819D02*
X134239285Y-130912200D01*
X134239285Y-130912200D02*
X134286904Y-130864580D01*
X134286904Y-130864580D02*
X134334523Y-130769342D01*
X134334523Y-130769342D02*
X134334523Y-129959819D01*
X135334523Y-130959819D02*
X134763095Y-130959819D01*
X135048809Y-130959819D02*
X135048809Y-129959819D01*
X135048809Y-129959819D02*
X134953571Y-130102676D01*
X134953571Y-130102676D02*
X134858333Y-130197914D01*
X134858333Y-130197914D02*
X134763095Y-130245533D01*
X134474405Y-68774819D02*
X134474405Y-67774819D01*
X134474405Y-67774819D02*
X134712500Y-67774819D01*
X134712500Y-67774819D02*
X134855357Y-67822438D01*
X134855357Y-67822438D02*
X134950595Y-67917676D01*
X134950595Y-67917676D02*
X134998214Y-68012914D01*
X134998214Y-68012914D02*
X135045833Y-68203390D01*
X135045833Y-68203390D02*
X135045833Y-68346247D01*
X135045833Y-68346247D02*
X134998214Y-68536723D01*
X134998214Y-68536723D02*
X134950595Y-68631961D01*
X134950595Y-68631961D02*
X134855357Y-68727200D01*
X134855357Y-68727200D02*
X134712500Y-68774819D01*
X134712500Y-68774819D02*
X134474405Y-68774819D01*
X135902976Y-68108152D02*
X135902976Y-68774819D01*
X135664881Y-67727200D02*
X135426786Y-68441485D01*
X135426786Y-68441485D02*
X136045833Y-68441485D01*
X219758333Y-70024819D02*
X219425000Y-69548628D01*
X219186905Y-70024819D02*
X219186905Y-69024819D01*
X219186905Y-69024819D02*
X219567857Y-69024819D01*
X219567857Y-69024819D02*
X219663095Y-69072438D01*
X219663095Y-69072438D02*
X219710714Y-69120057D01*
X219710714Y-69120057D02*
X219758333Y-69215295D01*
X219758333Y-69215295D02*
X219758333Y-69358152D01*
X219758333Y-69358152D02*
X219710714Y-69453390D01*
X219710714Y-69453390D02*
X219663095Y-69501009D01*
X219663095Y-69501009D02*
X219567857Y-69548628D01*
X219567857Y-69548628D02*
X219186905Y-69548628D01*
X220615476Y-69358152D02*
X220615476Y-70024819D01*
X220377381Y-68977200D02*
X220139286Y-69691485D01*
X220139286Y-69691485D02*
X220758333Y-69691485D01*
X153982085Y-90681009D02*
X154124942Y-90728628D01*
X154124942Y-90728628D02*
X154172561Y-90776247D01*
X154172561Y-90776247D02*
X154220180Y-90871485D01*
X154220180Y-90871485D02*
X154220180Y-91014342D01*
X154220180Y-91014342D02*
X154172561Y-91109580D01*
X154172561Y-91109580D02*
X154124942Y-91157200D01*
X154124942Y-91157200D02*
X154029704Y-91204819D01*
X154029704Y-91204819D02*
X153648752Y-91204819D01*
X153648752Y-91204819D02*
X153648752Y-90204819D01*
X153648752Y-90204819D02*
X153982085Y-90204819D01*
X153982085Y-90204819D02*
X154077323Y-90252438D01*
X154077323Y-90252438D02*
X154124942Y-90300057D01*
X154124942Y-90300057D02*
X154172561Y-90395295D01*
X154172561Y-90395295D02*
X154172561Y-90490533D01*
X154172561Y-90490533D02*
X154124942Y-90585771D01*
X154124942Y-90585771D02*
X154077323Y-90633390D01*
X154077323Y-90633390D02*
X153982085Y-90681009D01*
X153982085Y-90681009D02*
X153648752Y-90681009D01*
X154505895Y-90204819D02*
X155077323Y-90204819D01*
X154791609Y-91204819D02*
X154791609Y-90204819D01*
X155934466Y-91204819D02*
X155363038Y-91204819D01*
X155648752Y-91204819D02*
X155648752Y-90204819D01*
X155648752Y-90204819D02*
X155553514Y-90347676D01*
X155553514Y-90347676D02*
X155458276Y-90442914D01*
X155458276Y-90442914D02*
X155363038Y-90490533D01*
X134474405Y-64524819D02*
X134474405Y-63524819D01*
X134474405Y-63524819D02*
X134712500Y-63524819D01*
X134712500Y-63524819D02*
X134855357Y-63572438D01*
X134855357Y-63572438D02*
X134950595Y-63667676D01*
X134950595Y-63667676D02*
X134998214Y-63762914D01*
X134998214Y-63762914D02*
X135045833Y-63953390D01*
X135045833Y-63953390D02*
X135045833Y-64096247D01*
X135045833Y-64096247D02*
X134998214Y-64286723D01*
X134998214Y-64286723D02*
X134950595Y-64381961D01*
X134950595Y-64381961D02*
X134855357Y-64477200D01*
X134855357Y-64477200D02*
X134712500Y-64524819D01*
X134712500Y-64524819D02*
X134474405Y-64524819D01*
X135379167Y-63524819D02*
X135998214Y-63524819D01*
X135998214Y-63524819D02*
X135664881Y-63905771D01*
X135664881Y-63905771D02*
X135807738Y-63905771D01*
X135807738Y-63905771D02*
X135902976Y-63953390D01*
X135902976Y-63953390D02*
X135950595Y-64001009D01*
X135950595Y-64001009D02*
X135998214Y-64096247D01*
X135998214Y-64096247D02*
X135998214Y-64334342D01*
X135998214Y-64334342D02*
X135950595Y-64429580D01*
X135950595Y-64429580D02*
X135902976Y-64477200D01*
X135902976Y-64477200D02*
X135807738Y-64524819D01*
X135807738Y-64524819D02*
X135522024Y-64524819D01*
X135522024Y-64524819D02*
X135426786Y-64477200D01*
X135426786Y-64477200D02*
X135379167Y-64429580D01*
X201801667Y-73297200D02*
X201944524Y-73344819D01*
X201944524Y-73344819D02*
X202182619Y-73344819D01*
X202182619Y-73344819D02*
X202277857Y-73297200D01*
X202277857Y-73297200D02*
X202325476Y-73249580D01*
X202325476Y-73249580D02*
X202373095Y-73154342D01*
X202373095Y-73154342D02*
X202373095Y-73059104D01*
X202373095Y-73059104D02*
X202325476Y-72963866D01*
X202325476Y-72963866D02*
X202277857Y-72916247D01*
X202277857Y-72916247D02*
X202182619Y-72868628D01*
X202182619Y-72868628D02*
X201992143Y-72821009D01*
X201992143Y-72821009D02*
X201896905Y-72773390D01*
X201896905Y-72773390D02*
X201849286Y-72725771D01*
X201849286Y-72725771D02*
X201801667Y-72630533D01*
X201801667Y-72630533D02*
X201801667Y-72535295D01*
X201801667Y-72535295D02*
X201849286Y-72440057D01*
X201849286Y-72440057D02*
X201896905Y-72392438D01*
X201896905Y-72392438D02*
X201992143Y-72344819D01*
X201992143Y-72344819D02*
X202230238Y-72344819D01*
X202230238Y-72344819D02*
X202373095Y-72392438D01*
X202706429Y-72344819D02*
X202944524Y-73344819D01*
X202944524Y-73344819D02*
X203135000Y-72630533D01*
X203135000Y-72630533D02*
X203325476Y-73344819D01*
X203325476Y-73344819D02*
X203563572Y-72344819D01*
X204468333Y-73344819D02*
X203896905Y-73344819D01*
X204182619Y-73344819D02*
X204182619Y-72344819D01*
X204182619Y-72344819D02*
X204087381Y-72487676D01*
X204087381Y-72487676D02*
X203992143Y-72582914D01*
X203992143Y-72582914D02*
X203896905Y-72630533D01*
X219758333Y-61524819D02*
X219425000Y-61048628D01*
X219186905Y-61524819D02*
X219186905Y-60524819D01*
X219186905Y-60524819D02*
X219567857Y-60524819D01*
X219567857Y-60524819D02*
X219663095Y-60572438D01*
X219663095Y-60572438D02*
X219710714Y-60620057D01*
X219710714Y-60620057D02*
X219758333Y-60715295D01*
X219758333Y-60715295D02*
X219758333Y-60858152D01*
X219758333Y-60858152D02*
X219710714Y-60953390D01*
X219710714Y-60953390D02*
X219663095Y-61001009D01*
X219663095Y-61001009D02*
X219567857Y-61048628D01*
X219567857Y-61048628D02*
X219186905Y-61048628D01*
X220139286Y-60620057D02*
X220186905Y-60572438D01*
X220186905Y-60572438D02*
X220282143Y-60524819D01*
X220282143Y-60524819D02*
X220520238Y-60524819D01*
X220520238Y-60524819D02*
X220615476Y-60572438D01*
X220615476Y-60572438D02*
X220663095Y-60620057D01*
X220663095Y-60620057D02*
X220710714Y-60715295D01*
X220710714Y-60715295D02*
X220710714Y-60810533D01*
X220710714Y-60810533D02*
X220663095Y-60953390D01*
X220663095Y-60953390D02*
X220091667Y-61524819D01*
X220091667Y-61524819D02*
X220710714Y-61524819D01*
D29*
%TO.C,A1*%
X79860000Y-63610000D02*
X79860000Y-66280000D01*
X79860000Y-68820000D02*
X79860000Y-107050000D01*
X79860000Y-107050000D02*
X84940000Y-107050000D01*
X82530000Y-66280000D02*
X79860000Y-66280000D01*
X82530000Y-68820000D02*
X79860000Y-68820000D01*
X82530000Y-68820000D02*
X82530000Y-66280000D01*
X82530000Y-68820000D02*
X82530000Y-104380000D01*
X82530000Y-104380000D02*
X79860000Y-104380000D01*
X84940000Y-99170000D02*
X92820000Y-99170000D01*
X84940000Y-109590000D02*
X84940000Y-99170000D01*
X92820000Y-99170000D02*
X92820000Y-109590000D01*
X92820000Y-109590000D02*
X84940000Y-109590000D01*
X95230000Y-66280000D02*
X95230000Y-104380000D01*
X95230000Y-66280000D02*
X97900000Y-66280000D01*
X95230000Y-104380000D02*
X97900000Y-104380000D01*
X97900000Y-63610000D02*
X79860000Y-63610000D01*
X97900000Y-107050000D02*
X92820000Y-107050000D01*
X97900000Y-107050000D02*
X97900000Y-63610000D01*
%TO.C,R1*%
X219687742Y-57727500D02*
X220162258Y-57727500D01*
X219687742Y-58772500D02*
X220162258Y-58772500D01*
%TO.C,R3*%
X219687742Y-66227500D02*
X220162258Y-66227500D01*
X219687742Y-67272500D02*
X220162258Y-67272500D01*
%TO.C,D1*%
X133727500Y-56265000D02*
X133727500Y-57735000D01*
X133727500Y-57735000D02*
X136012500Y-57735000D01*
X136012500Y-56265000D02*
X133727500Y-56265000D01*
%TO.C,D2*%
X133727500Y-60515000D02*
X133727500Y-61985000D01*
X133727500Y-61985000D02*
X136012500Y-61985000D01*
X136012500Y-60515000D02*
X133727500Y-60515000D01*
%TO.C,U1*%
X134525000Y-131345000D02*
X132575000Y-131345000D01*
X134525000Y-131345000D02*
X136475000Y-131345000D01*
X134525000Y-136465000D02*
X132575000Y-136465000D01*
X134525000Y-136465000D02*
X136475000Y-136465000D01*
X131825000Y-131440000D02*
X131585000Y-131110000D01*
X132065000Y-131110000D01*
X131825000Y-131440000D01*
G36*
X131825000Y-131440000D02*
G01*
X131585000Y-131110000D01*
X132065000Y-131110000D01*
X131825000Y-131440000D01*
G37*
%TO.C,D4*%
X133727500Y-69015000D02*
X133727500Y-70485000D01*
X133727500Y-70485000D02*
X136012500Y-70485000D01*
X136012500Y-69015000D02*
X133727500Y-69015000D01*
%TO.C,R4*%
X219687742Y-70477500D02*
X220162258Y-70477500D01*
X219687742Y-71522500D02*
X220162258Y-71522500D01*
%TO.C,BT1*%
X153142200Y-91671900D02*
X153142200Y-96828100D01*
X153142200Y-91671900D02*
X157577800Y-91671900D01*
X153142200Y-96828100D02*
X157577800Y-96828100D01*
X154767800Y-97250000D02*
X154767800Y-98250000D01*
X155267800Y-97750000D02*
X154267800Y-97750000D01*
X157577800Y-91671900D02*
G75*
G02*
X157577800Y-96828100I7172200J-2578100D01*
G01*
%TO.C,D3*%
X133727500Y-64765000D02*
X133727500Y-66235000D01*
X133727500Y-66235000D02*
X136012500Y-66235000D01*
X136012500Y-64765000D02*
X133727500Y-64765000D01*
D30*
%TO.C,G\u002A\u002A\u002A*%
G36*
X75013559Y-51338256D02*
G01*
X75013559Y-52476028D01*
X74859806Y-52476028D01*
X74706053Y-52476028D01*
X74706053Y-51338256D01*
X74706053Y-50200483D01*
X74859806Y-50200483D01*
X75013559Y-50200483D01*
X75013559Y-51338256D01*
G37*
G36*
X77473607Y-51184503D02*
G01*
X77473607Y-52168522D01*
X77965617Y-52168522D01*
X78209634Y-52170161D01*
X78355746Y-52180304D01*
X78429050Y-52206796D01*
X78454641Y-52257478D01*
X78457627Y-52322275D01*
X78457627Y-52476028D01*
X77811864Y-52476028D01*
X77166101Y-52476028D01*
X77166101Y-51338256D01*
X77166101Y-50200483D01*
X77319854Y-50200483D01*
X77473607Y-50200483D01*
X77473607Y-51184503D01*
G37*
G36*
X70365649Y-50179184D02*
G01*
X70402933Y-50222523D01*
X70425846Y-50322226D01*
X70439664Y-50500773D01*
X70449312Y-50768661D01*
X70466906Y-51367589D01*
X70996976Y-50784036D01*
X71227824Y-50534860D01*
X71397532Y-50366158D01*
X71523439Y-50263693D01*
X71622887Y-50213228D01*
X71707748Y-50200483D01*
X71888451Y-50200483D01*
X71642180Y-50492614D01*
X71465489Y-50693658D01*
X71279287Y-50892619D01*
X71180393Y-50991649D01*
X70964877Y-51198554D01*
X71451688Y-51786355D01*
X71637712Y-52014858D01*
X71790934Y-52210471D01*
X71896188Y-52353293D01*
X71938306Y-52423426D01*
X71938498Y-52425093D01*
X71886462Y-52465316D01*
X71804487Y-52476028D01*
X71701481Y-52434841D01*
X71559148Y-52332896D01*
X71413913Y-52202615D01*
X71302202Y-52076421D01*
X71260341Y-51991664D01*
X71221098Y-51928934D01*
X71121459Y-51806958D01*
X71022378Y-51695504D01*
X70786059Y-51437740D01*
X70624264Y-51606618D01*
X70527033Y-51729641D01*
X70478270Y-51866937D01*
X70462877Y-52066951D01*
X70462469Y-52125762D01*
X70458835Y-52323719D01*
X70439188Y-52428332D01*
X70390409Y-52469222D01*
X70307359Y-52476028D01*
X70152249Y-52476028D01*
X70168981Y-51322881D01*
X70175406Y-50919996D01*
X70182605Y-50623755D01*
X70192558Y-50417805D01*
X70207248Y-50285792D01*
X70228656Y-50211364D01*
X70258764Y-50178168D01*
X70299553Y-50169850D01*
X70308716Y-50169733D01*
X70365649Y-50179184D01*
G37*
G36*
X73575987Y-50167179D02*
G01*
X73728231Y-50208562D01*
X73955716Y-50306530D01*
X74061338Y-50408986D01*
X74046195Y-50517100D01*
X74033445Y-50534034D01*
X73965022Y-50592329D01*
X73878967Y-50583422D01*
X73780402Y-50537120D01*
X73489406Y-50449579D01*
X73194979Y-50468609D01*
X72923102Y-50581348D01*
X72699753Y-50774932D01*
X72550913Y-51036498D01*
X72517034Y-51162644D01*
X72517130Y-51387765D01*
X72579359Y-51637973D01*
X72686239Y-51864002D01*
X72820016Y-52016397D01*
X73084670Y-52146139D01*
X73374816Y-52199090D01*
X73632823Y-52167518D01*
X73831460Y-52061510D01*
X73992524Y-51903979D01*
X74082476Y-51731472D01*
X74091041Y-51668219D01*
X74072062Y-51598969D01*
X73995531Y-51564471D01*
X73832058Y-51553763D01*
X73783535Y-51553510D01*
X73599091Y-51547034D01*
X73507102Y-51519547D01*
X73477344Y-51458958D01*
X73476029Y-51430508D01*
X73486752Y-51368049D01*
X73535784Y-51331190D01*
X73648413Y-51313302D01*
X73849928Y-51307757D01*
X73945286Y-51307505D01*
X74414543Y-51307505D01*
X74382557Y-51591286D01*
X74288768Y-51924272D01*
X74100394Y-52191799D01*
X73835022Y-52378231D01*
X73510243Y-52467931D01*
X73390057Y-52473621D01*
X73164716Y-52454741D01*
X72958933Y-52409830D01*
X72891767Y-52384557D01*
X72583775Y-52181148D01*
X72365648Y-51916558D01*
X72237411Y-51611971D01*
X72199090Y-51288572D01*
X72250710Y-50967548D01*
X72392297Y-50670083D01*
X72623874Y-50417363D01*
X72889223Y-50254584D01*
X73233577Y-50152308D01*
X73575987Y-50167179D01*
G37*
G36*
X76281810Y-50166114D02*
G01*
X76429571Y-50235895D01*
X76593067Y-50358018D01*
X76629426Y-50392361D01*
X76741811Y-50513051D01*
X76774284Y-50587950D01*
X76737744Y-50654227D01*
X76713589Y-50679354D01*
X76631955Y-50744087D01*
X76570089Y-50715546D01*
X76521092Y-50650731D01*
X76369032Y-50515766D01*
X76171264Y-50444374D01*
X75967633Y-50440293D01*
X75797985Y-50507264D01*
X75732962Y-50576746D01*
X75684222Y-50747067D01*
X75755404Y-50907310D01*
X75943555Y-51053053D01*
X76100288Y-51127246D01*
X76464626Y-51307683D01*
X76711810Y-51504959D01*
X76839776Y-51717133D01*
X76858595Y-51840680D01*
X76825468Y-52087773D01*
X76712484Y-52265596D01*
X76499235Y-52404427D01*
X76469250Y-52418405D01*
X76297332Y-52492641D01*
X76176205Y-52522093D01*
X76047118Y-52512316D01*
X75875461Y-52474537D01*
X75718904Y-52405714D01*
X75551930Y-52285911D01*
X75410032Y-52146718D01*
X75328704Y-52019725D01*
X75321065Y-51981118D01*
X75362453Y-51894701D01*
X75462389Y-51883388D01*
X75584525Y-51944020D01*
X75650277Y-52009728D01*
X75826677Y-52152327D01*
X76043256Y-52219066D01*
X76258640Y-52204567D01*
X76424672Y-52110436D01*
X76531121Y-51930913D01*
X76539439Y-51811165D01*
X76511791Y-51718308D01*
X76437771Y-51633715D01*
X76295037Y-51538930D01*
X76061245Y-51415499D01*
X76059079Y-51414413D01*
X75830277Y-51289738D01*
X75635199Y-51165583D01*
X75508530Y-51064500D01*
X75491561Y-51045405D01*
X75397302Y-50840446D01*
X75406535Y-50631677D01*
X75501934Y-50438374D01*
X75666174Y-50279814D01*
X75881930Y-50175276D01*
X76131876Y-50144035D01*
X76281810Y-50166114D01*
G37*
G36*
X67720402Y-48915528D02*
G01*
X67745894Y-49031015D01*
X67755550Y-49240565D01*
X67756416Y-49380467D01*
X67761209Y-49619528D01*
X67778793Y-49758793D01*
X67813975Y-49821214D01*
X67850895Y-49831476D01*
X67894541Y-49848948D01*
X67920737Y-49915449D01*
X67932192Y-50052107D01*
X67931615Y-50280048D01*
X67927771Y-50431113D01*
X67910169Y-51030750D01*
X67562957Y-51049003D01*
X67375453Y-51065410D01*
X67254122Y-51106086D01*
X67184529Y-51193765D01*
X67152236Y-51351179D01*
X67142807Y-51601061D01*
X67142244Y-51711476D01*
X67190770Y-52189396D01*
X67332959Y-52613333D01*
X67560342Y-52969766D01*
X67864455Y-53245172D01*
X68210258Y-53417256D01*
X68506020Y-53518032D01*
X68736483Y-53332826D01*
X69002448Y-53082018D01*
X69188377Y-52827982D01*
X69264924Y-52644792D01*
X69257390Y-52482354D01*
X69166679Y-52366022D01*
X69027518Y-52306852D01*
X68874633Y-52315900D01*
X68742750Y-52404224D01*
X68702857Y-52465830D01*
X68608313Y-52627639D01*
X68529578Y-52674628D01*
X68446515Y-52609613D01*
X68381887Y-52510694D01*
X68234740Y-52337425D01*
X68080757Y-52281031D01*
X67939010Y-52338148D01*
X67828569Y-52505407D01*
X67794475Y-52614406D01*
X67736104Y-52736983D01*
X67661062Y-52783534D01*
X67558833Y-52736363D01*
X67518092Y-52616348D01*
X67536411Y-52455736D01*
X67611359Y-52286774D01*
X67707256Y-52170224D01*
X67879018Y-52079823D01*
X68106847Y-52044751D01*
X68334716Y-52069695D01*
X68436972Y-52109185D01*
X68592488Y-52137760D01*
X68686383Y-52103035D01*
X68923652Y-52032152D01*
X69163588Y-52052760D01*
X69362783Y-52159168D01*
X69399458Y-52196552D01*
X69512115Y-52414471D01*
X69517585Y-52668155D01*
X69421061Y-52943359D01*
X69227733Y-53225839D01*
X68942794Y-53501351D01*
X68916148Y-53522702D01*
X68701132Y-53676186D01*
X68524187Y-53746993D01*
X68339447Y-53741933D01*
X68101045Y-53667814D01*
X68055891Y-53650406D01*
X67649357Y-53442307D01*
X67334248Y-53167952D01*
X67106317Y-52819906D01*
X66961318Y-52390735D01*
X66895003Y-51873004D01*
X66889706Y-51608601D01*
X66893923Y-51067877D01*
X66571780Y-51049314D01*
X66249636Y-51030750D01*
X66232034Y-50431113D01*
X66226560Y-50150846D01*
X66231793Y-49972194D01*
X66250443Y-49874029D01*
X66285219Y-49835223D01*
X66308910Y-49831476D01*
X66358817Y-49808722D01*
X66387975Y-49725198D01*
X66401141Y-49558008D01*
X66403389Y-49376797D01*
X66410858Y-49118169D01*
X66435448Y-48963238D01*
X66480434Y-48893476D01*
X66489628Y-48889025D01*
X66565738Y-48874674D01*
X66613380Y-48915528D01*
X66638872Y-49031015D01*
X66648529Y-49240565D01*
X66649394Y-49380467D01*
X66649394Y-49831476D01*
X67079903Y-49831476D01*
X67510411Y-49831476D01*
X67510411Y-49376797D01*
X67517880Y-49118169D01*
X67542470Y-48963238D01*
X67587456Y-48893476D01*
X67596650Y-48889025D01*
X67672760Y-48874674D01*
X67720402Y-48915528D01*
G37*
D29*
%TO.C,SW1*%
X199485000Y-73650000D02*
X199485000Y-75033000D01*
X199485000Y-73650000D02*
X200868000Y-73650000D01*
X199725000Y-73890000D02*
X199725000Y-75200000D01*
X199725000Y-73890000D02*
X206545000Y-73890000D01*
X199725000Y-76800000D02*
X199725000Y-77740000D01*
X199725000Y-79340000D02*
X199725000Y-80280000D01*
X199725000Y-81880000D02*
X199725000Y-82820000D01*
X199725000Y-84420000D02*
X199725000Y-85730000D01*
X199725000Y-85730000D02*
X206545000Y-85730000D01*
X202531667Y-75365000D02*
X202531667Y-76635000D01*
X202531667Y-77905000D02*
X202531667Y-79175000D01*
X202531667Y-80445000D02*
X202531667Y-81715000D01*
X202531667Y-82985000D02*
X202531667Y-84255000D01*
X206545000Y-73890000D02*
X206545000Y-75200000D01*
X206545000Y-76800000D02*
X206545000Y-77740000D01*
X206545000Y-79340000D02*
X206545000Y-80280000D01*
X206545000Y-81880000D02*
X206545000Y-82820000D01*
X206545000Y-84420000D02*
X206545000Y-85730000D01*
X201325000Y-75365000D02*
X202531667Y-75365000D01*
X202531667Y-76635000D01*
X201325000Y-76635000D01*
X201325000Y-75365000D01*
G36*
X201325000Y-75365000D02*
G01*
X202531667Y-75365000D01*
X202531667Y-76635000D01*
X201325000Y-76635000D01*
X201325000Y-75365000D01*
G37*
X201325000Y-75365000D02*
X204945000Y-75365000D01*
X204945000Y-76635000D01*
X201325000Y-76635000D01*
X201325000Y-75365000D01*
X201325000Y-77905000D02*
X202531667Y-77905000D01*
X202531667Y-79175000D01*
X201325000Y-79175000D01*
X201325000Y-77905000D01*
G36*
X201325000Y-77905000D02*
G01*
X202531667Y-77905000D01*
X202531667Y-79175000D01*
X201325000Y-79175000D01*
X201325000Y-77905000D01*
G37*
X201325000Y-77905000D02*
X204945000Y-77905000D01*
X204945000Y-79175000D01*
X201325000Y-79175000D01*
X201325000Y-77905000D01*
X201325000Y-80445000D02*
X202531667Y-80445000D01*
X202531667Y-81715000D01*
X201325000Y-81715000D01*
X201325000Y-80445000D01*
G36*
X201325000Y-80445000D02*
G01*
X202531667Y-80445000D01*
X202531667Y-81715000D01*
X201325000Y-81715000D01*
X201325000Y-80445000D01*
G37*
X201325000Y-80445000D02*
X204945000Y-80445000D01*
X204945000Y-81715000D01*
X201325000Y-81715000D01*
X201325000Y-80445000D01*
X201325000Y-82985000D02*
X202531667Y-82985000D01*
X202531667Y-84255000D01*
X201325000Y-84255000D01*
X201325000Y-82985000D01*
G36*
X201325000Y-82985000D02*
G01*
X202531667Y-82985000D01*
X202531667Y-84255000D01*
X201325000Y-84255000D01*
X201325000Y-82985000D01*
G37*
X201325000Y-82985000D02*
X204945000Y-82985000D01*
X204945000Y-84255000D01*
X201325000Y-84255000D01*
X201325000Y-82985000D01*
%TO.C,R2*%
X219687742Y-61977500D02*
X220162258Y-61977500D01*
X219687742Y-63022500D02*
X220162258Y-63022500D01*
%TD*%
D31*
X59250000Y-42500000D02*
X241000000Y-42500000D01*
X241000000Y-147750000D01*
X59250000Y-147750000D01*
X59250000Y-42500000D01*
M02*
