M48
; DRILL file {KiCad 9.0.0} date 2025-04-05T21:22:51+0530
; FORMAT={3:3/ absolute / metric / suppress leading zeros}
; #@! TF.CreationDate,2025-04-05T21:22:51+05:30
; #@! TF.GenerationSoftware,Kicad,Pcbnew,9.0.0
; #@! TF.FileFunction,Plated,1,2,PTH
FMAT,2
METRIC,TZ
; #@! TA.AperFunction,Plated,PTH,ViaDrill
T1C0.300
; #@! TA.AperFunction,Plated,PTH,ComponentDrill
T2C1.000
; #@! TA.AperFunction,Plated,PTH,ComponentDrill
T3C1.016
%
G90
G05
T1
X137000Y-129000
X139000Y-60750
X139750Y-129250
X140250Y-133250
X142250Y-56500
X142750Y-129250
X143000Y-60750
X143750Y-133250
X144000Y-125750
X153750Y-56500
X211500Y-55000
X229500Y-55000
T2
X81260Y-67550
X81260Y-70090
X81260Y-72630
X81260Y-75170
X81260Y-77710
X81260Y-80250
X81260Y-82790
X81260Y-85330
X81260Y-87870
X81260Y-90410
X81260Y-92950
X81260Y-95490
X81260Y-98030
X81260Y-100570
X81260Y-103110
X96500Y-67550
X96500Y-70090
X96500Y-72630
X96500Y-75170
X96500Y-77710
X96500Y-80250
X96500Y-82790
X96500Y-85330
X96500Y-87870
X96500Y-90410
X96500Y-92950
X96500Y-95490
X96500Y-98030
X96500Y-100570
X96500Y-103110
T3
X154768Y-94250
X164750Y-94250
M30
