%TF.GenerationSoftware,KiCad,Pcbnew,9.0.0*%
%TF.CreationDate,2025-04-05T21:22:51+05:30*%
%TF.ProjectId,Power Monitor System,506f7765-7220-44d6-9f6e-69746f722053,rev?*%
%TF.SameCoordinates,Original*%
%TF.FileFunction,Drillmap*%
%TF.FilePolarity,Positive*%
%FSLAX45Y45*%
G04 Gerber Fmt 4.5, Leading zero omitted, Abs format (unit mm)*
G04 Created by KiCad (PCBNEW 9.0.0) date 2025-04-05 21:22:51*
%MOMM*%
%LPD*%
G01*
G04 APERTURE LIST*
%ADD10C,0.050000*%
%ADD11C,0.200000*%
G04 APERTURE END LIST*
D10*
X5925000Y-4250000D02*
X24100000Y-4250000D01*
X24100000Y-14775000D01*
X5925000Y-14775000D01*
X5925000Y-4250000D01*
D11*
X6183277Y-15088984D02*
X6183277Y-14888984D01*
X6183277Y-14888984D02*
X6230896Y-14888984D01*
X6230896Y-14888984D02*
X6259467Y-14898508D01*
X6259467Y-14898508D02*
X6278515Y-14917555D01*
X6278515Y-14917555D02*
X6288039Y-14936603D01*
X6288039Y-14936603D02*
X6297562Y-14974698D01*
X6297562Y-14974698D02*
X6297562Y-15003269D01*
X6297562Y-15003269D02*
X6288039Y-15041365D01*
X6288039Y-15041365D02*
X6278515Y-15060412D01*
X6278515Y-15060412D02*
X6259467Y-15079460D01*
X6259467Y-15079460D02*
X6230896Y-15088984D01*
X6230896Y-15088984D02*
X6183277Y-15088984D01*
X6383277Y-15088984D02*
X6383277Y-14955650D01*
X6383277Y-14993746D02*
X6392801Y-14974698D01*
X6392801Y-14974698D02*
X6402324Y-14965174D01*
X6402324Y-14965174D02*
X6421372Y-14955650D01*
X6421372Y-14955650D02*
X6440420Y-14955650D01*
X6507086Y-15088984D02*
X6507086Y-14955650D01*
X6507086Y-14888984D02*
X6497562Y-14898508D01*
X6497562Y-14898508D02*
X6507086Y-14908031D01*
X6507086Y-14908031D02*
X6516610Y-14898508D01*
X6516610Y-14898508D02*
X6507086Y-14888984D01*
X6507086Y-14888984D02*
X6507086Y-14908031D01*
X6630896Y-15088984D02*
X6611848Y-15079460D01*
X6611848Y-15079460D02*
X6602324Y-15060412D01*
X6602324Y-15060412D02*
X6602324Y-14888984D01*
X6735658Y-15088984D02*
X6716610Y-15079460D01*
X6716610Y-15079460D02*
X6707086Y-15060412D01*
X6707086Y-15060412D02*
X6707086Y-14888984D01*
X6964229Y-15088984D02*
X6964229Y-14888984D01*
X6964229Y-14888984D02*
X7030896Y-15031841D01*
X7030896Y-15031841D02*
X7097562Y-14888984D01*
X7097562Y-14888984D02*
X7097562Y-15088984D01*
X7278515Y-15088984D02*
X7278515Y-14984222D01*
X7278515Y-14984222D02*
X7268991Y-14965174D01*
X7268991Y-14965174D02*
X7249943Y-14955650D01*
X7249943Y-14955650D02*
X7211848Y-14955650D01*
X7211848Y-14955650D02*
X7192801Y-14965174D01*
X7278515Y-15079460D02*
X7259467Y-15088984D01*
X7259467Y-15088984D02*
X7211848Y-15088984D01*
X7211848Y-15088984D02*
X7192801Y-15079460D01*
X7192801Y-15079460D02*
X7183277Y-15060412D01*
X7183277Y-15060412D02*
X7183277Y-15041365D01*
X7183277Y-15041365D02*
X7192801Y-15022317D01*
X7192801Y-15022317D02*
X7211848Y-15012793D01*
X7211848Y-15012793D02*
X7259467Y-15012793D01*
X7259467Y-15012793D02*
X7278515Y-15003269D01*
X7373753Y-14955650D02*
X7373753Y-15155650D01*
X7373753Y-14965174D02*
X7392801Y-14955650D01*
X7392801Y-14955650D02*
X7430896Y-14955650D01*
X7430896Y-14955650D02*
X7449943Y-14965174D01*
X7449943Y-14965174D02*
X7459467Y-14974698D01*
X7459467Y-14974698D02*
X7468991Y-14993746D01*
X7468991Y-14993746D02*
X7468991Y-15050888D01*
X7468991Y-15050888D02*
X7459467Y-15069936D01*
X7459467Y-15069936D02*
X7449943Y-15079460D01*
X7449943Y-15079460D02*
X7430896Y-15088984D01*
X7430896Y-15088984D02*
X7392801Y-15088984D01*
X7392801Y-15088984D02*
X7373753Y-15079460D01*
X7554705Y-15069936D02*
X7564229Y-15079460D01*
X7564229Y-15079460D02*
X7554705Y-15088984D01*
X7554705Y-15088984D02*
X7545182Y-15079460D01*
X7545182Y-15079460D02*
X7554705Y-15069936D01*
X7554705Y-15069936D02*
X7554705Y-15088984D01*
X7554705Y-14965174D02*
X7564229Y-14974698D01*
X7564229Y-14974698D02*
X7554705Y-14984222D01*
X7554705Y-14984222D02*
X7545182Y-14974698D01*
X7545182Y-14974698D02*
X7554705Y-14965174D01*
X7554705Y-14965174D02*
X7554705Y-14984222D01*
M02*
